Inter-UI-Italic.ufo
<glyph name="exclam" format="2">
  <advance width="784.0"/>
  <unicode hex="0021"/>
  <outline>
    <contour>
      <point x="740.0" y="2048.0" type="line"/>
      <point x="468.0" y="2048.0" type="line"/>
      <point x="244.0" y="576.0" type="line"/>
      <point x="476.0" y="576.0" type="line"/>
    </contour>
    <contour>
      <point x="260.0" y="-32.0" type="curve" smooth="yes"/>
      <point x="364.0" y="-32.0"/>
      <point x="464.0" y="52.0"/>
      <point x="484.0" y="160.0" type="curve" smooth="yes"/>
      <point x="500.0" y="268.0"/>
      <point x="428.0" y="356.0"/>
      <point x="324.0" y="356.0" type="curve" smooth="yes"/>
      <point x="216.0" y="356.0"/>
      <point x="116.0" y="268.0"/>
      <point x="100.0" y="160.0" type="curve" smooth="yes"/>
      <point x="80.0" y="52.0"/>
      <point x="152.0" y="-32.0"/>
    </contour>
  </outline>
</glyph>
<glyph name="numbersign" format="2">
  <advance width="1776.0"/>
  <unicode hex="0023"/>
  <note>
1. outline
2. slant 9.4 deg
3. remove extra shapes created by outlining
</note>
  <outline>
    <contour>
      <point x="1024.0" y="0.0" type="line"/>
      <point x="1224.0" y="0.0" type="line"/>
      <point x="1560.0" y="2048.0" type="line"/>
      <point x="1360.0" y="2048.0" type="line"/>
    </contour>
    <contour>
      <point x="92.0" y="568.0" type="line"/>
      <point x="1620.0" y="568.0" type="line"/>
      <point x="1652.0" y="768.0" type="line"/>
      <point x="124.0" y="768.0" type="line"/>
    </contour>
    <contour>
      <point x="304.0" y="0.0" type="line"/>
      <point x="504.0" y="0.0" type="line"/>
      <point x="840.0" y="2048.0" type="line"/>
      <point x="640.0" y="2048.0" type="line"/>
    </contour>
    <contour>
      <point x="212.0" y="1280.0" type="line"/>
      <point x="1740.0" y="1280.0" type="line"/>
      <point x="1772.0" y="1480.0" type="line"/>
      <point x="244.0" y="1480.0" type="line"/>
    </contour>
  </outline>
</glyph>
<glyph name="dollar" format="2">
  <advance width="1812.0"/>
  <unicode hex="0024"/>
  <outline>
    <contour>
      <point x="672.0" y="-256.0" type="line"/>
      <point x="800.0" y="-256.0" type="line"/>
      <point x="1224.0" y="2304.0" type="line"/>
      <point x="1096.0" y="2304.0" type="line"/>
    </contour>
    <component base="S" yxScale="0.16555" xOffset="-128.0"/>
  </outline>
</glyph>
<glyph name="percent" format="2">
  <advance width="2288.0"/>
  <unicode hex="0025"/>
  <outline>
    <contour>
      <point x="1192.0" y="384.0" type="line" smooth="yes"/>
      <point x="1156.0" y="160.0"/>
      <point x="1264.0" y="-28.0"/>
      <point x="1524.0" y="-28.0" type="curve" smooth="yes"/>
      <point x="1780.0" y="-28.0"/>
      <point x="1952.0" y="160.0"/>
      <point x="1988.0" y="384.0" type="curve" smooth="yes"/>
      <point x="2008.0" y="492.0" type="line" smooth="yes"/>
      <point x="2044.0" y="716.0"/>
      <point x="1940.0" y="904.0"/>
      <point x="1680.0" y="904.0" type="curve" smooth="yes"/>
      <point x="1424.0" y="904.0"/>
      <point x="1248.0" y="716.0"/>
      <point x="1212.0" y="492.0" type="curve" smooth="yes"/>
    </contour>
    <contour>
      <point x="1416.0" y="492.0" type="line" smooth="yes"/>
      <point x="1436.0" y="616.0"/>
      <point x="1512.0" y="732.0"/>
      <point x="1652.0" y="732.0" type="curve" smooth="yes"/>
      <point x="1796.0" y="732.0"/>
      <point x="1824.0" y="616.0"/>
      <point x="1804.0" y="492.0" type="curve" smooth="yes"/>
      <point x="1784.0" y="384.0" type="line" smooth="yes"/>
      <point x="1764.0" y="260.0"/>
      <point x="1692.0" y="144.0"/>
      <point x="1552.0" y="144.0" type="curve" smooth="yes"/>
      <point x="1408.0" y="144.0"/>
      <point x="1376.0" y="260.0"/>
      <point x="1396.0" y="384.0" type="curve" smooth="yes"/>
    </contour>
    <contour>
      <point x="368.0" y="1556.0" type="line" smooth="yes"/>
      <point x="328.0" y="1332.0"/>
      <point x="440.0" y="1144.0"/>
      <point x="700.0" y="1144.0" type="curve" smooth="yes"/>
      <point x="956.0" y="1144.0"/>
      <point x="1124.0" y="1332.0"/>
      <point x="1164.0" y="1556.0" type="curve" smooth="yes"/>
      <point x="1180.0" y="1664.0" type="line" smooth="yes"/>
      <point x="1216.0" y="1888.0"/>
      <point x="1112.0" y="2076.0"/>
      <point x="852.0" y="2076.0" type="curve" smooth="yes"/>
      <point x="596.0" y="2076.0"/>
      <point x="420.0" y="1888.0"/>
      <point x="384.0" y="1664.0" type="curve" smooth="yes"/>
    </contour>
    <contour>
      <point x="588.0" y="1664.0" type="line" smooth="yes"/>
      <point x="608.0" y="1788.0"/>
      <point x="684.0" y="1904.0"/>
      <point x="824.0" y="1904.0" type="curve" smooth="yes"/>
      <point x="968.0" y="1904.0"/>
      <point x="996.0" y="1788.0"/>
      <point x="976.0" y="1664.0" type="curve" smooth="yes"/>
      <point x="960.0" y="1556.0" type="line" smooth="yes"/>
      <point x="936.0" y="1432.0"/>
      <point x="868.0" y="1316.0"/>
      <point x="728.0" y="1316.0" type="curve" smooth="yes"/>
      <point x="584.0" y="1316.0"/>
      <point x="548.0" y="1432.0"/>
      <point x="572.0" y="1556.0" type="curve" smooth="yes"/>
    </contour>
    <component base="fraction" xOffset="724.0"/>
  </outline>
</glyph>
<glyph name="ampersand" format="2">
  <advance width="1776.0"/>
  <unicode hex="0026"/>
  <outline>
    <contour>
      <point x="608.0" y="1128.0" type="line"/>
      <point x="328.0" y="956.0"/>
      <point x="124.0" y="800.0"/>
      <point x="84.0" y="544.0" type="curve"/>
      <point x="28.0" y="212.0"/>
      <point x="236.0" y="-28.0"/>
      <point x="640.0" y="-28.0" type="curve"/>
      <point x="836.0" y="-28.0"/>
      <point x="1068.0" y="44.0"/>
      <point x="1224.0" y="192.0" type="curve" smooth="yes"/>
      <point x="1232.0" y="204.0"/>
      <point x="1268.0" y="244.0"/>
      <point x="1280.0" y="252.0" type="curve" smooth="yes"/>
      <point x="1364.0" y="332.0"/>
      <point x="1564.0" y="488.0"/>
      <point x="1632.0" y="896.0" type="curve"/>
      <point x="1404.0" y="896.0" type="line"/>
      <point x="1332.0" y="456.0"/>
      <point x="976.0" y="180.0"/>
      <point x="668.0" y="180.0" type="curve" smooth="yes"/>
      <point x="424.0" y="180.0"/>
      <point x="292.0" y="352.0"/>
      <point x="324.0" y="544.0" type="curve"/>
      <point x="332.0" y="600.0"/>
      <point x="408.0" y="744.0"/>
      <point x="616.0" y="880.0" type="curve" smooth="yes"/>
      <point x="1072.0" y="1184.0" type="line" smooth="yes"/>
      <point x="1260.0" y="1308.0"/>
      <point x="1388.0" y="1444.0"/>
      <point x="1420.0" y="1640.0" type="curve"/>
      <point x="1460.0" y="1868.0"/>
      <point x="1304.0" y="2068.0"/>
      <point x="996.0" y="2068.0" type="curve" smooth="yes"/>
      <point x="696.0" y="2068.0"/>
      <point x="468.0" y="1880.0"/>
      <point x="424.0" y="1604.0" type="curve" smooth="yes"/>
      <point x="384.0" y="1364.0"/>
      <point x="528.0" y="1196.0"/>
      <point x="700.0" y="936.0" type="curve" smooth="yes"/>
      <point x="1320.0" y="0.0" type="line"/>
      <point x="1604.0" y="0.0" type="line"/>
      <point x="856.0" y="1148.0" type="line" smooth="yes"/>
      <point x="748.0" y="1308.0"/>
      <point x="636.0" y="1456.0"/>
      <point x="660.0" y="1600.0" type="curve" smooth="yes"/>
      <point x="684.0" y="1728.0"/>
      <point x="812.0" y="1864.0"/>
      <point x="968.0" y="1864.0" type="curve" smooth="yes"/>
      <point x="1116.0" y="1864.0"/>
      <point x="1196.0" y="1744.0"/>
      <point x="1180.0" y="1640.0" type="curve"/>
      <point x="1156.0" y="1500.0"/>
      <point x="1068.0" y="1424.0"/>
      <point x="940.0" y="1348.0" type="curve"/>
    </contour>
  </outline>
</glyph>
<glyph name="quotesingle" format="2">
  <advance width="624.0"/>
  <unicode hex="0027"/>
  <outline>
    <contour>
      <point x="632.0" y="2048.0" type="line"/>
      <point x="412.0" y="2048.0" type="line"/>
      <point x="296.0" y="1344.0" type="line"/>
      <point x="516.0" y="1344.0" type="line"/>
    </contour>
  </outline>
</glyph>
<glyph name="parenleft" format="2">
  <advance width="928.0"/>
  <unicode hex="0028"/>
  <guideline x="-60.0" y="-128.0" angle="90.0"/>
  <guideline x="204.0" y="4.0" angle="90.0"/>
  <guideline x="876.0" y="1752.0" angle="0.0"/>
  <guideline x="988.0" y="1640.0" angle="0.0"/>
  <outline>
    <contour>
      <point x="636.0" y="-384.0" type="line"/>
      <point x="468.0" y="24.0"/>
      <point x="432.0" y="404.0"/>
      <point x="504.0" y="832.0" type="curve" smooth="yes"/>
      <point x="576.0" y="1276.0"/>
      <point x="736.0" y="1640.0"/>
      <point x="1044.0" y="2048.0" type="curve"/>
      <point x="824.0" y="2048.0" type="line"/>
      <point x="556.0" y="1752.0"/>
      <point x="336.0" y="1304.0"/>
      <point x="260.0" y="832.0" type="curve" smooth="yes"/>
      <point x="180.0" y="360.0"/>
      <point x="252.0" y="-88.0"/>
      <point x="400.0" y="-384.0" type="curve"/>
    </contour>
  </outline>
</glyph>
<glyph name="parenright" format="2">
  <advance width="928.0"/>
  <unicode hex="0029"/>
  <outline>
    <contour>
      <point x="-96.0" y="-384.0" type="curve"/>
      <point x="124.0" y="-384.0" type="line"/>
      <point x="392.0" y="-88.0"/>
      <point x="612.0" y="360.0"/>
      <point x="688.0" y="832.0" type="curve" smooth="yes"/>
      <point x="764.0" y="1305.0"/>
      <point x="696.0" y="1752.0"/>
      <point x="548.0" y="2048.0" type="curve"/>
      <point x="312.0" y="2048.0" type="line"/>
      <point x="480.0" y="1640.0"/>
      <point x="516.0" y="1260.0"/>
      <point x="444.0" y="832.0" type="curve" smooth="yes"/>
      <point x="369.0" y="388.0"/>
      <point x="212.0" y="24.0"/>
    </contour>
  </outline>
</glyph>
<glyph name="asterisk" format="2">
  <advance width="1408.0"/>
  <unicode hex="002A"/>
  <note>
hexagonal angle: 30 deg
</note>
  <guideline x="844.0" y="1344.0" angle="0.0"/>
  <guideline x="812.0" y="1472.0" angle="328.0"/>
  <guideline x="812.0" y="1472.0" angle="28.0"/>
  <guideline x="820.0" y="1520.0" angle="260.6"/>
  <outline>
    <contour>
      <point x="628.0" y="896.0" type="line"/>
      <point x="820.0" y="896.0" type="line"/>
      <point x="880.0" y="1336.0" type="line"/>
      <point x="1216.0" y="1100.0" type="line"/>
      <point x="1340.0" y="1268.0" type="line"/>
      <point x="980.0" y="1472.0" type="line"/>
      <point x="1400.0" y="1676.0" type="line"/>
      <point x="1328.0" y="1844.0" type="line"/>
      <point x="924.0" y="1608.0" type="line"/>
      <point x="1012.0" y="2048.0" type="line"/>
      <point x="820.0" y="2048.0" type="line"/>
      <point x="764.0" y="1608.0" type="line"/>
      <point x="428.0" y="1844.0" type="line"/>
      <point x="304.0" y="1676.0" type="line"/>
      <point x="664.0" y="1472.0" type="line"/>
      <point x="244.0" y="1268.0" type="line"/>
      <point x="312.0" y="1100.0" type="line"/>
      <point x="720.0" y="1336.0" type="line"/>
    </contour>
  </outline>
</glyph>
<glyph name="plus" format="2">
  <advance width="1808.0"/>
  <unicode hex="002B"/>
  <guideline x="332.0" y="896.0" angle="0.0"/>
  <outline>
    <contour>
      <point x="1584.0" y="1008.0" type="line"/>
      <point x="304.0" y="1008.0" type="line"/>
      <point x="268.0" y="784.0" type="line"/>
      <point x="1548.0" y="784.0" type="line"/>
    </contour>
    <contour>
      <point x="1144.0" y="1536.0" type="line"/>
      <point x="920.0" y="1536.0" type="line"/>
      <point x="708.0" y="256.0" type="line"/>
      <point x="932.0" y="256.0" type="line"/>
    </contour>
  </outline>
</glyph>
<glyph name="comma" format="2">
  <advance width="788.0"/>
  <unicode hex="002C"/>
  <outline>
    <contour>
      <point x="488.0" y="280.0" type="line"/>
      <point x="232.0" y="280.0" type="line"/>
      <point x="200.0" y="168.0" type="line" smooth="yes"/>
      <point x="128.0" y="-104.0"/>
      <point x="24.0" y="-372.0"/>
      <point x="-20.0" y="-500.0" type="curve"/>
      <point x="160.0" y="-500.0" type="line"/>
      <point x="228.0" y="-364.0"/>
      <point x="380.0" y="-56.0"/>
      <point x="452.0" y="172.0" type="curve" smooth="yes"/>
    </contour>
  </outline>
</glyph>
<glyph name="hyphen" format="2">
  <advance width="1296.0"/>
  <unicode hex="002D"/>
  <outline>
    <contour>
      <point x="1116.0" y="988.0" type="line"/>
      <point x="216.0" y="988.0" type="line"/>
      <point x="216.0" y="768.0" type="line"/>
      <point x="1116.0" y="768.0" type="line"/>
    </contour>
  </outline>
</glyph>
<glyph name="period" format="2">
  <advance width="776.0"/>
  <unicode hex="002E"/>
  <outline>
    <contour>
      <point x="288.0" y="-16.0" type="curve" smooth="yes"/>
      <point x="386.0" y="-16.0"/>
      <point x="466.0" y="64.0"/>
      <point x="468.0" y="164.0" type="curve" smooth="yes"/>
      <point x="470.0" y="260.0"/>
      <point x="386.0" y="340.0"/>
      <point x="288.0" y="340.0" type="curve" smooth="yes"/>
      <point x="190.0" y="340.0"/>
      <point x="106.0" y="264.0"/>
      <point x="108.0" y="164.0" type="curve" smooth="yes"/>
      <point x="110.0" y="64.0"/>
      <point x="186.0" y="-16.0"/>
    </contour>
  </outline>
</glyph>
<glyph name="slash" format="2">
  <advance width="1040.0"/>
  <unicode hex="002F"/>
  <outline>
    <contour>
      <point x="1144.0" y="2048.0" type="line"/>
      <point x="912.0" y="2048.0" type="line"/>
      <point x="-76.0" y="-308.0" type="line"/>
      <point x="156.0" y="-308.0" type="line"/>
    </contour>
  </outline>
</glyph>
<glyph name="zero" format="2">
  <advance width="1760.0"/>
  <unicode hex="0030"/>
  <outline>
    <contour>
      <point x="744.0" y="-28.0" type="curve" smooth="yes"/>
      <point x="1197.0" y="-28.0"/>
      <point x="1521.0" y="355.0"/>
      <point x="1632.0" y="1024.0" type="curve" smooth="yes"/>
      <point x="1741.0" y="1688.0"/>
      <point x="1542.0" y="2076.0"/>
      <point x="1092.0" y="2076.0" type="curve" smooth="yes"/>
      <point x="646.0" y="2076.0"/>
      <point x="317.0" y="1688.0"/>
      <point x="208.0" y="1024.0" type="curve" smooth="yes"/>
      <point x="97.0" y="355.0"/>
      <point x="293.0" y="-28.0"/>
    </contour>
    <contour>
      <point x="780.0" y="192.0" type="curve" smooth="yes"/>
      <point x="484.0" y="192.0"/>
      <point x="363.0" y="491.0"/>
      <point x="452.0" y="1024.0" type="curve" smooth="yes"/>
      <point x="539.0" y="1556.0"/>
      <point x="762.0" y="1860.0"/>
      <point x="1056.0" y="1860.0" type="curve" smooth="yes"/>
      <point x="1354.0" y="1860.0"/>
      <point x="1475.0" y="1556.0"/>
      <point x="1388.0" y="1024.0" type="curve" smooth="yes"/>
      <point x="1299.0" y="491.0"/>
      <point x="1080.0" y="192.0"/>
    </contour>
  </outline>
</glyph>
<glyph name="one" format="2">
  <advance width="1232.0"/>
  <unicode hex="0031"/>
  <outline>
    <contour>
      <point x="1072.0" y="2048.0" type="line"/>
      <point x="864.0" y="2048.0" type="line"/>
      <point x="834.0" y="2024.0"/>
      <point x="654.0" y="1744.0"/>
      <point x="336.0" y="1744.0" type="curve"/>
      <point x="304.0" y="1536.0" type="line"/>
      <point x="538.0" y="1536.0"/>
      <point x="722.0" y="1632.0"/>
      <point x="760.0" y="1688.0" type="curve"/>
      <point x="776.0" y="1688.0" type="line"/>
      <point x="496.0" y="0.0" type="line"/>
      <point x="732.0" y="0.0" type="line"/>
    </contour>
  </outline>
</glyph>
<glyph name="two" format="2">
  <advance width="1680.0"/>
  <unicode hex="0032"/>
  <outline>
    <contour>
      <point x="1424.0" y="220.0" type="line"/>
      <point x="420.0" y="220.0" type="line"/>
      <point x="424.0" y="232.0" type="line"/>
      <point x="1068.0" y="796.0" type="line" smooth="yes"/>
      <point x="1256.0" y="960.0"/>
      <point x="1528.0" y="1160.0"/>
      <point x="1584.0" y="1488.0" type="curve" smooth="yes"/>
      <point x="1640.0" y="1824.0"/>
      <point x="1424.0" y="2076.0"/>
      <point x="1044.0" y="2076.0" type="curve" smooth="yes"/>
      <point x="608.0" y="2076.0"/>
      <point x="376.0" y="1740.0"/>
      <point x="320.0" y="1408.0" type="curve"/>
      <point x="564.0" y="1408.0" type="line"/>
      <point x="604.0" y="1644.0"/>
      <point x="732.0" y="1872.0"/>
      <point x="1008.0" y="1872.0" type="curve" smooth="yes"/>
      <point x="1256.0" y="1872.0"/>
      <point x="1376.0" y="1692.0"/>
      <point x="1344.0" y="1488.0" type="curve" smooth="yes"/>
      <point x="1312.0" y="1304.0"/>
      <point x="1176.0" y="1176.0"/>
      <point x="884.0" y="920.0" type="curve" smooth="yes"/>
      <point x="44.0" y="180.0" type="line"/>
      <point x="12.0" y="0.0" type="line"/>
      <point x="1388.0" y="0.0" type="line"/>
    </contour>
  </outline>
</glyph>
<glyph name="three" format="2">
  <advance width="1684.0"/>
  <unicode hex="0033"/>
  <outline>
    <contour>
      <point x="720.0" y="-28.0" type="curve" smooth="yes"/>
      <point x="1088.0" y="-28.0"/>
      <point x="1392.0" y="182.0"/>
      <point x="1452.0" y="528.0" type="curve" smooth="yes"/>
      <point x="1490.0" y="767.0"/>
      <point x="1370.0" y="956.0"/>
      <point x="1136.0" y="1032.0" type="curve"/>
      <point x="1140.0" y="1048.0" type="line"/>
      <point x="1366.0" y="1112.0"/>
      <point x="1529.0" y="1288.0"/>
      <point x="1568.0" y="1504.0" type="curve" smooth="yes"/>
      <point x="1622.0" y="1833.0"/>
      <point x="1403.0" y="2076.0"/>
      <point x="1032.0" y="2076.0" type="curve" smooth="yes"/>
      <point x="685.0" y="2076.0"/>
      <point x="406.0" y="1862.0"/>
      <point x="356.0" y="1536.0" type="curve"/>
      <point x="592.0" y="1536.0" type="line"/>
      <point x="626.0" y="1744.0"/>
      <point x="806.0" y="1872.0"/>
      <point x="1028.0" y="1868.0" type="curve" smooth="yes"/>
      <point x="1241.0" y="1864.0"/>
      <point x="1366.0" y="1738.0"/>
      <point x="1332.0" y="1532.0" type="curve" smooth="yes"/>
      <point x="1299.0" y="1307.0"/>
      <point x="1101.0" y="1152.0"/>
      <point x="860.0" y="1152.0" type="curve" smooth="yes"/>
      <point x="748.0" y="1152.0" type="line"/>
      <point x="712.0" y="924.0" type="line"/>
      <point x="836.0" y="924.0" type="line" smooth="yes"/>
      <point x="1122.0" y="924.0"/>
      <point x="1251.0" y="788.0"/>
      <point x="1216.0" y="564.0" type="curve" smooth="yes"/>
      <point x="1176.0" y="334.0"/>
      <point x="996.0" y="196.0"/>
      <point x="744.0" y="196.0" type="curve" smooth="yes"/>
      <point x="497.0" y="196.0"/>
      <point x="385.0" y="327.0"/>
      <point x="412.0" y="512.0" type="curve"/>
      <point x="168.0" y="512.0" type="line"/>
      <point x="112.0" y="196.0"/>
      <point x="341.0" y="-28.0"/>
    </contour>
  </outline>
</glyph>
<glyph name="four" format="2">
  <advance width="1680.0"/>
  <unicode hex="0034"/>
  <outline>
    <contour>
      <point x="1548.0" y="640.0" type="line"/>
      <point x="392.0" y="640.0" type="line"/>
      <point x="1204.0" y="1676.0" type="line"/>
      <point x="1304.0" y="1676.0" type="line"/>
      <point x="1364.0" y="2048.0" type="line"/>
      <point x="1240.0" y="2048.0" type="line"/>
      <point x="72.0" y="576.0" type="line"/>
      <point x="48.0" y="420.0" type="line"/>
      <point x="1512.0" y="420.0" type="line"/>
    </contour>
    <contour>
      <point x="1500.0" y="2048.0" type="line"/>
      <point x="1280.0" y="2048.0" type="line"/>
      <point x="940.0" y="0.0" type="line"/>
      <point x="1160.0" y="0.0" type="line"/>
    </contour>
  </outline>
</glyph>
<glyph name="five" format="2">
  <advance width="1712.0"/>
  <unicode hex="0035"/>
  <outline>
    <contour>
      <point x="720.0" y="-28.0" type="curve" smooth="yes"/>
      <point x="1112.0" y="-28.0"/>
      <point x="1444.0" y="260.0"/>
      <point x="1508.0" y="652.0" type="curve" smooth="yes"/>
      <point x="1576.0" y="1048.0"/>
      <point x="1348.0" y="1340.0"/>
      <point x="972.0" y="1340.0" type="curve" smooth="yes"/>
      <point x="832.0" y="1340.0"/>
      <point x="692.0" y="1292.0"/>
      <point x="596.0" y="1224.0" type="curve"/>
      <point x="584.0" y="1224.0" type="line"/>
      <point x="756.0" y="1828.0" type="line"/>
      <point x="1612.0" y="1828.0" type="line"/>
      <point x="1648.0" y="2048.0" type="line"/>
      <point x="584.0" y="2048.0" type="line"/>
      <point x="292.0" y="1040.0" type="line"/>
      <point x="520.0" y="1012.0" type="line"/>
      <point x="616.0" y="1072.0"/>
      <point x="768.0" y="1116.0"/>
      <point x="892.0" y="1116.0" type="curve" smooth="yes"/>
      <point x="1156.0" y="1116.0"/>
      <point x="1312.0" y="916.0"/>
      <point x="1268.0" y="648.0" type="curve" smooth="yes"/>
      <point x="1224.0" y="384.0"/>
      <point x="1008.0" y="192.0"/>
      <point x="756.0" y="192.0" type="curve" smooth="yes"/>
      <point x="548.0" y="192.0"/>
      <point x="400.0" y="328.0"/>
      <point x="412.0" y="512.0" type="curve"/>
      <point x="172.0" y="512.0" type="line"/>
      <point x="136.0" y="200.0"/>
      <point x="368.0" y="-28.0"/>
    </contour>
  </outline>
</glyph>
<glyph name="seven" format="2">
  <advance width="1608.0"/>
  <unicode hex="0037"/>
  <outline>
    <contour>
      <point x="148.0" y="0.0" type="line"/>
      <point x="408.0" y="0.0" type="line"/>
      <point x="1620.0" y="1816.0" type="line"/>
      <point x="1660.0" y="2048.0" type="line"/>
      <point x="348.0" y="2048.0" type="line"/>
      <point x="312.0" y="1828.0" type="line"/>
      <point x="1368.0" y="1828.0" type="line"/>
      <point x="1364.0" y="1812.0" type="line"/>
    </contour>
  </outline>
</glyph>
<glyph name="eight" format="2">
  <advance width="1736.0"/>
  <unicode hex="0038"/>
  <note>
essentially two conjoined "three" glyphs
</note>
  <outline>
    <contour>
      <point x="752.0" y="-28.0" type="curve" smooth="yes"/>
      <point x="1152.0" y="-28.0"/>
      <point x="1468.0" y="204.0"/>
      <point x="1524.0" y="528.0" type="curve" smooth="yes"/>
      <point x="1568.0" y="796.0"/>
      <point x="1424.0" y="1020.0"/>
      <point x="1208.0" y="1064.0" type="curve"/>
      <point x="1228.0" y="1076.0" type="line"/>
      <point x="1424.0" y="1124.0"/>
      <point x="1576.0" y="1305.0"/>
      <point x="1612.0" y="1516.0" type="curve" smooth="yes"/>
      <point x="1667.0" y="1836.0"/>
      <point x="1431.0" y="2076.0"/>
      <point x="1068.0" y="2076.0" type="curve" smooth="yes"/>
      <point x="715.0" y="2076.0"/>
      <point x="433.0" y="1851.0"/>
      <point x="376.0" y="1548.0" type="curve" smooth="yes"/>
      <point x="332.0" y="1315.0"/>
      <point x="440.0" y="1128.0"/>
      <point x="628.0" y="1076.0" type="curve"/>
      <point x="608.0" y="1064.0" type="line"/>
      <point x="380.0" y="1024.0"/>
      <point x="178.0" y="812.0"/>
      <point x="136.0" y="560.0" type="curve" smooth="yes"/>
      <point x="80.0" y="226.0"/>
      <point x="332.0" y="-28.0"/>
    </contour>
    <contour>
      <point x="760.0" y="192.0" type="curve" smooth="yes"/>
      <point x="484.0" y="192.0"/>
      <point x="346.0" y="325.0"/>
      <point x="380.0" y="540.0" type="curve" smooth="yes"/>
      <point x="418.0" y="780.0"/>
      <point x="644.0" y="952.0"/>
      <point x="912.0" y="952.0" type="curve" smooth="yes"/>
      <point x="1164.0" y="952.0"/>
      <point x="1324.0" y="799.0"/>
      <point x="1288.0" y="572.0" type="curve" smooth="yes"/>
      <point x="1252.0" y="343.0"/>
      <point x="1044.0" y="192.0"/>
    </contour>
    <contour>
      <point x="920.0" y="1164.0" type="curve" smooth="yes"/>
      <point x="704.0" y="1164.0"/>
      <point x="574.0" y="1290.0"/>
      <point x="608.0" y="1500.0" type="curve" smooth="yes"/>
      <point x="643.0" y="1716.0"/>
      <point x="824.0" y="1860.0"/>
      <point x="1064.0" y="1860.0" type="curve" smooth="yes"/>
      <point x="1289.0" y="1860.0"/>
      <point x="1412.0" y="1737.0"/>
      <point x="1376.0" y="1532.0" type="curve" smooth="yes"/>
      <point x="1337.0" y="1312.0"/>
      <point x="1151.0" y="1164.0"/>
    </contour>
  </outline>
</glyph>
<glyph name="less" format="2">
  <advance width="1808.0"/>
  <unicode hex="003C"/>
  <note>
Recipe: Make rect and rotate 63deg (regular) or 69deg (black)
</note>
  <guideline x="268.0" y="800.0" angle="0.0"/>
  <outline>
    <contour>
      <point x="252.0" y="720.0" type="line"/>
      <point x="1432.0" y="64.0" type="line"/>
      <point x="1476.0" y="320.0" type="line"/>
      <point x="564.0" y="796.0" type="line"/>
      <point x="572.0" y="780.0" type="line"/>
      <point x="576.0" y="820.0" type="line"/>
      <point x="568.0" y="804.0" type="line"/>
      <point x="1636.0" y="1280.0" type="line"/>
      <point x="1676.0" y="1536.0" type="line"/>
      <point x="280.0" y="880.0" type="line"/>
    </contour>
  </outline>
</glyph>
<glyph name="equal" format="2">
  <advance width="1808.0"/>
  <unicode hex="003D"/>
  <guideline x="320.0" y="896.0" angle="0.0"/>
  <outline>
    <contour>
      <point x="324.0" y="732.0" type="line"/>
      <point x="284.0" y="512.0" type="line"/>
      <point x="1436.0" y="512.0" type="line"/>
      <point x="1476.0" y="732.0" type="line"/>
    </contour>
    <contour>
      <point x="412.0" y="1280.0" type="line"/>
      <point x="376.0" y="1060.0" type="line"/>
      <point x="1528.0" y="1060.0" type="line"/>
      <point x="1564.0" y="1280.0" type="line"/>
    </contour>
  </outline>
</glyph>
<glyph name="greater" format="2">
  <advance width="1296.0"/>
  <unicode hex="003E"/>
  <outline>
    <contour>
      <point x="232.0" y="176.0" type="line"/>
      <point x="1144.0" y="896.0" type="line"/>
      <point x="440.0" y="1616.0" type="line"/>
      <point x="264.0" y="1464.0" type="line"/>
      <point x="804.0" y="900.0" type="line"/>
      <point x="800.0" y="892.0" type="line"/>
      <point x="76.0" y="328.0" type="line"/>
    </contour>
  </outline>
</glyph>
<glyph name="question" format="2">
  <advance width="1520.0"/>
  <unicode hex="003F"/>
  <outline>
    <contour>
      <point x="848.0" y="576.0" type="line"/>
      <point x="936.0" y="1112.0"/>
      <point x="1424.0" y="1036.0"/>
      <point x="1508.0" y="1536.0" type="curve" smooth="yes"/>
      <point x="1560.0" y="1848.0"/>
      <point x="1392.0" y="2076.0"/>
      <point x="1040.0" y="2076.0" type="curve" smooth="yes"/>
      <point x="716.0" y="2076.0"/>
      <point x="432.0" y="1876.0"/>
      <point x="376.0" y="1536.0" type="curve"/>
      <point x="628.0" y="1536.0" type="line"/>
      <point x="668.0" y="1772.0"/>
      <point x="844.0" y="1868.0"/>
      <point x="1008.0" y="1868.0" type="curve" smooth="yes"/>
      <point x="1196.0" y="1868.0"/>
      <point x="1300.0" y="1744.0"/>
      <point x="1268.0" y="1548.0" type="curve" smooth="yes"/>
      <point x="1204.0" y="1152.0"/>
      <point x="716.0" y="1228.0"/>
      <point x="608.0" y="576.0" type="curve"/>
    </contour>
    <contour>
      <point x="628.0" y="-32.0" type="curve" smooth="yes"/>
      <point x="732.0" y="-32.0"/>
      <point x="832.0" y="52.0"/>
      <point x="852.0" y="160.0" type="curve" smooth="yes"/>
      <point x="868.0" y="268.0"/>
      <point x="796.0" y="356.0"/>
      <point x="692.0" y="356.0" type="curve" smooth="yes"/>
      <point x="584.0" y="356.0"/>
      <point x="484.0" y="268.0"/>
      <point x="468.0" y="160.0" type="curve" smooth="yes"/>
      <point x="448.0" y="52.0"/>
      <point x="520.0" y="-32.0"/>
    </contour>
  </outline>
</glyph>
<glyph name="at" format="2">
  <advance width="2636.0"/>
  <unicode hex="0040"/>
  <outline>
    <contour>
      <point x="1356.0" y="1180.0" type="curve" smooth="yes"/>
      <point x="1596.0" y="1180.0"/>
      <point x="1708.0" y="1084.0"/>
      <point x="1652.0" y="748.0" type="curve" smooth="yes"/>
      <point x="1596.0" y="416.0"/>
      <point x="1464.0" y="256.0"/>
      <point x="1196.0" y="256.0" type="curve" smooth="yes"/>
      <point x="936.0" y="256.0"/>
      <point x="884.0" y="492.0"/>
      <point x="924.0" y="748.0" type="curve" smooth="yes"/>
      <point x="964.0" y="980.0"/>
      <point x="1128.0" y="1180.0"/>
    </contour>
    <contour>
      <point x="1568.0" y="1972.0" type="curve" smooth="yes"/>
      <point x="796.0" y="1972.0"/>
      <point x="256.0" y="1504.0"/>
      <point x="128.0" y="724.0" type="curve" smooth="yes"/>
      <point x="-4.0" y="-84.0"/>
      <point x="364.0" y="-540.0"/>
      <point x="1180.0" y="-540.0" type="curve" smooth="yes"/>
      <point x="1384.0" y="-540.0"/>
      <point x="1652.0" y="-480.0"/>
      <point x="1788.0" y="-428.0" type="curve"/>
      <point x="1760.0" y="-244.0" type="line"/>
      <point x="1684.0" y="-268.0"/>
      <point x="1440.0" y="-348.0"/>
      <point x="1220.0" y="-348.0" type="curve" smooth="yes"/>
      <point x="536.0" y="-348.0"/>
      <point x="236.0" y="36.0"/>
      <point x="348.0" y="716.0" type="curve" smooth="yes"/>
      <point x="456.0" y="1384.0"/>
      <point x="896.0" y="1784.0"/>
      <point x="1524.0" y="1784.0" type="curve" smooth="yes"/>
      <point x="2160.0" y="1784.0"/>
      <point x="2388.0" y="1336.0"/>
      <point x="2312.0" y="888.0" type="curve" smooth="yes"/>
      <point x="2236.0" y="432.0"/>
      <point x="2156.0" y="228.0"/>
      <point x="1952.0" y="228.0" type="curve" smooth="yes"/>
      <point x="1832.0" y="228.0"/>
      <point x="1784.0" y="328.0"/>
      <point x="1800.0" y="440.0" type="curve" smooth="yes"/>
      <point x="1952.0" y="1344.0" type="line"/>
      <point x="1740.0" y="1344.0" type="line"/>
      <point x="1720.0" y="1232.0" type="line"/>
      <point x="1708.0" y="1232.0" type="line"/>
      <point x="1696.0" y="1320.0"/>
      <point x="1552.0" y="1396.0"/>
      <point x="1348.0" y="1376.0" type="curve" smooth="yes"/>
      <point x="1044.0" y="1344.0"/>
      <point x="776.0" y="1096.0"/>
      <point x="716.0" y="736.0" type="curve" smooth="yes"/>
      <point x="652.0" y="356.0"/>
      <point x="784.0" y="64.0"/>
      <point x="1128.0" y="52.0" type="curve" smooth="yes"/>
      <point x="1356.0" y="44.0"/>
      <point x="1496.0" y="156.0"/>
      <point x="1560.0" y="272.0" type="curve"/>
      <point x="1572.0" y="272.0" type="line"/>
      <point x="1568.0" y="100.0"/>
      <point x="1776.0" y="40.0"/>
      <point x="1916.0" y="40.0" type="curve" smooth="yes"/>
      <point x="2340.0" y="40.0"/>
      <point x="2456.0" y="496.0"/>
      <point x="2520.0" y="884.0" type="curve" smooth="yes"/>
      <point x="2608.0" y="1432.0"/>
      <point x="2316.0" y="1972.0"/>
    </contour>
  </outline>
</glyph>
<glyph name="A" format="2">
  <advance width="1904.0"/>
  <unicode hex="0041"/>
  <guideline x="2592.0" y="1832.0" angle="90.0"/>
  <outline>
    <contour>
      <point x="1460.0" y="768.0" type="line"/>
      <point x="448.0" y="768.0" type="line"/>
      <point x="412.0" y="548.0" type="line"/>
      <point x="1424.0" y="548.0" type="line"/>
    </contour>
    <contour>
      <point x="204.0" y="0.0" type="line"/>
      <point x="1100.0" y="1724.0" type="line"/>
      <point x="1124.0" y="1724.0" type="line"/>
      <point x="1444.0" y="0.0" type="line"/>
      <point x="1704.0" y="0.0" type="line"/>
      <point x="1292.0" y="2048.0" type="line"/>
      <point x="1036.0" y="2048.0" type="line"/>
      <point x="-56.0" y="0.0" type="line"/>
    </contour>
  </outline>
</glyph>
<glyph name="B" format="2">
  <advance width="1832.0"/>
  <unicode hex="0042"/>
  <guideline x="1424.0" y="1772.0" angle="90.0"/>
  <guideline x="1896.0" y="1340.0" angle="90.0"/>
  <outline>
    <contour>
      <point x="120.0" y="0.0" type="line"/>
      <point x="860.0" y="0.0" type="line" smooth="yes"/>
      <point x="1344.0" y="0.0"/>
      <point x="1584.0" y="236.0"/>
      <point x="1636.0" y="544.0" type="curve" smooth="yes"/>
      <point x="1688.0" y="868.0"/>
      <point x="1492.0" y="1044.0"/>
      <point x="1308.0" y="1056.0" type="curve"/>
      <point x="1312.0" y="1076.0" type="line"/>
      <point x="1492.0" y="1124.0"/>
      <point x="1668.0" y="1240.0"/>
      <point x="1712.0" y="1504.0" type="curve" smooth="yes"/>
      <point x="1764.0" y="1804.0"/>
      <point x="1604.0" y="2048.0"/>
      <point x="1176.0" y="2048.0" type="curve" smooth="yes"/>
      <point x="460.0" y="2048.0" type="line"/>
    </contour>
    <contour>
      <point x="404.0" y="220.0" type="line"/>
      <point x="524.0" y="932.0" type="line"/>
      <point x="1028.0" y="932.0" type="line" smooth="yes"/>
      <point x="1296.0" y="932.0"/>
      <point x="1432.0" y="752.0"/>
      <point x="1400.0" y="544.0" type="curve" smooth="yes"/>
      <point x="1368.0" y="364.0"/>
      <point x="1220.0" y="220.0"/>
      <point x="896.0" y="220.0" type="curve" smooth="yes"/>
    </contour>
    <contour>
      <point x="560.0" y="1148.0" type="line"/>
      <point x="672.0" y="1828.0" type="line"/>
      <point x="1140.0" y="1828.0" type="line" smooth="yes"/>
      <point x="1412.0" y="1828.0"/>
      <point x="1508.0" y="1684.0"/>
      <point x="1476.0" y="1504.0" type="curve" smooth="yes"/>
      <point x="1444.0" y="1288.0"/>
      <point x="1244.0" y="1148.0"/>
      <point x="1020.0" y="1148.0" type="curve" smooth="yes"/>
    </contour>
  </outline>
</glyph>
<glyph name="C" format="2">
  <advance width="2048.0"/>
  <unicode hex="0043"/>
  <guideline x="1392.0" y="1432.0" angle="90.0"/>
  <outline>
    <contour>
      <point x="2000.0" y="1408.0" type="line"/>
      <point x="1996.0" y="1828.0"/>
      <point x="1700.0" y="2076.0"/>
      <point x="1288.0" y="2076.0" type="curve" smooth="yes"/>
      <point x="764.0" y="2076.0"/>
      <point x="316.0" y="1672.0"/>
      <point x="212.0" y="1024.0" type="curve"/>
      <point x="104.0" y="376.0"/>
      <point x="416.0" y="-28.0"/>
      <point x="940.0" y="-28.0" type="curve" smooth="yes"/>
      <point x="1352.0" y="-28.0"/>
      <point x="1728.0" y="220.0"/>
      <point x="1876.0" y="640.0" type="curve"/>
      <point x="1628.0" y="640.0" type="line"/>
      <point x="1520.0" y="356.0"/>
      <point x="1252.0" y="204.0"/>
      <point x="980.0" y="204.0" type="curve" smooth="yes"/>
      <point x="608.0" y="204.0"/>
      <point x="364.0" y="492.0"/>
      <point x="452.0" y="1024.0" type="curve"/>
      <point x="540.0" y="1556.0"/>
      <point x="880.0" y="1844.0"/>
      <point x="1252.0" y="1844.0" type="curve" smooth="yes"/>
      <point x="1524.0" y="1844.0"/>
      <point x="1740.0" y="1692.0"/>
      <point x="1752.0" y="1408.0" type="curve"/>
    </contour>
  </outline>
</glyph>
<glyph name="D" format="2">
  <advance width="2024.0"/>
  <unicode hex="0044"/>
  <outline>
    <contour>
      <point x="752.0" y="0.0" type="line"/>
      <point x="1376.0" y="0.0"/>
      <point x="1792.0" y="388.0"/>
      <point x="1900.0" y="1028.0" type="curve"/>
      <point x="2004.0" y="1664.0"/>
      <point x="1716.0" y="2048.0"/>
      <point x="1120.0" y="2048.0" type="curve"/>
      <point x="588.0" y="2048.0" type="line"/>
      <point x="552.0" y="1828.0" type="line"/>
      <point x="1068.0" y="1828.0" type="line"/>
      <point x="1548.0" y="1828.0"/>
      <point x="1740.0" y="1524.0"/>
      <point x="1660.0" y="1028.0" type="curve"/>
      <point x="1576.0" y="528.0"/>
      <point x="1280.0" y="220.0"/>
      <point x="772.0" y="220.0" type="curve"/>
      <point x="296.0" y="220.0" type="line"/>
      <point x="260.0" y="0.0" type="line"/>
    </contour>
    <contour>
      <point x="708.0" y="2048.0" type="line"/>
      <point x="460.0" y="2048.0" type="line"/>
      <point x="120.0" y="0.0" type="line"/>
      <point x="368.0" y="0.0" type="line"/>
    </contour>
  </outline>
</glyph>
<glyph name="E" format="2">
  <advance width="1684.0"/>
  <unicode hex="0045"/>
  <guideline x="920.0" y="516.0" angle="90.0"/>
  <outline>
    <contour>
      <point x="1408.0" y="220.0" type="line"/>
      <point x="340.0" y="220.0" type="line"/>
      <point x="304.0" y="0.0" type="line"/>
      <point x="1372.0" y="0.0" type="line"/>
    </contour>
    <contour>
      <point x="708.0" y="2048.0" type="line"/>
      <point x="460.0" y="2048.0" type="line"/>
      <point x="120.0" y="0.0" type="line"/>
      <point x="368.0" y="0.0" type="line"/>
    </contour>
    <contour>
      <point x="1440.0" y="1136.0" type="line"/>
      <point x="492.0" y="1136.0" type="line"/>
      <point x="456.0" y="916.0" type="line"/>
      <point x="1404.0" y="916.0" type="line"/>
    </contour>
    <contour>
      <point x="1696.0" y="2048.0" type="line"/>
      <point x="644.0" y="2048.0" type="line"/>
      <point x="608.0" y="1828.0" type="line"/>
      <point x="1660.0" y="1828.0" type="line"/>
    </contour>
  </outline>
</glyph>
<glyph name="F" format="2">
  <advance width="1652.0"/>
  <unicode hex="0046"/>
  <outline>
    <contour>
      <point x="708.0" y="2048.0" type="line"/>
      <point x="460.0" y="2048.0" type="line"/>
      <point x="120.0" y="0.0" type="line"/>
      <point x="368.0" y="0.0" type="line"/>
    </contour>
    <contour>
      <point x="1404.0" y="1136.0" type="line"/>
      <point x="528.0" y="1136.0" type="line"/>
      <point x="492.0" y="916.0" type="line"/>
      <point x="1368.0" y="916.0" type="line"/>
    </contour>
    <contour>
      <point x="1688.0" y="2048.0" type="line"/>
      <point x="680.0" y="2048.0" type="line"/>
      <point x="644.0" y="1828.0" type="line"/>
      <point x="1652.0" y="1828.0" type="line"/>
    </contour>
  </outline>
</glyph>
<glyph name="G" format="2">
  <advance width="2092.0"/>
  <unicode hex="0047"/>
  <guideline x="2196.0" y="1408.0" angle="0.0"/>
  <guideline x="2160.0" y="1304.0" angle="90.0"/>
  <guideline x="1492.0" y="1644.0" angle="90.0"/>
  <outline>
    <contour>
      <point x="212.0" y="1028.0" type="curve" smooth="yes"/>
      <point x="104.0" y="376.0"/>
      <point x="416.0" y="-28.0"/>
      <point x="952.0" y="-28.0" type="curve" smooth="yes"/>
      <point x="1432.0" y="-28.0"/>
      <point x="1836.0" y="292.0"/>
      <point x="1920.0" y="796.0" type="curve" smooth="yes"/>
      <point x="1956.0" y="1016.0" type="line"/>
      <point x="1216.0" y="1016.0" type="line"/>
      <point x="1180.0" y="796.0" type="line"/>
      <point x="1744.0" y="796.0" type="line"/>
      <point x="1688.0" y="856.0" type="line"/>
      <point x="1680.0" y="796.0" type="line"/>
      <point x="1624.0" y="448.0"/>
      <point x="1336.0" y="204.0"/>
      <point x="988.0" y="204.0" type="curve" smooth="yes"/>
      <point x="608.0" y="204.0"/>
      <point x="364.0" y="492.0"/>
      <point x="452.0" y="1024.0" type="curve" smooth="yes"/>
      <point x="540.0" y="1556.0"/>
      <point x="880.0" y="1844.0"/>
      <point x="1244.0" y="1844.0" type="curve" smooth="yes"/>
      <point x="1508.0" y="1844.0"/>
      <point x="1704.0" y="1692.0"/>
      <point x="1752.0" y="1408.0" type="curve"/>
      <point x="2004.0" y="1408.0" type="line"/>
      <point x="1956.0" y="1828.0"/>
      <point x="1688.0" y="2076.0"/>
      <point x="1280.0" y="2076.0" type="curve" smooth="yes"/>
      <point x="760.0" y="2076.0"/>
      <point x="320.0" y="1672.0"/>
    </contour>
  </outline>
</glyph>
<glyph name="H" format="2">
  <advance width="2084.0"/>
  <unicode hex="0048"/>
  <guideline x="688.0" y="56.0" angle="90.0"/>
  <outline>
    <contour>
      <point x="120.0" y="0.0" type="line"/>
      <point x="368.0" y="0.0" type="line"/>
      <point x="520.0" y="916.0" type="line"/>
      <point x="1612.0" y="916.0" type="line"/>
      <point x="1460.0" y="0.0" type="line"/>
      <point x="1708.0" y="0.0" type="line"/>
      <point x="2048.0" y="2048.0" type="line"/>
      <point x="1800.0" y="2048.0" type="line"/>
      <point x="1648.0" y="1136.0" type="line"/>
      <point x="556.0" y="1136.0" type="line"/>
      <point x="708.0" y="2048.0" type="line"/>
      <point x="460.0" y="2048.0" type="line"/>
    </contour>
  </outline>
</glyph>
<glyph name="I" format="2">
  <advance width="744.0"/>
  <unicode hex="0049"/>
  <guideline x="552.0" y="1852.0" angle="260.6"/>
  <outline>
    <contour>
      <point x="708.0" y="2048.0" type="line"/>
      <point x="460.0" y="2048.0" type="line"/>
      <point x="120.0" y="0.0" type="line"/>
      <point x="368.0" y="0.0" type="line"/>
    </contour>
  </outline>
</glyph>
<glyph name="J" format="2">
  <advance width="1424.0"/>
  <unicode hex="004A"/>
  <outline>
    <contour>
      <point x="920.0" y="584.0" type="line"/>
      <point x="868.0" y="272.0"/>
      <point x="676.0" y="192.0"/>
      <point x="516.0" y="192.0" type="curve" smooth="yes"/>
      <point x="320.0" y="192.0"/>
      <point x="172.0" y="308.0"/>
      <point x="204.0" y="512.0" type="curve"/>
      <point x="-36.0" y="512.0" type="line"/>
      <point x="-88.0" y="180.0"/>
      <point x="136.0" y="-28.0"/>
      <point x="480.0" y="-28.0" type="curve" smooth="yes"/>
      <point x="828.0" y="-28.0"/>
      <point x="1104.0" y="188.0"/>
      <point x="1168.0" y="584.0" type="curve"/>
      <point x="1412.0" y="2048.0" type="line"/>
      <point x="1164.0" y="2048.0" type="line"/>
    </contour>
  </outline>
</glyph>
<glyph name="K" format="2">
  <advance width="1836.0"/>
  <unicode hex="004B"/>
  <guideline x="836.0" y="212.0" angle="260.6"/>
  <outline>
    <contour>
      <point x="708.0" y="2048.0" type="line"/>
      <point x="460.0" y="2048.0" type="line"/>
      <point x="120.0" y="0.0" type="line"/>
      <point x="368.0" y="0.0" type="line"/>
    </contour>
    <contour>
      <point x="1976.0" y="2048.0" type="line"/>
      <point x="1652.0" y="2048.0" type="line"/>
      <point x="564.0" y="1032.0" type="line"/>
      <point x="492.0" y="1032.0" type="line"/>
      <point x="424.0" y="612.0" type="line"/>
      <point x="792.0" y="960.0" type="line"/>
      <point x="808.0" y="980.0" type="line"/>
    </contour>
    <contour>
      <point x="1336.0" y="0.0" type="line"/>
      <point x="1636.0" y="0.0" type="line"/>
      <point x="940.0" y="1168.0" type="line"/>
      <point x="772.0" y="976.0" type="line"/>
    </contour>
  </outline>
</glyph>
<glyph name="L" format="2">
  <advance width="1584.0"/>
  <unicode hex="004C"/>
  <outline>
    <contour>
      <point x="1356.0" y="220.0" type="line"/>
      <point x="348.0" y="220.0" type="line"/>
      <point x="312.0" y="0.0" type="line"/>
      <point x="1320.0" y="0.0" type="line"/>
    </contour>
    <contour>
      <point x="708.0" y="2048.0" type="line"/>
      <point x="460.0" y="2048.0" type="line"/>
      <point x="120.0" y="0.0" type="line"/>
      <point x="368.0" y="0.0" type="line"/>
    </contour>
  </outline>
</glyph>
<glyph name="M" format="2">
  <advance width="2464.0"/>
  <unicode hex="004D"/>
  <guideline x="920.0" y="152.0" angle="90.0"/>
  <guideline x="1156.0" y="2056.0" angle="90.0"/>
  <guideline x="2572.0" y="2060.0" angle="90.0"/>
  <outline>
    <contour>
      <point x="460.0" y="2048.0" type="line"/>
      <point x="120.0" y="0.0" type="line"/>
      <point x="352.0" y="0.0" type="line"/>
      <point x="608.0" y="1536.0" type="line"/>
      <point x="628.0" y="1536.0" type="line"/>
      <point x="996.0" y="16.0" type="line"/>
      <point x="1220.0" y="16.0" type="line"/>
      <point x="2092.0" y="1536.0" type="line"/>
      <point x="2112.0" y="1536.0" type="line"/>
      <point x="1856.0" y="0.0" type="line"/>
      <point x="2088.0" y="0.0" type="line"/>
      <point x="2428.0" y="2048.0" type="line"/>
      <point x="2152.0" y="2048.0" type="line"/>
      <point x="1184.0" y="376.0" type="line"/>
      <point x="1160.0" y="376.0" type="line"/>
      <point x="736.0" y="2048.0" type="line"/>
    </contour>
  </outline>
</glyph>
<glyph name="N" format="2">
  <advance width="2080.0"/>
  <unicode hex="004E"/>
  <guideline x="964.0" y="284.0" angle="260.6"/>
  <outline>
    <contour>
      <point x="2044.0" y="2048.0" type="line"/>
      <point x="1800.0" y="2048.0" type="line"/>
      <point x="1532.0" y="436.0" type="line"/>
      <point x="1512.0" y="436.0" type="line"/>
      <point x="700.0" y="2048.0" type="line"/>
      <point x="460.0" y="2048.0" type="line"/>
      <point x="120.0" y="0.0" type="line"/>
      <point x="368.0" y="0.0" type="line"/>
      <point x="636.0" y="1604.0" type="line"/>
      <point x="656.0" y="1604.0" type="line"/>
      <point x="1464.0" y="0.0" type="line"/>
      <point x="1704.0" y="0.0" type="line"/>
    </contour>
  </outline>
</glyph>
<glyph name="O" format="2">
  <advance width="2144.0"/>
  <unicode hex="004F"/>
  <guideline x="1512.0" y="1652.0" angle="90.0"/>
  <outline>
    <contour>
      <point x="2020.0" y="1024.0" type="curve"/>
      <point x="2124.0" y="1672.0"/>
      <point x="1812.0" y="2076.0"/>
      <point x="1288.0" y="2076.0" type="curve" smooth="yes"/>
      <point x="764.0" y="2076.0"/>
      <point x="316.0" y="1672.0"/>
      <point x="212.0" y="1024.0" type="curve"/>
      <point x="104.0" y="376.0"/>
      <point x="416.0" y="-28.0"/>
      <point x="940.0" y="-28.0" type="curve" smooth="yes"/>
      <point x="1464.0" y="-28.0"/>
      <point x="1912.0" y="376.0"/>
    </contour>
    <contour>
      <point x="1780.0" y="1024.0" type="curve"/>
      <point x="1692.0" y="492.0"/>
      <point x="1352.0" y="204.0"/>
      <point x="980.0" y="204.0" type="curve" smooth="yes"/>
      <point x="608.0" y="204.0"/>
      <point x="364.0" y="492.0"/>
      <point x="452.0" y="1024.0" type="curve"/>
      <point x="540.0" y="1556.0"/>
      <point x="880.0" y="1844.0"/>
      <point x="1252.0" y="1844.0" type="curve" smooth="yes"/>
      <point x="1624.0" y="1844.0"/>
      <point x="1868.0" y="1556.0"/>
    </contour>
  </outline>
</glyph>
<glyph name="P" format="2">
  <advance width="1784.0"/>
  <unicode hex="0050"/>
  <guideline x="2216.0" y="1760.0" angle="90.0"/>
  <guideline x="2108.0" y="1804.0" angle="90.0"/>
  <outline>
    <contour>
      <point x="120.0" y="0.0" type="line"/>
      <point x="368.0" y="0.0" type="line"/>
      <point x="672.0" y="1828.0" type="line"/>
      <point x="1108.0" y="1828.0" type="line"/>
      <point x="1440.0" y="1828.0"/>
      <point x="1536.0" y="1648.0"/>
      <point x="1496.0" y="1400.0" type="curve" smooth="yes"/>
      <point x="1456.0" y="1156.0"/>
      <point x="1296.0" y="968.0"/>
      <point x="968.0" y="968.0" type="curve"/>
      <point x="480.0" y="968.0" type="line"/>
      <point x="444.0" y="748.0" type="line"/>
      <point x="940.0" y="748.0" type="line"/>
      <point x="1416.0" y="748.0"/>
      <point x="1680.0" y="1040.0"/>
      <point x="1740.0" y="1400.0" type="curve" smooth="yes"/>
      <point x="1800.0" y="1764.0"/>
      <point x="1632.0" y="2048.0"/>
      <point x="1152.0" y="2048.0" type="curve"/>
      <point x="460.0" y="2048.0" type="line"/>
    </contour>
  </outline>
</glyph>
<glyph name="Q" format="2">
  <advance width="2184.0"/>
  <unicode hex="0051"/>
  <outline>
    <contour>
      <point x="956.0" y="640.0" type="line"/>
      <point x="1304.0" y="184.0" type="line"/>
      <point x="1360.0" y="108.0" type="line"/>
      <point x="1584.0" y="-192.0" type="line"/>
      <point x="1856.0" y="-192.0" type="line"/>
      <point x="1516.0" y="260.0" type="line"/>
      <point x="1456.0" y="340.0" type="line"/>
      <point x="1228.0" y="640.0" type="line"/>
    </contour>
    <component base="O"/>
  </outline>
</glyph>
<glyph name="R" format="2">
  <advance width="1800.0"/>
  <unicode hex="0052"/>
  <guideline x="1560.0" y="2112.0" angle="260.6"/>
  <outline>
    <contour>
      <point x="120.0" y="0.0" type="line"/>
      <point x="368.0" y="0.0" type="line"/>
      <point x="672.0" y="1828.0" type="line"/>
      <point x="1108.0" y="1828.0" type="line" smooth="yes"/>
      <point x="1440.0" y="1828.0"/>
      <point x="1540.0" y="1668.0"/>
      <point x="1500.0" y="1420.0" type="curve" smooth="yes"/>
      <point x="1460.0" y="1176.0"/>
      <point x="1308.0" y="1024.0"/>
      <point x="980.0" y="1024.0" type="curve" smooth="yes"/>
      <point x="428.0" y="1024.0" type="line"/>
      <point x="388.0" y="800.0" type="line"/>
      <point x="948.0" y="800.0" type="line" smooth="yes"/>
      <point x="1424.0" y="800.0"/>
      <point x="1684.0" y="1060.0"/>
      <point x="1744.0" y="1420.0" type="curve" smooth="yes"/>
      <point x="1804.0" y="1784.0"/>
      <point x="1632.0" y="2048.0"/>
      <point x="1152.0" y="2048.0" type="curve" smooth="yes"/>
      <point x="460.0" y="2048.0" type="line"/>
    </contour>
    <contour>
      <point x="1236.0" y="920.0" type="line"/>
      <point x="956.0" y="920.0" type="line"/>
      <point x="1300.0" y="0.0" type="line"/>
      <point x="1588.0" y="0.0" type="line"/>
    </contour>
  </outline>
</glyph>
<glyph name="S" format="2">
  <advance width="1788.0"/>
  <unicode hex="0053"/>
  <guideline x="-68.0" y="528.0" angle="0.0"/>
  <guideline x="868.0" y="-72.0" angle="90.0"/>
  <outline>
    <contour>
      <point x="1484.0" y="1520.0" type="curve"/>
      <point x="1724.0" y="1520.0" type="line"/>
      <point x="1760.0" y="1844.0"/>
      <point x="1520.0" y="2076.0"/>
      <point x="1124.0" y="2076.0" type="curve" smooth="yes"/>
      <point x="732.0" y="2076.0"/>
      <point x="388.0" y="1848.0"/>
      <point x="328.0" y="1504.0" type="curve" smooth="yes"/>
      <point x="284.0" y="1228.0"/>
      <point x="456.0" y="1064.0"/>
      <point x="760.0" y="972.0" type="curve" smooth="yes"/>
      <point x="1000.0" y="900.0" type="line" smooth="yes"/>
      <point x="1208.0" y="840.0"/>
      <point x="1388.0" y="764.0"/>
      <point x="1352.0" y="560.0" type="curve" smooth="yes"/>
      <point x="1316.0" y="336.0"/>
      <point x="1076.0" y="188.0"/>
      <point x="792.0" y="188.0" type="curve" smooth="yes"/>
      <point x="548.0" y="188.0"/>
      <point x="348.0" y="296.0"/>
      <point x="368.0" y="528.0" type="curve"/>
      <point x="112.0" y="528.0" type="line"/>
      <point x="80.0" y="192.0"/>
      <point x="316.0" y="-36.0"/>
      <point x="756.0" y="-36.0" type="curve" smooth="yes"/>
      <point x="1228.0" y="-36.0"/>
      <point x="1536.0" y="224.0"/>
      <point x="1592.0" y="556.0" type="curve" smooth="yes"/>
      <point x="1656.0" y="940.0"/>
      <point x="1312.0" y="1064.0"/>
      <point x="1112.0" y="1120.0" type="curve" smooth="yes"/>
      <point x="912.0" y="1176.0" type="line" smooth="yes"/>
      <point x="768.0" y="1216.0"/>
      <point x="536.0" y="1296.0"/>
      <point x="572.0" y="1516.0" type="curve" smooth="yes"/>
      <point x="604.0" y="1712.0"/>
      <point x="808.0" y="1856.0"/>
      <point x="1080.0" y="1856.0" type="curve" smooth="yes"/>
      <point x="1328.0" y="1856.0"/>
      <point x="1484.0" y="1740.0"/>
    </contour>
  </outline>
</glyph>
<glyph name="T" format="2">
  <advance width="1808.0"/>
  <unicode hex="0054"/>
  <guideline x="804.0" y="176.0" angle="260.6"/>
  <outline>
    <contour>
      <point x="312.0" y="1828.0" type="line"/>
      <point x="956.0" y="1828.0" type="line"/>
      <point x="652.0" y="0.0" type="line"/>
      <point x="900.0" y="0.0" type="line"/>
      <point x="1204.0" y="1828.0" type="line"/>
      <point x="1848.0" y="1828.0" type="line"/>
      <point x="1884.0" y="2048.0" type="line"/>
      <point x="348.0" y="2048.0" type="line"/>
    </contour>
  </outline>
</glyph>
<glyph name="U" format="2">
  <advance width="2088.0"/>
  <unicode hex="0055"/>
  <guideline x="1688.0" y="2084.0" angle="90.0"/>
  <outline>
    <contour>
      <point x="1804.0" y="2048.0" type="line"/>
      <point x="1580.0" y="692.0" type="line" smooth="yes"/>
      <point x="1526.0" y="372.0"/>
      <point x="1238.0" y="196.0"/>
      <point x="948.0" y="196.0" type="curve" smooth="yes"/>
      <point x="654.0" y="196.0"/>
      <point x="430.0" y="372.0"/>
      <point x="484.0" y="692.0" type="curve" smooth="yes"/>
      <point x="708.0" y="2048.0" type="line"/>
      <point x="460.0" y="2048.0" type="line"/>
      <point x="236.0" y="692.0" type="line"/>
      <point x="158.0" y="232.0"/>
      <point x="478.0" y="-36.0"/>
      <point x="912.0" y="-36.0" type="curve" smooth="yes"/>
      <point x="1342.0" y="-36.0"/>
      <point x="1750.0" y="232.0"/>
      <point x="1828.0" y="692.0" type="curve"/>
      <point x="2052.0" y="2048.0" type="line"/>
    </contour>
  </outline>
</glyph>
<glyph name="V" format="2">
  <advance width="1904.0"/>
  <unicode hex="0056"/>
  <guideline x="800.0" y="476.0" angle="90.0"/>
  <guideline x="968.0" y="2088.0" angle="90.0"/>
  <guideline x="2260.0" y="2196.0" angle="90.0"/>
  <outline>
    <contour>
      <point x="544.0" y="2048.0" type="line"/>
      <point x="284.0" y="2048.0" type="line"/>
      <point x="696.0" y="0.0" type="line"/>
      <point x="952.0" y="0.0" type="line"/>
      <point x="2044.0" y="2048.0" type="line"/>
      <point x="1784.0" y="2048.0" type="line"/>
      <point x="892.0" y="324.0" type="line"/>
      <point x="868.0" y="324.0" type="line"/>
    </contour>
  </outline>
</glyph>
<glyph name="W" format="2">
  <advance width="2672.0"/>
  <unicode hex="0057"/>
  <guideline x="924.0" y="360.0" angle="0.0"/>
  <guideline x="1988.0" y="2096.0" angle="90.0"/>
  <guideline x="524.0" y="332.0" angle="90.0"/>
  <guideline x="1712.0" y="356.0" angle="90.0"/>
  <outline>
    <contour>
      <point x="492.0" y="0.0" type="line"/>
      <point x="748.0" y="0.0" type="line"/>
      <point x="1472.0" y="1632.0" type="line"/>
      <point x="1488.0" y="1632.0" type="line"/>
      <point x="1668.0" y="0.0" type="line"/>
      <point x="1924.0" y="0.0" type="line"/>
      <point x="2824.0" y="2048.0" type="line"/>
      <point x="2572.0" y="2048.0" type="line"/>
      <point x="1868.0" y="380.0" type="line"/>
      <point x="1848.0" y="380.0" type="line"/>
      <point x="1688.0" y="2048.0" type="line"/>
      <point x="1408.0" y="2048.0" type="line"/>
      <point x="696.0" y="380.0" type="line"/>
      <point x="676.0" y="380.0" type="line"/>
      <point x="524.0" y="2048.0" type="line"/>
      <point x="272.0" y="2048.0" type="line"/>
    </contour>
  </outline>
</glyph>
<glyph name="X" format="2">
  <advance width="1808.0"/>
  <unicode hex="0058"/>
  <guideline x="2424.0" y="2180.0" angle="90.0"/>
  <guideline x="1196.0" y="1372.0" angle="90.0"/>
  <guideline x="708.0" y="2060.0" angle="90.0"/>
  <guideline x="1480.0" y="1024.0" angle="0.0"/>
  <outline>
    <contour>
      <point x="580.0" y="2048.0" type="line"/>
      <point x="288.0" y="2048.0" type="line"/>
      <point x="780.0" y="1024.0" type="line"/>
      <point x="-52.0" y="0.0" type="line"/>
      <point x="240.0" y="0.0" type="line"/>
      <point x="908.0" y="836.0" type="line"/>
      <point x="924.0" y="836.0" type="line"/>
      <point x="1312.0" y="0.0" type="line"/>
      <point x="1604.0" y="0.0" type="line"/>
      <point x="1132.0" y="1024.0" type="line"/>
      <point x="1944.0" y="2048.0" type="line"/>
      <point x="1652.0" y="2048.0" type="line"/>
      <point x="984.0" y="1196.0" type="line"/>
      <point x="968.0" y="1196.0" type="line"/>
    </contour>
  </outline>
</glyph>
<glyph name="Y" format="2">
  <advance width="1872.0"/>
  <unicode hex="0059"/>
  <guideline x="1224.0" y="1360.0" angle="90.0"/>
  <guideline x="988.0" y="2092.0" angle="90.0"/>
  <guideline x="2152.0" y="2100.0" angle="90.0"/>
  <outline>
    <contour>
      <point x="284.0" y="2048.0" type="line"/>
      <point x="824.0" y="844.0" type="line"/>
      <point x="684.0" y="0.0" type="line"/>
      <point x="932.0" y="0.0" type="line"/>
      <point x="1072.0" y="844.0" type="line"/>
      <point x="2012.0" y="2048.0" type="line"/>
      <point x="1728.0" y="2048.0" type="line"/>
      <point x="1004.0" y="1092.0" type="line"/>
      <point x="980.0" y="1092.0" type="line"/>
      <point x="568.0" y="2048.0" type="line"/>
    </contour>
  </outline>
</glyph>
<glyph name="Z" format="2">
  <advance width="1760.0"/>
  <unicode hex="005A"/>
  <guideline x="952.0" y="1056.0" angle="260.6"/>
  <outline>
    <contour>
      <point x="1500.0" y="220.0" type="line"/>
      <point x="192.0" y="220.0" type="line"/>
      <point x="156.0" y="0.0" type="line"/>
      <point x="1464.0" y="0.0" type="line"/>
    </contour>
    <contour>
      <point x="1764.0" y="1868.0" type="line"/>
      <point x="1792.0" y="2048.0" type="line"/>
      <point x="1644.0" y="2048.0" type="line"/>
      <point x="84.0" y="180.0" type="line"/>
      <point x="52.0" y="0.0" type="line"/>
      <point x="200.0" y="0.0" type="line"/>
    </contour>
    <contour>
      <point x="1668.0" y="2048.0" type="line"/>
      <point x="380.0" y="2048.0" type="line"/>
      <point x="344.0" y="1828.0" type="line"/>
      <point x="1632.0" y="1828.0" type="line"/>
    </contour>
  </outline>
</glyph>
<glyph name="bracketleft" format="2">
  <advance width="928.0"/>
  <unicode hex="005B"/>
  <outline>
    <contour>
      <point x="1020.0" y="2240.0" type="line"/>
      <point x="508.0" y="2240.0" type="line"/>
      <point x="64.0" y="-448.0" type="line"/>
      <point x="576.0" y="-448.0" type="line"/>
      <point x="612.0" y="-228.0" type="line"/>
      <point x="332.0" y="-228.0" type="line"/>
      <point x="704.0" y="2020.0" type="line"/>
      <point x="984.0" y="2020.0" type="line"/>
    </contour>
  </outline>
</glyph>
<glyph name="backslash" format="2">
  <advance width="1008.0"/>
  <unicode hex="005C"/>
  <outline>
    <contour>
      <point x="220.0" y="2048.0" type="line"/>
      <point x="600.0" y="-308.0" type="line"/>
      <point x="832.0" y="-308.0" type="line"/>
      <point x="452.0" y="2048.0" type="line"/>
    </contour>
  </outline>
</glyph>
<glyph name="bracketright" format="2">
  <advance width="928.0"/>
  <unicode hex="005D"/>
  <outline>
    <contour>
      <point x="396.0" y="2240.0" type="line"/>
      <point x="360.0" y="2020.0" type="line"/>
      <point x="640.0" y="2020.0" type="line"/>
      <point x="268.0" y="-228.0" type="line"/>
      <point x="-12.0" y="-228.0" type="line"/>
      <point x="-48.0" y="-448.0" type="line"/>
      <point x="464.0" y="-448.0" type="line"/>
      <point x="908.0" y="2240.0" type="line"/>
    </contour>
  </outline>
</glyph>
<glyph name="asciicircum" format="2">
  <advance width="1320.0"/>
  <unicode hex="005E"/>
  <outline>
    <contour>
      <point x="816.0" y="1872.0" type="line"/>
      <point x="800.0" y="1772.0" type="line"/>
      <point x="872.0" y="1772.0" type="line"/>
      <point x="888.0" y="1872.0" type="line"/>
    </contour>
    <contour>
      <point x="172.0" y="1120.0" type="line"/>
      <point x="420.0" y="1120.0" type="line"/>
      <point x="852.0" y="1812.0" type="line"/>
      <point x="828.0" y="1812.0" type="line"/>
      <point x="1040.0" y="1120.0" type="line"/>
      <point x="1268.0" y="1120.0" type="line"/>
      <point x="996.0" y="1984.0" type="line"/>
      <point x="724.0" y="1984.0" type="line"/>
    </contour>
  </outline>
</glyph>
<glyph name="underscore" format="2">
  <advance width="1272.0"/>
  <unicode hex="005F"/>
  <guideline x="576.0" y="-116.0" angle="260.6"/>
  <outline>
    <contour>
      <point x="1228.0" y="0.0" type="line"/>
      <point x="-52.0" y="0.0" type="line"/>
      <point x="-88.0" y="-220.0" type="line"/>
      <point x="1192.0" y="-220.0" type="line"/>
    </contour>
  </outline>
</glyph>
<glyph name="grave" format="2">
  <advance width="1400.0"/>
  <unicode hex="0060"/>
  <outline>
    <contour>
      <point x="1120.0" y="1744.0" type="line"/>
      <point x="956.0" y="2208.0" type="line"/>
      <point x="680.0" y="2208.0" type="line"/>
      <point x="912.0" y="1744.0" type="line"/>
    </contour>
  </outline>
</glyph>
<glyph name="a" format="2">
  <advance width="1588.0"/>
  <unicode hex="0061"/>
  <guideline x="872.0" y="1160.0" angle="260.6"/>
  <outline>
    <contour>
      <point x="536.0" y="-36.0" type="curve" smooth="yes"/>
      <point x="804.0" y="-36.0"/>
      <point x="968.0" y="108.0"/>
      <point x="1032.0" y="208.0" type="curve"/>
      <point x="1044.0" y="208.0" type="line"/>
      <point x="1008.0" y="0.0" type="line"/>
      <point x="1244.0" y="0.0" type="line"/>
      <point x="1412.0" y="1012.0" type="line" smooth="yes"/>
      <point x="1492.0" y="1500.0"/>
      <point x="1132.0" y="1556.0"/>
      <point x="936.0" y="1556.0" type="curve" smooth="yes"/>
      <point x="704.0" y="1556.0"/>
      <point x="424.0" y="1476.0"/>
      <point x="260.0" y="1196.0" type="curve"/>
      <point x="468.0" y="1116.0" type="line"/>
      <point x="540.0" y="1228.0"/>
      <point x="684.0" y="1348.0"/>
      <point x="908.0" y="1348.0" type="curve" smooth="yes"/>
      <point x="1128.0" y="1348.0"/>
      <point x="1212.0" y="1232.0"/>
      <point x="1180.0" y="1032.0" type="curve"/>
      <point x="1160.0" y="920.0"/>
      <point x="1044.0" y="924.0"/>
      <point x="760.0" y="888.0" type="curve" smooth="yes"/>
      <point x="468.0" y="852.0"/>
      <point x="148.0" y="788.0"/>
      <point x="88.0" y="436.0" type="curve" smooth="yes"/>
      <point x="40.0" y="136.0"/>
      <point x="244.0" y="-36.0"/>
    </contour>
    <contour>
      <point x="604.0" y="176.0" type="curve" smooth="yes"/>
      <point x="416.0" y="176.0"/>
      <point x="296.0" y="260.0"/>
      <point x="324.0" y="424.0" type="curve" smooth="yes"/>
      <point x="352.0" y="604.0"/>
      <point x="528.0" y="660.0"/>
      <point x="716.0" y="684.0" type="curve" smooth="yes"/>
      <point x="816.0" y="696.0"/>
      <point x="1088.0" y="724.0"/>
      <point x="1136.0" y="772.0" type="curve"/>
      <point x="1100.0" y="556.0" type="line" smooth="yes"/>
      <point x="1068.0" y="364.0"/>
      <point x="884.0" y="176.0"/>
    </contour>
  </outline>
</glyph>
<glyph name="b" format="2">
  <advance width="1748.0"/>
  <unicode hex="0062"/>
  <note>
top anchor should match top anchor of i
</note>
  <guideline x="208.0" y="168.0" angle="0.0"/>
  <guideline x="896.0" y="536.0" angle="260.6"/>
  <outline>
    <contour>
      <point x="120.0" y="0.0" type="line"/>
      <point x="348.0" y="0.0" type="line"/>
      <point x="388.0" y="236.0" type="line"/>
      <point x="416.0" y="236.0" type="line"/>
      <point x="456.0" y="152.0"/>
      <point x="524.0" y="-32.0"/>
      <point x="820.0" y="-32.0" type="curve" smooth="yes"/>
      <point x="1204.0" y="-32.0"/>
      <point x="1524.0" y="276.0"/>
      <point x="1604.0" y="764.0" type="curve" smooth="yes"/>
      <point x="1684.0" y="1248.0"/>
      <point x="1468.0" y="1556.0"/>
      <point x="1080.0" y="1556.0" type="curve" smooth="yes"/>
      <point x="780.0" y="1556.0"/>
      <point x="656.0" y="1372.0"/>
      <point x="592.0" y="1292.0" type="curve"/>
      <point x="572.0" y="1292.0" type="line"/>
      <point x="696.0" y="2048.0" type="line"/>
      <point x="460.0" y="2048.0" type="line"/>
    </contour>
    <contour>
      <point x="480.0" y="768.0" type="curve" smooth="yes"/>
      <point x="536.0" y="1112.0"/>
      <point x="728.0" y="1344.0"/>
      <point x="1016.0" y="1344.0" type="curve" smooth="yes"/>
      <point x="1316.0" y="1344.0"/>
      <point x="1420.0" y="1092.0"/>
      <point x="1368.0" y="768.0" type="curve" smooth="yes"/>
      <point x="1312.0" y="440.0"/>
      <point x="1120.0" y="180.0"/>
      <point x="824.0" y="180.0" type="curve" smooth="yes"/>
      <point x="540.0" y="180.0"/>
      <point x="424.0" y="420.0"/>
    </contour>
  </outline>
</glyph>
<glyph name="c" format="2">
  <advance width="1572.0"/>
  <unicode hex="0063"/>
  <guideline x="1180.0" y="1472.0" angle="90.0"/>
  <outline>
    <contour>
      <point x="1496.0" y="1076.0" type="line"/>
      <point x="1504.0" y="1364.0"/>
      <point x="1292.0" y="1556.0"/>
      <point x="968.0" y="1556.0" type="curve" smooth="yes"/>
      <point x="552.0" y="1556.0"/>
      <point x="220.0" y="1228.0"/>
      <point x="144.0" y="760.0" type="curve" smooth="yes"/>
      <point x="68.0" y="300.0"/>
      <point x="276.0" y="-32.0"/>
      <point x="708.0" y="-32.0" type="curve" smooth="yes"/>
      <point x="1048.0" y="-32.0"/>
      <point x="1304.0" y="176.0"/>
      <point x="1392.0" y="448.0" type="curve"/>
      <point x="1156.0" y="448.0" type="line"/>
      <point x="1084.0" y="280.0"/>
      <point x="928.0" y="180.0"/>
      <point x="744.0" y="180.0" type="curve" smooth="yes"/>
      <point x="464.0" y="180.0"/>
      <point x="320.0" y="412.0"/>
      <point x="380.0" y="768.0" type="curve" smooth="yes"/>
      <point x="436.0" y="1116.0"/>
      <point x="660.0" y="1344.0"/>
      <point x="936.0" y="1344.0" type="curve" smooth="yes"/>
      <point x="1144.0" y="1344.0"/>
      <point x="1248.0" y="1216.0"/>
      <point x="1260.0" y="1076.0" type="curve"/>
    </contour>
  </outline>
</glyph>
<glyph name="e" format="2">
  <advance width="1644.0"/>
  <unicode hex="0065"/>
  <guideline x="1000.0" y="1764.0" angle="260.6"/>
  <guideline x="544.0" y="1764.0" angle="260.6"/>
  <outline>
    <contour>
      <point x="728.0" y="-32.0" type="curve"/>
      <point x="1041.0" y="-32.0"/>
      <point x="1293.0" y="124.0"/>
      <point x="1404.0" y="356.0" type="curve"/>
      <point x="1188.0" y="420.0" type="line"/>
      <point x="1101.0" y="260.0"/>
      <point x="953.0" y="180.0"/>
      <point x="764.0" y="180.0" type="curve" smooth="yes"/>
      <point x="466.0" y="180.0"/>
      <point x="308.0" y="314.0"/>
      <point x="368.0" y="696.0" type="curve" smooth="yes"/>
      <point x="396.0" y="872.0" type="line" smooth="yes"/>
      <point x="433.0" y="1095.0"/>
      <point x="666.0" y="1344.0"/>
      <point x="932.0" y="1344.0" type="curve"/>
      <point x="1189.0" y="1344.0"/>
      <point x="1321.0" y="1152.0"/>
      <point x="1276.0" y="892.0" type="curve"/>
      <point x="332.0" y="892.0" type="line"/>
      <point x="300.0" y="688.0" type="line"/>
      <point x="1484.0" y="688.0" type="line"/>
      <point x="1500.0" y="788.0" type="line" smooth="yes"/>
      <point x="1597.0" y="1360.0"/>
      <point x="1289.0" y="1556.0"/>
      <point x="968.0" y="1556.0" type="curve" smooth="yes"/>
      <point x="553.0" y="1556.0"/>
      <point x="221.0" y="1228.0"/>
      <point x="144.0" y="756.0" type="curve"/>
      <point x="65.0" y="284.0"/>
      <point x="285.0" y="-32.0"/>
    </contour>
  </outline>
</glyph>
<glyph name="f" format="2">
  <advance width="1016.0"/>
  <unicode hex="0066"/>
  <outline>
    <contour>
      <point x="1028.0" y="1536.0" type="line"/>
      <point x="200.0" y="1536.0" type="line"/>
      <point x="168.0" y="1336.0" type="line"/>
      <point x="996.0" y="1336.0" type="line"/>
    </contour>
    <component base="_part.f_base"/>
  </outline>
</glyph>
<glyph name="g" format="2">
  <advance width="1716.0"/>
  <unicode hex="0067"/>
  <outline>
    <contour>
      <point x="612.0" y="-608.0" type="curve" smooth="yes"/>
      <point x="978.0" y="-608.0"/>
      <point x="1302.0" y="-440.0"/>
      <point x="1368.0" y="-44.0" type="curve" smooth="yes"/>
      <point x="1628.0" y="1536.0" type="line"/>
      <point x="1400.0" y="1536.0" type="line"/>
      <point x="1360.0" y="1292.0" type="line"/>
      <point x="1336.0" y="1292.0" type="line"/>
      <point x="1298.0" y="1372.0"/>
      <point x="1232.0" y="1556.0"/>
      <point x="932.0" y="1556.0" type="curve" smooth="yes"/>
      <point x="544.0" y="1556.0"/>
      <point x="225.0" y="1248.0"/>
      <point x="148.0" y="776.0" type="curve" smooth="yes"/>
      <point x="68.0" y="296.0"/>
      <point x="303.0" y="24.0"/>
      <point x="676.0" y="24.0" type="curve" smooth="yes"/>
      <point x="975.0" y="24.0"/>
      <point x="1100.0" y="200.0"/>
      <point x="1164.0" y="284.0" type="curve"/>
      <point x="1184.0" y="284.0" type="line"/>
      <point x="1136.0" y="-28.0" type="line" smooth="yes"/>
      <point x="1092.0" y="-284.0"/>
      <point x="886.0" y="-400.0"/>
      <point x="640.0" y="-400.0" type="curve" smooth="yes"/>
      <point x="358.0" y="-400.0"/>
      <point x="292.0" y="-253.0"/>
      <point x="244.0" y="-168.0" type="curve"/>
      <point x="32.0" y="-300.0" type="line"/>
      <point x="103.0" y="-461.0"/>
      <point x="267.0" y="-608.0"/>
    </contour>
    <contour>
      <point x="736.0" y="236.0" type="curve" smooth="yes"/>
      <point x="438.0" y="236.0"/>
      <point x="331.0" y="460.0"/>
      <point x="384.0" y="780.0" type="curve" smooth="yes"/>
      <point x="436.0" y="1092.0"/>
      <point x="614.0" y="1344.0"/>
      <point x="916.0" y="1344.0" type="curve" smooth="yes"/>
      <point x="1202.0" y="1344.0"/>
      <point x="1327.0" y="1112.0"/>
      <point x="1272.0" y="780.0" type="curve" smooth="yes"/>
      <point x="1216.0" y="440.0"/>
      <point x="1018.0" y="236.0"/>
    </contour>
  </outline>
</glyph>
<glyph name="h" format="2">
  <advance width="1636.0"/>
  <unicode hex="0068"/>
  <guideline x="520.0" y="1892.0" angle="260.6"/>
  <outline>
    <contour>
      <point x="480.0" y="928.0" type="line" smooth="yes"/>
      <point x="528.0" y="1216.0"/>
      <point x="752.0" y="1328.0"/>
      <point x="940.0" y="1328.0" type="curve" smooth="yes"/>
      <point x="1144.0" y="1328.0"/>
      <point x="1256.0" y="1200.0"/>
      <point x="1220.0" y="976.0" type="curve" smooth="yes"/>
      <point x="1056.0" y="0.0" type="line"/>
      <point x="1292.0" y="0.0" type="line"/>
      <point x="1456.0" y="976.0" type="line" smooth="yes"/>
      <point x="1516.0" y="1356.0"/>
      <point x="1344.0" y="1556.0"/>
      <point x="1056.0" y="1556.0" type="curve" smooth="yes"/>
      <point x="824.0" y="1556.0"/>
      <point x="656.0" y="1436.0"/>
      <point x="560.0" y="1320.0" type="curve"/>
      <point x="544.0" y="1320.0" type="line"/>
      <point x="664.0" y="2048.0" type="line"/>
      <point x="428.0" y="2048.0" type="line"/>
      <point x="88.0" y="0.0" type="line"/>
      <point x="324.0" y="0.0" type="line"/>
    </contour>
  </outline>
</glyph>
<glyph name="k" format="2">
  <advance width="1500.0"/>
  <unicode hex="006B"/>
  <outline>
    <contour>
      <point x="664.0" y="2048.0" type="line"/>
      <point x="428.0" y="2048.0" type="line"/>
      <point x="88.0" y="0.0" type="line"/>
      <point x="324.0" y="0.0" type="line"/>
    </contour>
    <contour>
      <point x="1524.0" y="1536.0" type="line"/>
      <point x="1232.0" y="1536.0" type="line"/>
      <point x="492.0" y="844.0" type="line"/>
      <point x="444.0" y="844.0" type="line"/>
      <point x="396.0" y="520.0" type="line"/>
      <point x="716.0" y="812.0" type="line"/>
      <point x="736.0" y="812.0" type="line"/>
    </contour>
    <contour>
      <point x="1056.0" y="0.0" type="line"/>
      <point x="1332.0" y="0.0" type="line"/>
      <point x="784.0" y="924.0" type="line"/>
      <point x="620.0" y="744.0" type="line"/>
    </contour>
  </outline>
</glyph>
<glyph name="l" format="2">
  <advance width="668.0"/>
  <unicode hex="006C"/>
  <guideline x="632.0" y="908.0" angle="90.0"/>
  <outline>
    <contour>
      <point x="664.0" y="2048.0" type="line"/>
      <point x="428.0" y="2048.0" type="line"/>
      <point x="88.0" y="0.0" type="line"/>
      <point x="324.0" y="0.0" type="line"/>
    </contour>
  </outline>
</glyph>
<glyph name="m" format="2">
  <advance width="2404.0"/>
  <unicode hex="006D"/>
  <guideline x="1108.0" y="196.0" angle="260.6"/>
  <outline>
    <contour>
      <point x="88.0" y="0.0" type="line"/>
      <point x="324.0" y="0.0" type="line"/>
      <point x="476.0" y="916.0" type="line" smooth="yes"/>
      <point x="520.0" y="1168.0"/>
      <point x="716.0" y="1328.0"/>
      <point x="896.0" y="1328.0" type="curve" smooth="yes"/>
      <point x="1068.0" y="1328.0"/>
      <point x="1160.0" y="1236.0"/>
      <point x="1124.0" y="1004.0" type="curve" smooth="yes"/>
      <point x="956.0" y="0.0" type="line"/>
      <point x="1196.0" y="0.0" type="line"/>
      <point x="1356.0" y="964.0" type="line" smooth="yes"/>
      <point x="1392.0" y="1180.0"/>
      <point x="1536.0" y="1328.0"/>
      <point x="1744.0" y="1328.0" type="curve" smooth="yes"/>
      <point x="1872.0" y="1328.0"/>
      <point x="2032.0" y="1252.0"/>
      <point x="1992.0" y="1012.0" type="curve" smooth="yes"/>
      <point x="1824.0" y="0.0" type="line"/>
      <point x="2060.0" y="0.0" type="line"/>
      <point x="2228.0" y="1004.0" type="line" smooth="yes"/>
      <point x="2288.0" y="1380.0"/>
      <point x="2112.0" y="1556.0"/>
      <point x="1856.0" y="1556.0" type="curve" smooth="yes"/>
      <point x="1632.0" y="1556.0"/>
      <point x="1428.0" y="1408.0"/>
      <point x="1364.0" y="1280.0" type="curve"/>
      <point x="1348.0" y="1280.0" type="line"/>
      <point x="1304.0" y="1432.0"/>
      <point x="1192.0" y="1556.0"/>
      <point x="1000.0" y="1556.0" type="curve" smooth="yes"/>
      <point x="804.0" y="1556.0"/>
      <point x="616.0" y="1408.0"/>
      <point x="552.0" y="1276.0" type="curve"/>
      <point x="536.0" y="1276.0" type="line"/>
      <point x="580.0" y="1536.0" type="line"/>
      <point x="344.0" y="1536.0" type="line"/>
    </contour>
  </outline>
</glyph>
<glyph name="n" format="2">
  <advance width="1648.0"/>
  <unicode hex="006E"/>
  <outline>
    <contour>
      <point x="476.0" y="924.0" type="line" smooth="yes"/>
      <point x="524.0" y="1192.0"/>
      <point x="712.0" y="1344.0"/>
      <point x="940.0" y="1344.0" type="curve" smooth="yes"/>
      <point x="1160.0" y="1344.0"/>
      <point x="1268.0" y="1200.0"/>
      <point x="1228.0" y="960.0" type="curve" smooth="yes"/>
      <point x="1068.0" y="0.0" type="line"/>
      <point x="1304.0" y="0.0" type="line"/>
      <point x="1468.0" y="976.0" type="line" smooth="yes"/>
      <point x="1532.0" y="1368.0"/>
      <point x="1352.0" y="1556.0"/>
      <point x="1044.0" y="1556.0" type="curve" smooth="yes"/>
      <point x="812.0" y="1556.0"/>
      <point x="648.0" y="1452.0"/>
      <point x="552.0" y="1296.0" type="curve"/>
      <point x="532.0" y="1296.0" type="line"/>
      <point x="572.0" y="1536.0" type="line"/>
      <point x="344.0" y="1536.0" type="line"/>
      <point x="88.0" y="0.0" type="line"/>
      <point x="324.0" y="0.0" type="line"/>
    </contour>
  </outline>
</glyph>
<glyph name="o" format="2">
  <advance width="1680.0"/>
  <unicode hex="006F"/>
  <guideline x="840.0" y="768.0" angle="260.6"/>
  <outline>
    <contour>
      <point x="724.0" y="-32.0" type="curve" smooth="yes"/>
      <point x="1132.0" y="-32.0"/>
      <point x="1456.0" y="276.0"/>
      <point x="1532.0" y="744.0" type="curve" smooth="yes"/>
      <point x="1611.0" y="1232.0"/>
      <point x="1380.0" y="1556.0"/>
      <point x="956.0" y="1556.0" type="curve" smooth="yes"/>
      <point x="548.0" y="1556.0"/>
      <point x="224.0" y="1248.0"/>
      <point x="148.0" y="776.0" type="curve" smooth="yes"/>
      <point x="70.0" y="292.0"/>
      <point x="300.0" y="-32.0"/>
    </contour>
    <contour>
      <point x="728.0" y="180.0" type="curve" smooth="yes"/>
      <point x="420.0" y="180.0"/>
      <point x="328.0" y="444.0"/>
      <point x="376.0" y="744.0" type="curve" smooth="yes"/>
      <point x="427.0" y="1060.0"/>
      <point x="628.0" y="1344.0"/>
      <point x="952.0" y="1344.0" type="curve" smooth="yes"/>
      <point x="1260.0" y="1344.0"/>
      <point x="1352.0" y="1076.0"/>
      <point x="1304.0" y="776.0" type="curve" smooth="yes"/>
      <point x="1253.0" y="459.0"/>
      <point x="1052.0" y="180.0"/>
    </contour>
  </outline>
</glyph>
<glyph name="p" format="2">
  <advance width="1716.0"/>
  <unicode hex="0070"/>
  <outline>
    <contour>
      <point x="788.0" y="-32.0" type="curve" smooth="yes"/>
      <point x="1172.0" y="-32.0"/>
      <point x="1492.0" y="276.0"/>
      <point x="1572.0" y="764.0" type="curve" smooth="yes"/>
      <point x="1652.0" y="1248.0"/>
      <point x="1436.0" y="1556.0"/>
      <point x="1048.0" y="1556.0" type="curve" smooth="yes"/>
      <point x="748.0" y="1556.0"/>
      <point x="624.0" y="1372.0"/>
      <point x="560.0" y="1292.0" type="curve"/>
      <point x="444.0" y="1292.0" type="line"/>
      <point x="268.0" y="236.0" type="line"/>
      <point x="384.0" y="236.0" type="line"/>
      <point x="424.0" y="152.0"/>
      <point x="492.0" y="-32.0"/>
    </contour>
    <contour>
      <point x="-8.0" y="-576.0" type="line"/>
      <point x="228.0" y="-576.0" type="line"/>
      <point x="384.0" y="364.0" type="line"/>
      <point x="368.0" y="752.0" type="line"/>
      <point x="524.0" y="1248.0" type="line"/>
      <point x="572.0" y="1536.0" type="line"/>
      <point x="344.0" y="1536.0" type="line"/>
    </contour>
    <contour>
      <point x="792.0" y="180.0" type="curve" smooth="yes"/>
      <point x="508.0" y="180.0"/>
      <point x="392.0" y="420.0"/>
      <point x="448.0" y="768.0" type="curve" smooth="yes"/>
      <point x="504.0" y="1112.0"/>
      <point x="696.0" y="1344.0"/>
      <point x="984.0" y="1344.0" type="curve" smooth="yes"/>
      <point x="1284.0" y="1344.0"/>
      <point x="1388.0" y="1092.0"/>
      <point x="1336.0" y="768.0" type="curve" smooth="yes"/>
      <point x="1280.0" y="440.0"/>
      <point x="1088.0" y="180.0"/>
    </contour>
  </outline>
</glyph>
<glyph name="r" format="2">
  <advance width="1080.0"/>
  <unicode hex="0072"/>
  <outline>
    <contour>
      <point x="88.0" y="0.0" type="line"/>
      <point x="324.0" y="0.0" type="line"/>
      <point x="484.0" y="972.0" type="line" smooth="yes"/>
      <point x="518.0" y="1179.0"/>
      <point x="708.0" y="1332.0"/>
      <point x="932.0" y="1332.0" type="curve" smooth="yes"/>
      <point x="992.0" y="1332.0"/>
      <point x="1036.0" y="1324.0"/>
      <point x="1064.0" y="1308.0" type="curve"/>
      <point x="1176.0" y="1504.0" type="line"/>
      <point x="1136.0" y="1540.0"/>
      <point x="1076.0" y="1560.0"/>
      <point x="992.0" y="1560.0" type="curve"/>
      <point x="804.0" y="1560.0"/>
      <point x="628.0" y="1456.0"/>
      <point x="548.0" y="1304.0" type="curve"/>
      <point x="532.0" y="1304.0" type="line"/>
      <point x="572.0" y="1536.0" type="line"/>
      <point x="344.0" y="1536.0" type="line"/>
    </contour>
  </outline>
</glyph>
<glyph name="s" format="2">
  <advance width="1460.0"/>
  <unicode hex="0073"/>
  <guideline x="924.0" y="1024.0" angle="19.9589"/>
  <guideline x="1272.0" y="784.0" angle="20.0339"/>
  <guideline x="512.0" y="328.0" angle="90.0"/>
  <outline>
    <contour>
      <point x="1348.0" y="1192.0" type="line"/>
      <point x="1304.0" y="1416.0"/>
      <point x="1156.0" y="1556.0"/>
      <point x="872.0" y="1556.0" type="curve" smooth="yes"/>
      <point x="548.0" y="1556.0"/>
      <point x="276.0" y="1372.0"/>
      <point x="232.0" y="1112.0" type="curve" smooth="yes"/>
      <point x="200.0" y="916.0"/>
      <point x="304.0" y="752.0"/>
      <point x="568.0" y="684.0" type="curve" smooth="yes"/>
      <point x="812.0" y="620.0" type="line" smooth="yes"/>
      <point x="948.0" y="584.0"/>
      <point x="1016.0" y="520.0"/>
      <point x="1000.0" y="420.0" type="curve" smooth="yes"/>
      <point x="976.0" y="288.0"/>
      <point x="828.0" y="172.0"/>
      <point x="608.0" y="172.0" type="curve" smooth="yes"/>
      <point x="380.0" y="172.0"/>
      <point x="292.0" y="296.0"/>
      <point x="260.0" y="436.0" type="curve"/>
      <point x="32.0" y="356.0" type="line"/>
      <point x="76.0" y="164.0"/>
      <point x="212.0" y="-32.0"/>
      <point x="580.0" y="-32.0" type="curve" smooth="yes"/>
      <point x="960.0" y="-32.0"/>
      <point x="1200.0" y="188.0"/>
      <point x="1240.0" y="424.0" type="curve" smooth="yes"/>
      <point x="1268.0" y="596.0"/>
      <point x="1180.0" y="760.0"/>
      <point x="908.0" y="828.0" type="curve" smooth="yes"/>
      <point x="692.0" y="884.0" type="line" smooth="yes"/>
      <point x="524.0" y="928.0"/>
      <point x="452.0" y="1016.0"/>
      <point x="472.0" y="1124.0" type="curve" smooth="yes"/>
      <point x="492.0" y="1256.0"/>
      <point x="648.0" y="1356.0"/>
      <point x="836.0" y="1356.0" type="curve" smooth="yes"/>
      <point x="1072.0" y="1356.0"/>
      <point x="1108.0" y="1200.0"/>
      <point x="1124.0" y="1132.0" type="curve"/>
    </contour>
  </outline>
</glyph>
<glyph name="t" format="2">
  <advance width="1040.0"/>
  <unicode hex="0074"/>
  <guideline x="1320.0" y="1332.0" angle="90.0"/>
  <guideline x="1368.0" y="1920.0" angle="90.0"/>
  <outline>
    <contour>
      <point x="1012.0" y="1536.0" type="line"/>
      <point x="216.0" y="1536.0" type="line"/>
      <point x="184.0" y="1336.0" type="line"/>
      <point x="980.0" y="1336.0" type="line"/>
    </contour>
    <component base="_part.t_base"/>
  </outline>
</glyph>
<glyph name="u" format="2">
  <advance width="1636.0"/>
  <unicode hex="0075"/>
  <guideline x="1164.0" y="1476.0" angle="90.0"/>
  <outline>
    <contour>
      <point x="1156.0" y="608.0" type="line" smooth="yes"/>
      <point x="1108.0" y="320.0"/>
      <point x="872.0" y="208.0"/>
      <point x="696.0" y="208.0" type="curve" smooth="yes"/>
      <point x="500.0" y="208.0"/>
      <point x="380.0" y="336.0"/>
      <point x="416.0" y="560.0" type="curve" smooth="yes"/>
      <point x="580.0" y="1536.0" type="line"/>
      <point x="344.0" y="1536.0" type="line"/>
      <point x="180.0" y="560.0" type="line" smooth="yes"/>
      <point x="116.0" y="156.0"/>
      <point x="356.0" y="-20.0"/>
      <point x="580.0" y="-20.0" type="curve" smooth="yes"/>
      <point x="812.0" y="-20.0"/>
      <point x="980.0" y="100.0"/>
      <point x="1076.0" y="216.0" type="curve"/>
      <point x="1092.0" y="216.0" type="line"/>
      <point x="1056.0" y="0.0" type="line"/>
      <point x="1292.0" y="0.0" type="line"/>
      <point x="1548.0" y="1536.0" type="line"/>
      <point x="1312.0" y="1536.0" type="line"/>
    </contour>
  </outline>
</glyph>
<glyph name="v" format="2">
  <advance width="1568.0"/>
  <unicode hex="0076"/>
  <guideline x="436.0" y="360.0" angle="90.0"/>
  <outline>
    <contour>
      <point x="1600.0" y="1536.0" type="line"/>
      <point x="1336.0" y="1536.0" type="line"/>
      <point x="708.0" y="312.0" type="line"/>
      <point x="692.0" y="312.0" type="line"/>
      <point x="472.0" y="1536.0" type="line"/>
      <point x="224.0" y="1536.0" type="line"/>
      <point x="536.0" y="0.0" type="line"/>
      <point x="776.0" y="0.0" type="line"/>
    </contour>
  </outline>
</glyph>
<glyph name="w" format="2">
  <advance width="2288.0"/>
  <unicode hex="0077"/>
  <guideline x="1304.0" y="1108.0" angle="90.0"/>
  <outline>
    <contour>
      <point x="436.0" y="0.0" type="line"/>
      <point x="668.0" y="0.0" type="line"/>
      <point x="1200.0" y="1180.0" type="line"/>
      <point x="1224.0" y="1180.0" type="line"/>
      <point x="1364.0" y="0.0" type="line"/>
      <point x="1596.0" y="0.0" type="line"/>
      <point x="2320.0" y="1536.0" type="line"/>
      <point x="2072.0" y="1536.0" type="line"/>
      <point x="1544.0" y="364.0" type="line"/>
      <point x="1528.0" y="364.0" type="line"/>
      <point x="1400.0" y="1536.0" type="line"/>
      <point x="1148.0" y="1536.0" type="line"/>
      <point x="624.0" y="360.0" type="line"/>
      <point x="608.0" y="360.0" type="line"/>
      <point x="472.0" y="1536.0" type="line"/>
      <point x="224.0" y="1536.0" type="line"/>
    </contour>
  </outline>
</glyph>
<glyph name="x" format="2">
  <advance width="1520.0"/>
  <unicode hex="0078"/>
  <guideline x="752.0" y="768.0" angle="90.0"/>
  <outline>
    <contour>
      <point x="520.0" y="1536.0" type="line"/>
      <point x="248.0" y="1536.0" type="line"/>
      <point x="608.0" y="768.0" type="line"/>
      <point x="-8.0" y="0.0" type="line"/>
      <point x="264.0" y="0.0" type="line"/>
      <point x="732.0" y="596.0" type="line"/>
      <point x="1000.0" y="0.0" type="line"/>
      <point x="1272.0" y="0.0" type="line"/>
      <point x="904.0" y="768.0" type="line"/>
      <point x="1528.0" y="1536.0" type="line"/>
      <point x="1256.0" y="1536.0" type="line"/>
      <point x="784.0" y="908.0" type="line"/>
    </contour>
  </outline>
</glyph>
<glyph name="y" format="2">
  <advance width="1568.0"/>
  <unicode hex="0079"/>
  <guideline x="1132.0" y="1488.0" angle="90.0"/>
  <outline>
    <contour>
      <point x="460.0" y="-152.0" type="line" smooth="yes"/>
      <point x="332.0" y="-380.0"/>
      <point x="224.0" y="-404.0"/>
      <point x="60.0" y="-360.0" type="curve"/>
      <point x="-32.0" y="-568.0" type="line"/>
      <point x="-12.0" y="-580.0"/>
      <point x="56.0" y="-596.0"/>
      <point x="136.0" y="-596.0" type="curve" smooth="yes"/>
      <point x="352.0" y="-596.0"/>
      <point x="516.0" y="-484.0"/>
      <point x="644.0" y="-248.0" type="curve" smooth="yes"/>
      <point x="1600.0" y="1536.0" type="line"/>
      <point x="1344.0" y="1536.0" type="line"/>
      <point x="652.0" y="184.0" type="line"/>
      <point x="552.0" y="16.0" type="line"/>
    </contour>
    <contour>
      <point x="480.0" y="1536.0" type="line"/>
      <point x="224.0" y="1536.0" type="line"/>
      <point x="544.0" y="-48.0" type="line"/>
      <point x="748.0" y="56.0" type="line"/>
    </contour>
    <contour>
      <point x="676.0" y="260.0" type="line"/>
      <point x="724.0" y="260.0" type="line"/>
      <point x="732.0" y="312.0" type="line"/>
      <point x="684.0" y="312.0" type="line"/>
    </contour>
  </outline>
</glyph>
<glyph name="z" format="2">
  <advance width="1524.0"/>
  <unicode hex="007A"/>
  <guideline x="620.0" y="500.0" angle="90.0"/>
  <outline>
    <contour>
      <point x="1272.0" y="220.0" type="line"/>
      <point x="188.0" y="220.0" type="line"/>
      <point x="152.0" y="0.0" type="line"/>
      <point x="1236.0" y="0.0" type="line"/>
    </contour>
    <contour>
      <point x="1440.0" y="1348.0" type="line"/>
      <point x="1472.0" y="1536.0" type="line"/>
      <point x="1336.0" y="1536.0" type="line"/>
      <point x="80.0" y="200.0" type="line"/>
      <point x="48.0" y="0.0" type="line"/>
      <point x="188.0" y="0.0" type="line"/>
    </contour>
    <contour>
      <point x="1352.0" y="1536.0" type="line"/>
      <point x="288.0" y="1536.0" type="line"/>
      <point x="252.0" y="1316.0" type="line"/>
      <point x="1316.0" y="1316.0" type="line"/>
    </contour>
  </outline>
</glyph>
<glyph name="braceleft" format="2">
  <advance width="928.0"/>
  <unicode hex="007B"/>
  <outline>
    <contour>
      <point x="1036.0" y="2196.0" type="line"/>
      <point x="644.0" y="2092.0"/>
      <point x="536.0" y="1844.0"/>
      <point x="488.0" y="1556.0" type="curve"/>
      <point x="440.0" y="1276.0" type="line"/>
      <point x="408.0" y="1080.0"/>
      <point x="304.0" y="956.0"/>
      <point x="104.0" y="956.0" type="curve"/>
      <point x="72.0" y="780.0" type="line"/>
      <point x="468.0" y="780.0"/>
      <point x="620.0" y="1000.0"/>
      <point x="664.0" y="1276.0" type="curve"/>
      <point x="712.0" y="1556.0" type="line"/>
      <point x="748.0" y="1780.0"/>
      <point x="840.0" y="1964.0"/>
      <point x="1064.0" y="2032.0" type="curve"/>
    </contour>
    <contour>
      <point x="676.0" y="-328.0" type="line"/>
      <point x="472.0" y="-260.0"/>
      <point x="440.0" y="-76.0"/>
      <point x="476.0" y="148.0" type="curve" smooth="yes"/>
      <point x="524.0" y="424.0" type="line" smooth="yes"/>
      <point x="568.0" y="704.0"/>
      <point x="492.0" y="924.0"/>
      <point x="96.0" y="924.0" type="curve"/>
      <point x="68.0" y="748.0" type="line"/>
      <point x="268.0" y="748.0"/>
      <point x="332.0" y="620.0"/>
      <point x="300.0" y="424.0" type="curve" smooth="yes"/>
      <point x="252.0" y="148.0" type="line" smooth="yes"/>
      <point x="204.0" y="-144.0"/>
      <point x="232.0" y="-388.0"/>
      <point x="592.0" y="-496.0" type="curve"/>
    </contour>
  </outline>
</glyph>
<glyph name="bar" format="2">
  <advance width="748.0"/>
  <unicode hex="007C"/>
  <outline>
    <contour>
      <point x="696.0" y="2048.0" type="line"/>
      <point x="476.0" y="2048.0" type="line"/>
      <point x="72.0" y="-384.0" type="line"/>
      <point x="292.0" y="-384.0" type="line"/>
    </contour>
  </outline>
</glyph>
<glyph name="braceright" format="2">
  <advance width="928.0"/>
  <unicode hex="007D"/>
  <outline>
    <contour>
      <point x="-124.0" y="-496.0" type="line"/>
      <point x="268.0" y="-392.0"/>
      <point x="376.0" y="-144.0"/>
      <point x="424.0" y="144.0" type="curve"/>
      <point x="472.0" y="424.0" type="line"/>
      <point x="504.0" y="620.0"/>
      <point x="608.0" y="744.0"/>
      <point x="808.0" y="744.0" type="curve"/>
      <point x="840.0" y="928.0" type="line"/>
      <point x="444.0" y="928.0"/>
      <point x="292.0" y="700.0"/>
      <point x="248.0" y="424.0" type="curve"/>
      <point x="200.0" y="144.0" type="line"/>
      <point x="164.0" y="-80.0"/>
      <point x="72.0" y="-264.0"/>
      <point x="-152.0" y="-332.0" type="curve"/>
    </contour>
    <contour>
      <point x="812.0" y="768.0" type="curve"/>
      <point x="844.0" y="952.0" type="line"/>
      <point x="644.0" y="952.0"/>
      <point x="580.0" y="1080.0"/>
      <point x="612.0" y="1276.0" type="curve" smooth="yes"/>
      <point x="660.0" y="1552.0" type="line" smooth="yes"/>
      <point x="708.0" y="1844.0"/>
      <point x="680.0" y="2088.0"/>
      <point x="320.0" y="2196.0" type="curve"/>
      <point x="236.0" y="2028.0" type="line"/>
      <point x="440.0" y="1960.0"/>
      <point x="472.0" y="1776.0"/>
      <point x="436.0" y="1552.0" type="curve" smooth="yes"/>
      <point x="388.0" y="1276.0" type="line" smooth="yes"/>
      <point x="344.0" y="996.0"/>
      <point x="416.0" y="768.0"/>
    </contour>
  </outline>
</glyph>
<glyph name="asciitilde" format="2">
  <advance width="1680.0"/>
  <unicode hex="007E"/>
  <guideline x="840.0" y="880.0" angle="315.3603"/>
  <guideline x="1052.0" y="1068.0" angle="315.5305"/>
  <outline>
    <contour>
      <point x="1388.0" y="1172.0" type="line"/>
      <point x="1356.0" y="996.0"/>
      <point x="1264.0" y="928.0"/>
      <point x="1160.0" y="928.0" type="curve" smooth="yes"/>
      <point x="1072.0" y="928.0"/>
      <point x="1024.0" y="976.0"/>
      <point x="948.0" y="1064.0" type="curve" smooth="yes"/>
      <point x="848.0" y="1184.0"/>
      <point x="744.0" y="1236.0"/>
      <point x="620.0" y="1236.0" type="curve" smooth="yes"/>
      <point x="392.0" y="1236.0"/>
      <point x="192.0" y="1060.0"/>
      <point x="140.0" y="768.0" type="curve"/>
      <point x="360.0" y="768.0" type="line"/>
      <point x="400.0" y="936.0"/>
      <point x="488.0" y="1008.0"/>
      <point x="596.0" y="1008.0" type="curve" smooth="yes"/>
      <point x="676.0" y="1008.0"/>
      <point x="732.0" y="968.0"/>
      <point x="796.0" y="876.0" type="curve" smooth="yes"/>
      <point x="884.0" y="760.0"/>
      <point x="992.0" y="700.0"/>
      <point x="1128.0" y="700.0" type="curve" smooth="yes"/>
      <point x="1360.0" y="700.0"/>
      <point x="1564.0" y="880.0"/>
      <point x="1608.0" y="1172.0" type="curve"/>
    </contour>
  </outline>
</glyph>
<glyph name="cent" format="2">
  <advance width="1580.0"/>
  <unicode hex="00A2"/>
  <guideline x="1056.0" y="1440.0" angle="90.0"/>
  <outline>
    <contour>
      <point x="600.0" y="-256.0" type="line"/>
      <point x="728.0" y="-256.0" type="line"/>
      <point x="1064.0" y="1780.0" type="line"/>
      <point x="936.0" y="1780.0" type="line"/>
    </contour>
    <component base="c"/>
  </outline>
</glyph>
<glyph name="sterling" format="2">
  <advance width="1776.0"/>
  <unicode hex="00A3"/>
  <outline>
    <contour>
      <point x="1412.0" y="0.0" type="line"/>
      <point x="1448.0" y="220.0" type="line"/>
      <point x="92.0" y="220.0" type="line"/>
      <point x="56.0" y="0.0" type="line"/>
    </contour>
    <contour>
      <point x="1112.0" y="796.0" type="line"/>
      <point x="1152.0" y="1024.0" type="line"/>
      <point x="220.0" y="1024.0" type="line"/>
      <point x="180.0" y="796.0" type="line"/>
    </contour>
    <contour>
      <point x="720.0" y="1428.0" type="line"/>
      <point x="772.0" y="1724.0"/>
      <point x="988.0" y="1856.0"/>
      <point x="1180.0" y="1856.0" type="curve" smooth="yes"/>
      <point x="1360.0" y="1856.0"/>
      <point x="1516.0" y="1740.0"/>
      <point x="1456.0" y="1532.0" type="curve"/>
      <point x="1676.0" y="1468.0" type="line"/>
      <point x="1804.0" y="1772.0"/>
      <point x="1584.0" y="2076.0"/>
      <point x="1204.0" y="2076.0" type="curve" smooth="yes"/>
      <point x="892.0" y="2076.0"/>
      <point x="544.0" y="1864.0"/>
      <point x="488.0" y="1428.0" type="curve" smooth="yes"/>
      <point x="372.0" y="560.0" type="line" smooth="yes"/>
      <point x="356.0" y="440.0"/>
      <point x="292.0" y="220.0"/>
      <point x="172.0" y="220.0" type="curve"/>
      <point x="412.0" y="164.0" type="line"/>
      <point x="532.0" y="240.0"/>
      <point x="588.0" y="392.0"/>
      <point x="608.0" y="560.0" type="curve" smooth="yes"/>
    </contour>
  </outline>
</glyph>
<glyph name="currency" format="2">
  <advance width="2036.0"/>
  <unicode hex="00A4"/>
  <guideline x="1464.0" y="1696.0" angle="90.0"/>
  <guideline x="208.0" y="836.0" angle="0.0"/>
  <outline>
    <contour>
      <point x="428.0" y="836.0" type="curve"/>
      <point x="488.0" y="1192.0"/>
      <point x="800.0" y="1480.0"/>
      <point x="1128.0" y="1480.0" type="curve" smooth="yes"/>
      <point x="1456.0" y="1480.0"/>
      <point x="1676.0" y="1192.0"/>
      <point x="1616.0" y="836.0" type="curve" smooth="yes"/>
      <point x="1556.0" y="484.0"/>
      <point x="1244.0" y="192.0"/>
      <point x="916.0" y="192.0" type="curve" smooth="yes"/>
      <point x="588.0" y="192.0"/>
      <point x="368.0" y="484.0"/>
    </contour>
    <contour>
      <point x="208.0" y="836.0" type="curve"/>
      <point x="128.0" y="348.0"/>
      <point x="428.0" y="-28.0"/>
      <point x="880.0" y="-28.0" type="curve" smooth="yes"/>
      <point x="1332.0" y="-28.0"/>
      <point x="1764.0" y="348.0"/>
      <point x="1844.0" y="836.0" type="curve" smooth="yes"/>
      <point x="1924.0" y="1324.0"/>
      <point x="1616.0" y="1696.0"/>
      <point x="1164.0" y="1696.0" type="curve" smooth="yes"/>
      <point x="712.0" y="1696.0"/>
      <point x="288.0" y="1324.0"/>
    </contour>
    <contour>
      <point x="2004.0" y="1556.0" type="line"/>
      <point x="1868.0" y="1724.0" type="line"/>
      <point x="1544.0" y="1440.0" type="line"/>
      <point x="1676.0" y="1272.0" type="line"/>
    </contour>
    <contour>
      <point x="520.0" y="264.0" type="line"/>
      <point x="384.0" y="428.0" type="line"/>
      <point x="60.0" y="148.0" type="line"/>
      <point x="192.0" y="-20.0" type="line"/>
    </contour>
    <contour>
      <point x="1576.0" y="-20.0" type="line"/>
      <point x="1768.0" y="148.0" type="line"/>
      <point x="1536.0" y="428.0" type="line"/>
      <point x="1348.0" y="264.0" type="line"/>
    </contour>
    <contour>
      <point x="524.0" y="1272.0" type="line"/>
      <point x="716.0" y="1440.0" type="line"/>
      <point x="484.0" y="1724.0" type="line"/>
      <point x="296.0" y="1556.0" type="line"/>
    </contour>
  </outline>
</glyph>
<glyph name="yen" format="2">
  <advance width="1544.0"/>
  <unicode hex="00A5"/>
  <guideline x="412.0" y="48.0" angle="90.0"/>
  <outline>
    <contour>
      <point x="1384.0" y="1020.0" type="line"/>
      <point x="240.0" y="1020.0" type="line"/>
      <point x="212.0" y="840.0" type="line"/>
      <point x="1356.0" y="840.0" type="line"/>
    </contour>
    <contour>
      <point x="1320.0" y="624.0" type="line"/>
      <point x="176.0" y="624.0" type="line"/>
      <point x="148.0" y="444.0" type="line"/>
      <point x="1292.0" y="444.0" type="line"/>
    </contour>
    <contour>
      <point x="728.0" y="908.0" type="line"/>
      <point x="740.0" y="828.0" type="line"/>
      <point x="904.0" y="828.0" type="line"/>
      <point x="1716.0" y="2048.0" type="line"/>
      <point x="1440.0" y="2048.0" type="line"/>
    </contour>
    <contour>
      <point x="528.0" y="2048.0" type="line"/>
      <point x="252.0" y="2048.0" type="line"/>
      <point x="656.0" y="828.0" type="line"/>
      <point x="820.0" y="828.0" type="line"/>
      <point x="864.0" y="908.0" type="line"/>
    </contour>
    <contour>
      <point x="948.0" y="1076.0" type="line"/>
      <point x="700.0" y="1076.0" type="line"/>
      <point x="520.0" y="0.0" type="line"/>
      <point x="768.0" y="0.0" type="line"/>
    </contour>
  </outline>
</glyph>
<glyph name="brokenbar" format="2">
  <advance width="748.0"/>
  <unicode hex="00A6"/>
  <guideline x="532.0" y="832.0" angle="0.0"/>
  <guideline x="924.0" y="1116.0" angle="0.0"/>
  <guideline x="644.0" y="552.0" angle="0.0"/>
  <outline>
    <contour>
      <point x="228.0" y="552.0" type="line"/>
      <point x="72.0" y="-384.0" type="line"/>
      <point x="292.0" y="-384.0" type="line"/>
      <point x="448.0" y="552.0" type="line"/>
    </contour>
    <contour>
      <point x="696.0" y="2048.0" type="line"/>
      <point x="476.0" y="2048.0" type="line"/>
      <point x="320.0" y="1116.0" type="line"/>
      <point x="540.0" y="1116.0" type="line"/>
    </contour>
  </outline>
</glyph>
<glyph name="section" format="2">
  <advance width="1552.0"/>
  <unicode hex="00A7"/>
  <outline>
    <contour>
      <point x="1404.0" y="1564.0" type="line"/>
      <point x="1452.0" y="1864.0"/>
      <point x="1296.0" y="2076.0"/>
      <point x="988.0" y="2076.0" type="curve" smooth="yes"/>
      <point x="704.0" y="2076.0"/>
      <point x="472.0" y="1896.0"/>
      <point x="428.0" y="1648.0" type="curve"/>
      <point x="408.0" y="1520.0"/>
      <point x="448.0" y="1416.0"/>
      <point x="516.0" y="1332.0" type="curve"/>
      <point x="516.0" y="1324.0" type="line"/>
      <point x="344.0" y="1276.0"/>
      <point x="200.0" y="1104.0"/>
      <point x="176.0" y="960.0" type="curve" smooth="yes"/>
      <point x="136.0" y="712.0"/>
      <point x="300.0" y="576.0"/>
      <point x="396.0" y="516.0" type="curve" smooth="yes"/>
      <point x="744.0" y="292.0" type="line" smooth="yes"/>
      <point x="832.0" y="236.0"/>
      <point x="940.0" y="168.0"/>
      <point x="916.0" y="16.0" type="curve" smooth="yes"/>
      <point x="892.0" y="-132.0"/>
      <point x="748.0" y="-204.0"/>
      <point x="600.0" y="-204.0" type="curve" smooth="yes"/>
      <point x="420.0" y="-204.0"/>
      <point x="304.0" y="-96.0"/>
      <point x="336.0" y="100.0" type="curve"/>
      <point x="104.0" y="100.0" type="line"/>
      <point x="52.0" y="-220.0"/>
      <point x="248.0" y="-416.0"/>
      <point x="564.0" y="-416.0" type="curve"/>
      <point x="828.0" y="-416.0"/>
      <point x="1096.0" y="-280.0"/>
      <point x="1144.0" y="16.0" type="curve" smooth="yes"/>
      <point x="1164.0" y="144.0"/>
      <point x="1140.0" y="256.0"/>
      <point x="1056.0" y="340.0" type="curve"/>
      <point x="1056.0" y="344.0" type="line"/>
      <point x="1216.0" y="392.0"/>
      <point x="1372.0" y="556.0"/>
      <point x="1396.0" y="704.0" type="curve" smooth="yes"/>
      <point x="1440.0" y="952.0"/>
      <point x="1272.0" y="1084.0"/>
      <point x="1180.0" y="1144.0" type="curve" smooth="yes"/>
      <point x="828.0" y="1372.0" type="line" smooth="yes"/>
      <point x="740.0" y="1428.0"/>
      <point x="636.0" y="1528.0"/>
      <point x="656.0" y="1648.0" type="curve" smooth="yes"/>
      <point x="676.0" y="1748.0"/>
      <point x="772.0" y="1864.0"/>
      <point x="952.0" y="1864.0" type="curve" smooth="yes"/>
      <point x="1140.0" y="1864.0"/>
      <point x="1204.0" y="1736.0"/>
      <point x="1176.0" y="1564.0" type="curve"/>
    </contour>
    <contour>
      <point x="1176.0" y="704.0" type="curve"/>
      <point x="1152.0" y="540.0"/>
      <point x="956.0" y="432.0"/>
      <point x="880.0" y="480.0" type="curve" smooth="yes"/>
      <point x="544.0" y="696.0" type="line" smooth="yes"/>
      <point x="456.0" y="756.0"/>
      <point x="376.0" y="832.0"/>
      <point x="396.0" y="960.0" type="curve" smooth="yes"/>
      <point x="424.0" y="1128.0"/>
      <point x="600.0" y="1244.0"/>
      <point x="680.0" y="1192.0" type="curve" smooth="yes"/>
      <point x="1032.0" y="964.0" type="line" smooth="yes"/>
      <point x="1120.0" y="908.0"/>
      <point x="1196.0" y="820.0"/>
    </contour>
  </outline>
</glyph>
<glyph name="dieresis" format="2">
  <advance width="1664.0"/>
  <unicode hex="00A8"/>
  <outline>
    <contour>
      <point x="732.0" y="1824.0" type="curve" smooth="yes"/>
      <point x="820.0" y="1824.0"/>
      <point x="892.0" y="1892.0"/>
      <point x="904.0" y="1968.0" type="curve" smooth="yes"/>
      <point x="920.0" y="2068.0"/>
      <point x="856.0" y="2144.0"/>
      <point x="756.0" y="2144.0" type="curve" smooth="yes"/>
      <point x="680.0" y="2144.0"/>
      <point x="600.0" y="2084.0"/>
      <point x="588.0" y="2000.0" type="curve" smooth="yes"/>
      <point x="572.0" y="1908.0"/>
      <point x="644.0" y="1824.0"/>
    </contour>
    <contour>
      <point x="1308.0" y="1824.0" type="curve" smooth="yes"/>
      <point x="1396.0" y="1824.0"/>
      <point x="1468.0" y="1892.0"/>
      <point x="1480.0" y="1968.0" type="curve" smooth="yes"/>
      <point x="1496.0" y="2068.0"/>
      <point x="1432.0" y="2144.0"/>
      <point x="1332.0" y="2144.0" type="curve" smooth="yes"/>
      <point x="1256.0" y="2144.0"/>
      <point x="1178.0" y="2084.0"/>
      <point x="1164.0" y="2000.0" type="curve" smooth="yes"/>
      <point x="1148.0" y="1904.0"/>
      <point x="1220.0" y="1824.0"/>
    </contour>
  </outline>
</glyph>
<glyph name="copyright" format="2">
  <advance width="2288.0"/>
  <unicode hex="00A9"/>
  <outline>
    <contour>
      <point x="1380.0" y="820.0" type="line"/>
      <point x="1352.0" y="640.0"/>
      <point x="1256.0" y="572.0"/>
      <point x="1096.0" y="572.0" type="curve" smooth="yes"/>
      <point x="920.0" y="572.0"/>
      <point x="852.0" y="716.0"/>
      <point x="884.0" y="920.0" type="curve" smooth="yes"/>
      <point x="912.0" y="1084.0" type="line" smooth="yes"/>
      <point x="948.0" y="1288.0"/>
      <point x="1060.0" y="1432.0"/>
      <point x="1236.0" y="1432.0" type="curve" smooth="yes"/>
      <point x="1396.0" y="1432.0"/>
      <point x="1476.0" y="1360.0"/>
      <point x="1444.0" y="1184.0" type="curve"/>
      <point x="1656.0" y="1184.0" type="line"/>
      <point x="1704.0" y="1472.0"/>
      <point x="1548.0" y="1616.0"/>
      <point x="1268.0" y="1616.0" type="curve" smooth="yes"/>
      <point x="972.0" y="1616.0"/>
      <point x="752.0" y="1400.0"/>
      <point x="700.0" y="1084.0" type="curve"/>
      <point x="672.0" y="920.0" type="line"/>
      <point x="620.0" y="604.0"/>
      <point x="768.0" y="388.0"/>
      <point x="1064.0" y="388.0" type="curve" smooth="yes"/>
      <point x="1344.0" y="388.0"/>
      <point x="1548.0" y="532.0"/>
      <point x="1596.0" y="820.0" type="curve"/>
    </contour>
    <contour>
      <point x="376.0" y="1004.0" type="curve"/>
      <point x="456.0" y="1488.0"/>
      <point x="880.0" y="1860.0"/>
      <point x="1324.0" y="1860.0" type="curve" smooth="yes"/>
      <point x="1772.0" y="1860.0"/>
      <point x="2072.0" y="1488.0"/>
      <point x="1992.0" y="1004.0" type="curve" smooth="yes"/>
      <point x="1912.0" y="516.0"/>
      <point x="1488.0" y="144.0"/>
      <point x="1040.0" y="144.0" type="curve" smooth="yes"/>
      <point x="596.0" y="144.0"/>
      <point x="296.0" y="516.0"/>
    </contour>
    <contour>
      <point x="208.0" y="1004.0" type="curve"/>
      <point x="112.0" y="420.0"/>
      <point x="476.0" y="-28.0"/>
      <point x="1012.0" y="-28.0" type="curve" smooth="yes"/>
      <point x="1552.0" y="-28.0"/>
      <point x="2064.0" y="420.0"/>
      <point x="2160.0" y="1004.0" type="curve" smooth="yes"/>
      <point x="2256.0" y="1584.0"/>
      <point x="1892.0" y="2032.0"/>
      <point x="1352.0" y="2032.0" type="curve" smooth="yes"/>
      <point x="816.0" y="2032.0"/>
      <point x="304.0" y="1584.0"/>
    </contour>
  </outline>
</glyph>
<glyph name="ordfeminine" format="2">
  <advance width="1264.0"/>
  <unicode hex="00AA"/>
  <outline>
    <contour>
      <point x="868.0" y="1184.0" type="line"/>
      <point x="856.0" y="1112.0"/>
      <point x="856.0" y="1036.0"/>
      <point x="864.0" y="972.0" type="curve"/>
      <point x="1108.0" y="972.0" type="line"/>
      <point x="1096.0" y="1052.0"/>
      <point x="1100.0" y="1132.0"/>
      <point x="1116.0" y="1220.0" type="curve" smooth="yes"/>
      <point x="1188.0" y="1652.0" type="line"/>
      <point x="1228.0" y="1904.0"/>
      <point x="1088.0" y="2032.0"/>
      <point x="848.0" y="2032.0" type="curve" smooth="yes"/>
      <point x="588.0" y="2032.0"/>
      <point x="400.0" y="1896.0"/>
      <point x="368.0" y="1712.0" type="curve"/>
      <point x="600.0" y="1692.0" type="line"/>
      <point x="616.0" y="1780.0"/>
      <point x="696.0" y="1828.0"/>
      <point x="816.0" y="1828.0" type="curve" smooth="yes"/>
      <point x="924.0" y="1828.0"/>
      <point x="964.0" y="1768.0"/>
      <point x="948.0" y="1652.0" type="curve"/>
    </contour>
    <contour>
      <point x="996.0" y="1584.0" type="line"/>
      <point x="796.0" y="1584.0" type="line"/>
      <point x="480.0" y="1584.0"/>
      <point x="304.0" y="1468.0"/>
      <point x="272.0" y="1264.0" type="curve" smooth="yes"/>
      <point x="240.0" y="1076.0"/>
      <point x="344.0" y="952.0"/>
      <point x="564.0" y="952.0" type="curve" smooth="yes"/>
      <point x="752.0" y="952.0"/>
      <point x="872.0" y="1060.0"/>
      <point x="928.0" y="1148.0" type="curve"/>
      <point x="928.0" y="1308.0" type="line"/>
      <point x="920.0" y="1240.0"/>
      <point x="768.0" y="1152.0"/>
      <point x="656.0" y="1152.0" type="curve" smooth="yes"/>
      <point x="544.0" y="1152.0"/>
      <point x="504.0" y="1196.0"/>
      <point x="516.0" y="1272.0" type="curve" smooth="yes"/>
      <point x="528.0" y="1352.0"/>
      <point x="608.0" y="1424.0"/>
      <point x="768.0" y="1424.0" type="curve"/>
      <point x="968.0" y="1424.0" type="line"/>
    </contour>
  </outline>
</glyph>
<glyph name="logicalnot" format="2">
  <advance width="1520.0"/>
  <unicode hex="00AC"/>
  <outline>
    <contour>
      <point x="1392.0" y="1108.0" type="line"/>
      <point x="244.0" y="1108.0" type="line"/>
      <point x="204.0" y="872.0" type="line"/>
      <point x="1352.0" y="872.0" type="line"/>
    </contour>
    <contour>
      <point x="1376.0" y="1000.0" type="line"/>
      <point x="1100.0" y="1000.0" type="line"/>
      <point x="1020.0" y="516.0" type="line"/>
      <point x="1296.0" y="516.0" type="line"/>
    </contour>
  </outline>
</glyph>
<glyph name="registered" format="2">
  <advance width="2288.0"/>
  <unicode hex="00AE"/>
  <outline>
    <contour>
      <point x="1200.0" y="900.0" type="line"/>
      <point x="1252.0" y="900.0"/>
      <point x="1228.0" y="900.0"/>
      <point x="1284.0" y="928.0" type="curve" smooth="yes"/>
      <point x="1272.0" y="924.0"/>
      <point x="1312.0" y="952.0"/>
      <point x="1300.0" y="948.0" type="curve" smooth="yes"/>
      <point x="1508.0" y="1000.0"/>
      <point x="1628.0" y="1100.0"/>
      <point x="1652.0" y="1252.0" type="curve"/>
      <point x="1692.0" y="1488.0"/>
      <point x="1540.0" y="1604.0"/>
      <point x="1268.0" y="1604.0" type="curve"/>
      <point x="880.0" y="1604.0" type="line"/>
      <point x="684.0" y="436.0" type="line"/>
      <point x="892.0" y="436.0" type="line"/>
      <point x="1056.0" y="1420.0" type="line"/>
      <point x="1236.0" y="1420.0" type="line"/>
      <point x="1412.0" y="1420.0"/>
      <point x="1468.0" y="1376.0"/>
      <point x="1448.0" y="1244.0" type="curve"/>
      <point x="1428.0" y="1140.0"/>
      <point x="1320.0" y="1084.0"/>
      <point x="1208.0" y="1084.0" type="curve"/>
      <point x="932.0" y="1084.0" type="line"/>
      <point x="904.0" y="900.0" type="line"/>
    </contour>
    <contour>
      <point x="1184.0" y="900.0" type="line"/>
      <point x="1328.0" y="900.0"/>
      <point x="1372.0" y="836.0"/>
      <point x="1352.0" y="708.0" type="curve"/>
      <point x="1336.0" y="632.0" type="line"/>
      <point x="1332.0" y="592.0"/>
      <point x="1312.0" y="480.0"/>
      <point x="1324.0" y="436.0" type="curve"/>
      <point x="1536.0" y="436.0" type="line"/>
      <point x="1540.0" y="456.0" type="line"/>
      <point x="1532.0" y="500.0"/>
      <point x="1536.0" y="564.0"/>
      <point x="1544.0" y="632.0" type="curve"/>
      <point x="1560.0" y="708.0" type="line"/>
      <point x="1588.0" y="892.0"/>
      <point x="1524.0" y="1028.0"/>
      <point x="1236.0" y="1028.0" type="curve"/>
    </contour>
    <contour>
      <point x="376.0" y="1004.0" type="curve" smooth="yes"/>
      <point x="456.0" y="1488.0"/>
      <point x="880.0" y="1860.0"/>
      <point x="1324.0" y="1860.0" type="curve" smooth="yes"/>
      <point x="1772.0" y="1860.0"/>
      <point x="2072.0" y="1488.0"/>
      <point x="1992.0" y="1004.0" type="curve" smooth="yes"/>
      <point x="1912.0" y="516.0"/>
      <point x="1488.0" y="144.0"/>
      <point x="1040.0" y="144.0" type="curve" smooth="yes"/>
      <point x="596.0" y="144.0"/>
      <point x="296.0" y="516.0"/>
    </contour>
    <contour>
      <point x="208.0" y="1004.0" type="curve" smooth="yes"/>
      <point x="112.0" y="420.0"/>
      <point x="476.0" y="-28.0"/>
      <point x="1012.0" y="-28.0" type="curve" smooth="yes"/>
      <point x="1552.0" y="-28.0"/>
      <point x="2064.0" y="420.0"/>
      <point x="2160.0" y="1004.0" type="curve" smooth="yes"/>
      <point x="2256.0" y="1584.0"/>
      <point x="1892.0" y="2032.0"/>
      <point x="1352.0" y="2032.0" type="curve" smooth="yes"/>
      <point x="816.0" y="2032.0"/>
      <point x="304.0" y="1584.0"/>
    </contour>
  </outline>
</glyph>
<glyph name="macron" format="2">
  <advance width="1264.0"/>
  <unicode hex="00AF"/>
  <outline>
    <contour>
      <point x="1312.0" y="2048.0" type="line"/>
      <point x="376.0" y="2048.0" type="line"/>
      <point x="344.0" y="1848.0" type="line"/>
      <point x="1280.0" y="1848.0" type="line"/>
    </contour>
  </outline>
</glyph>
<glyph name="degree" format="2">
  <advance width="1280.0"/>
  <unicode hex="00B0"/>
  <outline>
    <contour>
      <point x="700.0" y="1144.0" type="curve" smooth="yes"/>
      <point x="952.0" y="1144.0"/>
      <point x="1192.0" y="1352.0"/>
      <point x="1236.0" y="1604.0" type="curve" smooth="yes"/>
      <point x="1281.0" y="1859.0"/>
      <point x="1104.0" y="2064.0"/>
      <point x="852.0" y="2064.0" type="curve" smooth="yes"/>
      <point x="596.0" y="2064.0"/>
      <point x="355.0" y="1860.0"/>
      <point x="316.0" y="1604.0" type="curve" smooth="yes"/>
      <point x="277.0" y="1351.0"/>
      <point x="444.0" y="1144.0"/>
    </contour>
    <contour>
      <point x="732.0" y="1344.0" type="curve" smooth="yes"/>
      <point x="588.0" y="1344.0"/>
      <point x="492.0" y="1460.0"/>
      <point x="516.0" y="1604.0" type="curve" smooth="yes"/>
      <point x="540.0" y="1748.0"/>
      <point x="676.0" y="1864.0"/>
      <point x="820.0" y="1864.0" type="curve" smooth="yes"/>
      <point x="964.0" y="1864.0"/>
      <point x="1060.0" y="1748.0"/>
      <point x="1036.0" y="1604.0" type="curve" smooth="yes"/>
      <point x="1012.0" y="1460.0"/>
      <point x="876.0" y="1344.0"/>
    </contour>
  </outline>
</glyph>
<glyph name="plusminus" format="2">
  <advance width="1808.0"/>
  <unicode hex="00B1"/>
  <outline>
    <contour>
      <point x="136.0" y="0.0" type="line"/>
      <point x="1416.0" y="0.0" type="line"/>
      <point x="1452.0" y="224.0" type="line"/>
      <point x="172.0" y="224.0" type="line"/>
    </contour>
    <contour>
      <point x="280.0" y="864.0" type="line"/>
      <point x="1560.0" y="864.0" type="line"/>
      <point x="1596.0" y="1088.0" type="line"/>
      <point x="316.0" y="1088.0" type="line"/>
    </contour>
    <contour>
      <point x="732.0" y="416.0" type="line"/>
      <point x="956.0" y="416.0" type="line"/>
      <point x="1144.0" y="1536.0" type="line"/>
      <point x="920.0" y="1536.0" type="line"/>
    </contour>
  </outline>
</glyph>
<glyph name="two.sups" format="2">
  <advance width="1180.0"/>
  <unicode hex="00B2"/>
  <outline>
    <contour>
      <point x="180.0" y="1024.0" type="line"/>
      <point x="1104.0" y="1024.0" type="line"/>
      <point x="1132.0" y="1200.0" type="line"/>
      <point x="520.0" y="1200.0" type="line"/>
      <point x="520.0" y="1208.0" type="line"/>
      <point x="824.0" y="1436.0" type="line" smooth="yes"/>
      <point x="1088.0" y="1636.0"/>
      <point x="1184.0" y="1744.0"/>
      <point x="1208.0" y="1896.0" type="curve" smooth="yes"/>
      <point x="1240.0" y="2104.0"/>
      <point x="1096.0" y="2268.0"/>
      <point x="824.0" y="2268.0" type="curve" smooth="yes"/>
      <point x="556.0" y="2268.0"/>
      <point x="352.0" y="2108.0"/>
      <point x="316.0" y="1888.0" type="curve"/>
      <point x="528.0" y="1888.0" type="line"/>
      <point x="548.0" y="2016.0"/>
      <point x="668.0" y="2096.0"/>
      <point x="804.0" y="2096.0" type="curve" smooth="yes"/>
      <point x="944.0" y="2096.0"/>
      <point x="1032.0" y="2020.0"/>
      <point x="1012.0" y="1900.0" type="curve" smooth="yes"/>
      <point x="996.0" y="1800.0"/>
      <point x="912.0" y="1724.0"/>
      <point x="744.0" y="1596.0" type="curve" smooth="yes"/>
      <point x="204.0" y="1180.0" type="line"/>
    </contour>
  </outline>
</glyph>
<glyph name="three.sups" format="2">
  <advance width="1208.0"/>
  <unicode hex="00B3"/>
  <outline>
    <contour>
      <point x="652.0" y="1008.0" type="curve" smooth="yes"/>
      <point x="928.0" y="1008.0"/>
      <point x="1156.0" y="1144.0"/>
      <point x="1192.0" y="1356.0" type="curve" smooth="yes"/>
      <point x="1216.0" y="1512.0"/>
      <point x="1116.0" y="1628.0"/>
      <point x="936.0" y="1656.0" type="curve"/>
      <point x="936.0" y="1664.0" type="line"/>
      <point x="1104.0" y="1692.0"/>
      <point x="1212.0" y="1772.0"/>
      <point x="1236.0" y="1916.0" type="curve" smooth="yes"/>
      <point x="1268.0" y="2112.0"/>
      <point x="1120.0" y="2268.0"/>
      <point x="844.0" y="2268.0" type="curve" smooth="yes"/>
      <point x="600.0" y="2268.0"/>
      <point x="380.0" y="2128.0"/>
      <point x="340.0" y="1912.0" type="curve"/>
      <point x="548.0" y="1912.0" type="line"/>
      <point x="568.0" y="2024.0"/>
      <point x="708.0" y="2096.0"/>
      <point x="840.0" y="2096.0" type="curve" smooth="yes"/>
      <point x="988.0" y="2096.0"/>
      <point x="1048.0" y="2028.0"/>
      <point x="1028.0" y="1916.0" type="curve" smooth="yes"/>
      <point x="1012.0" y="1820.0"/>
      <point x="888.0" y="1732.0"/>
      <point x="732.0" y="1732.0" type="curve" smooth="yes"/>
      <point x="636.0" y="1732.0" type="line"/>
      <point x="612.0" y="1572.0" type="line"/>
      <point x="712.0" y="1572.0" type="line" smooth="yes"/>
      <point x="892.0" y="1572.0"/>
      <point x="992.0" y="1504.0"/>
      <point x="972.0" y="1388.0" type="curve" smooth="yes"/>
      <point x="952.0" y="1276.0"/>
      <point x="820.0" y="1188.0"/>
      <point x="660.0" y="1188.0" type="curve" smooth="yes"/>
      <point x="516.0" y="1188.0"/>
      <point x="420.0" y="1260.0"/>
      <point x="436.0" y="1368.0" type="curve"/>
      <point x="220.0" y="1368.0" type="line"/>
      <point x="188.0" y="1156.0"/>
      <point x="368.0" y="1008.0"/>
    </contour>
  </outline>
</glyph>
<glyph name="acute" format="2">
  <advance width="768.0"/>
  <unicode hex="00B4"/>
  <outline>
    <contour>
      <point x="344.0" y="1704.0" type="line"/>
      <point x="520.0" y="1704.0" type="line"/>
      <point x="896.0" y="2112.0" type="line"/>
      <point x="652.0" y="2112.0" type="line"/>
    </contour>
  </outline>
</glyph>
<glyph name="micro" format="2">
  <advance width="1752.0"/>
  <unicode hex="00B5"/>
  <guideline x="1240.0" y="692.0" angle="0.0"/>
  <guideline x="916.0" y="304.0" angle="0.0"/>
  <guideline x="900.0" y="400.0" angle="0.0"/>
  <outline>
    <contour>
      <point x="-8.0" y="-576.0" type="line"/>
      <point x="228.0" y="-576.0" type="line"/>
      <point x="364.0" y="228.0" type="line"/>
      <point x="376.0" y="228.0" type="line"/>
      <point x="432.0" y="68.0"/>
      <point x="576.0" y="-20.0"/>
      <point x="744.0" y="-20.0" type="curve" smooth="yes"/>
      <point x="916.0" y="-20.0"/>
      <point x="1088.0" y="68.0"/>
      <point x="1200.0" y="228.0" type="curve"/>
      <point x="1212.0" y="228.0" type="line"/>
      <point x="1172.0" y="0.0" type="line"/>
      <point x="1408.0" y="0.0" type="line"/>
      <point x="1664.0" y="1536.0" type="line"/>
      <point x="1428.0" y="1536.0" type="line"/>
      <point x="1276.0" y="628.0" type="line" smooth="yes"/>
      <point x="1236.0" y="380.0"/>
      <point x="1040.0" y="208.0"/>
      <point x="784.0" y="208.0" type="curve" smooth="yes"/>
      <point x="528.0" y="208.0"/>
      <point x="388.0" y="380.0"/>
      <point x="428.0" y="628.0" type="curve" smooth="yes"/>
      <point x="580.0" y="1536.0" type="line"/>
      <point x="344.0" y="1536.0" type="line"/>
    </contour>
  </outline>
</glyph>
<glyph name="paragraph" format="2">
  <advance width="1688.0"/>
  <unicode hex="00B6"/>
  <note>
aka PILCROW SIGN
</note>
  <outline>
    <contour>
      <point x="1616.0" y="1828.0" type="line"/>
      <point x="1652.0" y="2048.0" type="line"/>
      <point x="1040.0" y="2048.0" type="line" smooth="yes"/>
      <point x="604.0" y="2048.0"/>
      <point x="320.0" y="1772.0"/>
      <point x="256.0" y="1404.0" type="curve" smooth="yes"/>
      <point x="196.0" y="1032.0"/>
      <point x="392.0" y="760.0"/>
      <point x="828.0" y="760.0" type="curve" smooth="yes"/>
      <point x="944.0" y="760.0" type="line"/>
      <point x="1120.0" y="1828.0" type="line"/>
    </contour>
    <contour>
      <point x="1064.0" y="0.0" type="line"/>
      <point x="1312.0" y="0.0" type="line"/>
      <point x="1652.0" y="2048.0" type="line"/>
      <point x="1404.0" y="2048.0" type="line"/>
    </contour>
  </outline>
</glyph>
<glyph name="cedilla" format="2">
  <advance width="752.0"/>
  <unicode hex="00B8"/>
  <outline>
    <contour>
      <point x="156.0" y="8.0" type="line"/>
      <point x="80.0" y="-188.0" type="line"/>
      <point x="232.0" y="-200.0"/>
      <point x="292.0" y="-224.0"/>
      <point x="276.0" y="-316.0" type="curve" smooth="yes"/>
      <point x="260.0" y="-408.0"/>
      <point x="164.0" y="-444.0"/>
      <point x="40.0" y="-444.0" type="curve"/>
      <point x="20.0" y="-600.0" type="line"/>
      <point x="296.0" y="-600.0"/>
      <point x="460.0" y="-480.0"/>
      <point x="488.0" y="-308.0" type="curve" smooth="yes"/>
      <point x="516.0" y="-152.0"/>
      <point x="424.0" y="-88.0"/>
      <point x="320.0" y="-72.0" type="curve"/>
      <point x="352.0" y="8.0" type="line"/>
    </contour>
  </outline>
</glyph>
<glyph name="one.sups" format="2">
  <advance width="848.0"/>
  <unicode hex="00B9"/>
  <outline>
    <contour>
      <point x="860.0" y="2252.0" type="line"/>
      <point x="652.0" y="2252.0" type="line"/>
      <point x="636.0" y="2184.0"/>
      <point x="496.0" y="2052.0"/>
      <point x="320.0" y="2048.0" type="curve"/>
      <point x="296.0" y="1876.0" type="line"/>
      <point x="448.0" y="1876.0"/>
      <point x="560.0" y="1944.0"/>
      <point x="592.0" y="1980.0" type="curve"/>
      <point x="604.0" y="1980.0" type="line"/>
      <point x="444.0" y="1024.0" type="line"/>
      <point x="656.0" y="1024.0" type="line"/>
    </contour>
  </outline>
</glyph>
<glyph name="ordmasculine" format="2">
  <advance width="1264.0"/>
  <unicode hex="00BA"/>
  <outline>
    <contour>
      <point x="268.0" y="1436.0" type="line"/>
      <point x="220.0" y="1152.0"/>
      <point x="372.0" y="952.0"/>
      <point x="668.0" y="952.0" type="curve" smooth="yes"/>
      <point x="960.0" y="952.0"/>
      <point x="1172.0" y="1152.0"/>
      <point x="1220.0" y="1436.0" type="curve"/>
      <point x="1236.0" y="1544.0" type="line"/>
      <point x="1284.0" y="1828.0"/>
      <point x="1136.0" y="2032.0"/>
      <point x="840.0" y="2032.0" type="curve" smooth="yes"/>
      <point x="548.0" y="2032.0"/>
      <point x="332.0" y="1828.0"/>
      <point x="284.0" y="1544.0" type="curve"/>
    </contour>
    <contour>
      <point x="524.0" y="1544.0" type="line"/>
      <point x="552.0" y="1704.0"/>
      <point x="652.0" y="1828.0"/>
      <point x="808.0" y="1828.0" type="curve" smooth="yes"/>
      <point x="968.0" y="1828.0"/>
      <point x="1024.0" y="1704.0"/>
      <point x="996.0" y="1544.0" type="curve"/>
      <point x="980.0" y="1436.0" type="line"/>
      <point x="952.0" y="1272.0"/>
      <point x="856.0" y="1152.0"/>
      <point x="700.0" y="1152.0" type="curve" smooth="yes"/>
      <point x="540.0" y="1152.0"/>
      <point x="480.0" y="1272.0"/>
      <point x="508.0" y="1436.0" type="curve"/>
    </contour>
  </outline>
</glyph>
<glyph name="AE" format="2">
  <advance width="2848.0"/>
  <unicode hex="00C6"/>
  <outline>
    <contour>
      <point x="1604.0" y="1860.0" type="line"/>
      <point x="1660.0" y="2048.0" type="line"/>
      <point x="1484.0" y="2048.0" type="line"/>
      <point x="-68.0" y="0.0" type="line"/>
      <point x="228.0" y="0.0" type="line"/>
    </contour>
    <contour>
      <point x="1640.0" y="768.0" type="line"/>
      <point x="604.0" y="768.0" type="line"/>
      <point x="568.0" y="552.0" type="line"/>
      <point x="1604.0" y="552.0" type="line"/>
    </contour>
    <contour>
      <point x="2600.0" y="220.0" type="line"/>
      <point x="1592.0" y="220.0" type="line"/>
      <point x="1556.0" y="0.0" type="line"/>
      <point x="2564.0" y="0.0" type="line"/>
    </contour>
    <contour>
      <point x="1860.0" y="2048.0" type="line"/>
      <point x="1616.0" y="2048.0" type="line"/>
      <point x="1360.0" y="0.0" type="line"/>
      <point x="1604.0" y="0.0" type="line"/>
    </contour>
    <contour>
      <point x="2560.0" y="1152.0" type="line"/>
      <point x="1692.0" y="1152.0" type="line"/>
      <point x="1656.0" y="932.0" type="line"/>
      <point x="2524.0" y="932.0" type="line"/>
    </contour>
    <contour>
      <point x="2820.0" y="2048.0" type="line"/>
      <point x="1812.0" y="2048.0" type="line"/>
      <point x="1776.0" y="1828.0" type="line"/>
      <point x="2784.0" y="1828.0" type="line"/>
    </contour>
  </outline>
</glyph>
<glyph name="multiply" format="2">
  <advance width="1808.0"/>
  <unicode hex="00D7"/>
  <outline>
    <contour>
      <point x="372.0" y="280.0" type="line"/>
      <point x="1624.0" y="1372.0" type="line"/>
      <point x="1496.0" y="1528.0" type="line"/>
      <point x="244.0" y="436.0" type="line"/>
    </contour>
    <contour>
      <point x="1276.0" y="280.0" type="line"/>
      <point x="1452.0" y="436.0" type="line"/>
      <point x="560.0" y="1528.0" type="line"/>
      <point x="384.0" y="1372.0" type="line"/>
    </contour>
  </outline>
</glyph>
<glyph name="Oslash" format="2">
  <advance width="2148.0"/>
  <unicode hex="00D8"/>
  <guideline x="396.0" y="-96.0" angle="145.6539"/>
  <guideline x="1016.0" y="1852.0" angle="90.0"/>
  <guideline x="1016.0" y="1024.0" angle="56.0077"/>
  <outline>
    <contour>
      <point x="480.0" y="-84.0" type="line"/>
      <point x="1904.0" y="2024.0" type="line"/>
      <point x="1752.0" y="2128.0" type="line"/>
      <point x="328.0" y="20.0" type="line"/>
    </contour>
    <component base="O" yOffset="-4.0"/>
  </outline>
</glyph>
<glyph name="Thorn" format="2">
  <advance width="1776.0"/>
  <unicode hex="00DE"/>
  <outline>
    <contour>
      <point x="444.0" y="2048.0" type="line"/>
      <point x="104.0" y="0.0" type="line"/>
      <point x="352.0" y="0.0" type="line"/>
      <point x="692.0" y="2048.0" type="line"/>
    </contour>
    <contour>
      <point x="488.0" y="1624.0" type="line"/>
      <point x="452.0" y="1404.0" type="line"/>
      <point x="980.0" y="1404.0" type="line" smooth="yes"/>
      <point x="1264.0" y="1404.0"/>
      <point x="1400.0" y="1264.0"/>
      <point x="1360.0" y="1032.0" type="curve" smooth="yes"/>
      <point x="1320.0" y="800.0"/>
      <point x="1144.0" y="668.0"/>
      <point x="860.0" y="668.0" type="curve" smooth="yes"/>
      <point x="332.0" y="668.0" type="line"/>
      <point x="296.0" y="448.0" type="line"/>
      <point x="824.0" y="448.0" type="line" smooth="yes"/>
      <point x="1260.0" y="448.0"/>
      <point x="1544.0" y="712.0"/>
      <point x="1596.0" y="1036.0" type="curve" smooth="yes"/>
      <point x="1652.0" y="1360.0"/>
      <point x="1452.0" y="1624.0"/>
      <point x="1016.0" y="1624.0" type="curve" smooth="yes"/>
    </contour>
  </outline>
</glyph>
<glyph name="germandbls" format="2">
  <advance width="1664.0"/>
  <unicode hex="00DF"/>
  <outline>
    <contour>
      <point x="576.0" y="1524.0" type="line"/>
      <point x="624.0" y="1796.0"/>
      <point x="732.0" y="1924.0"/>
      <point x="924.0" y="1924.0" type="curve" smooth="yes"/>
      <point x="1072.0" y="1924.0"/>
      <point x="1204.0" y="1848.0"/>
      <point x="1172.0" y="1668.0" type="curve" smooth="yes"/>
      <point x="1136.0" y="1456.0"/>
      <point x="920.0" y="1356.0"/>
      <point x="884.0" y="1128.0" type="curve" smooth="yes"/>
      <point x="824.0" y="772.0"/>
      <point x="1304.0" y="728.0"/>
      <point x="1256.0" y="432.0" type="curve" smooth="yes"/>
      <point x="1236.0" y="308.0"/>
      <point x="1124.0" y="180.0"/>
      <point x="888.0" y="180.0" type="curve" smooth="yes"/>
      <point x="764.0" y="180.0"/>
      <point x="652.0" y="244.0"/>
      <point x="600.0" y="280.0" type="curve"/>
      <point x="472.0" y="84.0" type="line"/>
      <point x="540.0" y="28.0"/>
      <point x="692.0" y="-28.0"/>
      <point x="880.0" y="-28.0" type="curve" smooth="yes"/>
      <point x="1196.0" y="-28.0"/>
      <point x="1436.0" y="120.0"/>
      <point x="1488.0" y="440.0" type="curve" smooth="yes"/>
      <point x="1560.0" y="856.0"/>
      <point x="1076.0" y="852.0"/>
      <point x="1124.0" y="1128.0" type="curve" smooth="yes"/>
      <point x="1152.0" y="1300.0"/>
      <point x="1352.0" y="1388.0"/>
      <point x="1396.0" y="1668.0" type="curve" smooth="yes"/>
      <point x="1456.0" y="2016.0"/>
      <point x="1200.0" y="2140.0"/>
      <point x="960.0" y="2140.0" type="curve" smooth="yes"/>
      <point x="652.0" y="2140.0"/>
      <point x="408.0" y="1932.0"/>
      <point x="340.0" y="1524.0" type="curve" smooth="yes"/>
      <point x="88.0" y="0.0" type="line"/>
      <point x="324.0" y="0.0" type="line"/>
    </contour>
  </outline>
</glyph>
<glyph name="ae" format="2">
  <advance width="2604.0"/>
  <unicode hex="00E6"/>
  <guideline x="1392.0" y="888.0" angle="0.0"/>
  <outline>
    <contour>
      <point x="1704.0" y="-32.0" type="curve"/>
      <point x="2034.0" y="-32.0"/>
      <point x="2312.0" y="140.0"/>
      <point x="2384.0" y="396.0" type="curve"/>
      <point x="2156.0" y="404.0" type="line"/>
      <point x="2088.0" y="272.0"/>
      <point x="1944.0" y="179.0"/>
      <point x="1740.0" y="180.0" type="curve" smooth="yes"/>
      <point x="1466.0" y="181.0"/>
      <point x="1308.0" y="351.0"/>
      <point x="1332.0" y="672.0" type="curve"/>
      <point x="1344.0" y="768.0" type="line"/>
      <point x="1404.0" y="1132.0"/>
      <point x="1628.0" y="1344.0"/>
      <point x="1896.0" y="1344.0" type="curve"/>
      <point x="2152.0" y="1344.0"/>
      <point x="2284.0" y="1152.0"/>
      <point x="2240.0" y="892.0" type="curve"/>
      <point x="1284.0" y="820.0" type="line"/>
      <point x="1252.0" y="616.0" type="line"/>
      <point x="2452.0" y="708.0" type="line"/>
      <point x="2464.0" y="788.0" type="line" smooth="yes"/>
      <point x="2560.0" y="1360.0"/>
      <point x="2252.0" y="1556.0"/>
      <point x="1932.0" y="1556.0" type="curve" smooth="yes"/>
      <point x="1660.0" y="1556.0"/>
      <point x="1444.0" y="1416.0"/>
      <point x="1304.0" y="1184.0" type="curve"/>
      <point x="1140.0" y="452.0" type="line"/>
      <point x="1172.0" y="152.0"/>
      <point x="1364.0" y="-32.0"/>
    </contour>
    <contour>
      <point x="604.0" y="176.0" type="curve" smooth="yes"/>
      <point x="416.0" y="176.0"/>
      <point x="296.0" y="260.0"/>
      <point x="324.0" y="424.0" type="curve" smooth="yes"/>
      <point x="352.0" y="604.0"/>
      <point x="528.0" y="660.0"/>
      <point x="716.0" y="684.0" type="curve" smooth="yes"/>
      <point x="816.0" y="696.0"/>
      <point x="1088.0" y="724.0"/>
      <point x="1136.0" y="772.0" type="curve"/>
      <point x="1100.0" y="556.0" type="line" smooth="yes"/>
      <point x="1068.0" y="364.0"/>
      <point x="884.0" y="176.0"/>
    </contour>
    <contour>
      <point x="536.0" y="-36.0" type="curve" smooth="yes"/>
      <point x="896.0" y="-36.0"/>
      <point x="1120.0" y="220.0"/>
      <point x="1156.0" y="328.0" type="curve"/>
      <point x="1168.0" y="328.0" type="line"/>
      <point x="1388.0" y="1272.0" type="line"/>
      <point x="1360.0" y="1428.0"/>
      <point x="1216.0" y="1556.0"/>
      <point x="936.0" y="1556.0" type="curve" smooth="yes"/>
      <point x="704.0" y="1556.0"/>
      <point x="424.0" y="1476.0"/>
      <point x="260.0" y="1196.0" type="curve"/>
      <point x="468.0" y="1116.0" type="line"/>
      <point x="540.0" y="1228.0"/>
      <point x="684.0" y="1348.0"/>
      <point x="912.0" y="1348.0" type="curve" smooth="yes"/>
      <point x="1126.0" y="1348.0"/>
      <point x="1215.0" y="1240.0"/>
      <point x="1176.0" y="1008.0" type="curve"/>
      <point x="1160.0" y="912.0"/>
      <point x="992.0" y="916.0"/>
      <point x="760.0" y="888.0" type="curve" smooth="yes"/>
      <point x="464.0" y="852.0"/>
      <point x="148.0" y="784.0"/>
      <point x="88.0" y="436.0" type="curve" smooth="yes"/>
      <point x="40.0" y="136.0"/>
      <point x="244.0" y="-36.0"/>
    </contour>
  </outline>
</glyph>
<glyph name="eth" format="2">
  <advance width="1632.0"/>
  <unicode hex="00F0"/>
  <outline>
    <contour>
      <point x="1524.0" y="1948.0" type="line"/>
      <point x="1480.0" y="2096.0" type="line"/>
      <point x="596.0" y="1700.0" type="line"/>
      <point x="636.0" y="1552.0" type="line"/>
    </contour>
    <contour>
      <point x="684.0" y="-32.0" type="curve" smooth="yes"/>
      <point x="1088.0" y="-32.0"/>
      <point x="1404.0" y="256.0"/>
      <point x="1484.0" y="752.0" type="curve" smooth="yes"/>
      <point x="1600.0" y="1452.0"/>
      <point x="1204.0" y="1944.0"/>
      <point x="792.0" y="2176.0" type="curve"/>
      <point x="660.0" y="2008.0" type="line"/>
      <point x="1096.0" y="1764.0"/>
      <point x="1240.0" y="1428.0"/>
      <point x="1288.0" y="1180.0" type="curve"/>
      <point x="1268.0" y="1180.0" type="line"/>
      <point x="1220.0" y="1300.0"/>
      <point x="1100.0" y="1440.0"/>
      <point x="868.0" y="1440.0" type="curve" smooth="yes"/>
      <point x="528.0" y="1440.0"/>
      <point x="204.0" y="1140.0"/>
      <point x="132.0" y="704.0" type="curve" smooth="yes"/>
      <point x="64.0" y="276.0"/>
      <point x="272.0" y="-32.0"/>
    </contour>
    <contour>
      <point x="720.0" y="180.0" type="curve" smooth="yes"/>
      <point x="412.0" y="180.0"/>
      <point x="324.0" y="432.0"/>
      <point x="368.0" y="704.0" type="curve" smooth="yes"/>
      <point x="416.0" y="992.0"/>
      <point x="604.0" y="1244.0"/>
      <point x="896.0" y="1244.0" type="curve" smooth="yes"/>
      <point x="1212.0" y="1244.0"/>
      <point x="1288.0" y="948.0"/>
      <point x="1248.0" y="688.0" type="curve" smooth="yes"/>
      <point x="1200.0" y="404.0"/>
      <point x="1012.0" y="180.0"/>
    </contour>
  </outline>
</glyph>
<glyph name="divide" format="2">
  <advance width="1808.0"/>
  <unicode hex="00F7"/>
  <outline>
    <contour>
      <point x="1584.0" y="1008.0" type="line"/>
      <point x="304.0" y="1008.0" type="line"/>
      <point x="268.0" y="788.0" type="line"/>
      <point x="1548.0" y="788.0" type="line"/>
    </contour>
    <contour>
      <point x="840.0" y="1408.0" type="curve" smooth="yes"/>
      <point x="828.0" y="1320.0"/>
      <point x="872.0" y="1252.0"/>
      <point x="984.0" y="1252.0" type="curve" smooth="yes"/>
      <point x="1092.0" y="1252.0"/>
      <point x="1164.0" y="1320.0"/>
      <point x="1176.0" y="1408.0" type="curve" smooth="yes"/>
      <point x="1192.0" y="1500.0"/>
      <point x="1144.0" y="1568.0"/>
      <point x="1036.0" y="1568.0" type="curve" smooth="yes"/>
      <point x="924.0" y="1568.0"/>
      <point x="856.0" y="1500.0"/>
    </contour>
    <contour>
      <point x="672.0" y="380.0" type="curve" smooth="yes"/>
      <point x="656.0" y="292.0"/>
      <point x="700.0" y="224.0"/>
      <point x="812.0" y="224.0" type="curve" smooth="yes"/>
      <point x="920.0" y="224.0"/>
      <point x="992.0" y="292.0"/>
      <point x="1008.0" y="380.0" type="curve" smooth="yes"/>
      <point x="1024.0" y="472.0"/>
      <point x="976.0" y="544.0"/>
      <point x="868.0" y="544.0" type="curve" smooth="yes"/>
      <point x="756.0" y="544.0"/>
      <point x="688.0" y="472.0"/>
    </contour>
  </outline>
</glyph>
<glyph name="oslash" format="2">
  <advance width="1680.0"/>
  <unicode hex="00F8"/>
  <guideline x="1064.0" y="1232.0" angle="90.0"/>
  <guideline x="832.0" y="768.0" angle="55.9902"/>
  <guideline x="1340.0" y="1556.0" angle="0.0"/>
  <guideline x="644.0" y="-32.0" angle="0.0"/>
  <outline>
    <contour>
      <point x="240.0" y="-84.0" type="line"/>
      <point x="1572.0" y="1504.0" type="line"/>
      <point x="1440.0" y="1608.0" type="line"/>
      <point x="104.0" y="20.0" type="line"/>
    </contour>
    <contour>
      <point x="708.0" y="-32.0" type="curve" smooth="yes"/>
      <point x="1124.0" y="-32.0"/>
      <point x="1456.0" y="284.0"/>
      <point x="1536.0" y="760.0" type="curve" smooth="yes"/>
      <point x="1616.0" y="1240.0"/>
      <point x="1388.0" y="1556.0"/>
      <point x="972.0" y="1556.0" type="curve" smooth="yes"/>
      <point x="556.0" y="1556.0"/>
      <point x="224.0" y="1240.0"/>
      <point x="144.0" y="760.0" type="curve" smooth="yes"/>
      <point x="64.0" y="284.0"/>
      <point x="292.0" y="-32.0"/>
    </contour>
    <contour>
      <point x="744.0" y="180.0" type="curve" smooth="yes"/>
      <point x="428.0" y="180.0"/>
      <point x="328.0" y="452.0"/>
      <point x="380.0" y="760.0" type="curve" smooth="yes"/>
      <point x="428.0" y="1068.0"/>
      <point x="620.0" y="1344.0"/>
      <point x="936.0" y="1344.0" type="curve" smooth="yes"/>
      <point x="1252.0" y="1344.0"/>
      <point x="1348.0" y="1068.0"/>
      <point x="1300.0" y="760.0" type="curve" smooth="yes"/>
      <point x="1248.0" y="452.0"/>
      <point x="1060.0" y="180.0"/>
    </contour>
  </outline>
</glyph>
<glyph name="thorn" format="2">
  <advance width="1716.0"/>
  <unicode hex="00FE"/>
  <outline>
    <contour>
      <point x="428.0" y="2048.0" type="line"/>
      <point x="-8.0" y="-576.0" type="line"/>
      <point x="228.0" y="-576.0" type="line"/>
      <point x="372.0" y="288.0" type="line"/>
      <point x="396.0" y="784.0" type="line"/>
      <point x="520.0" y="1172.0" type="line"/>
      <point x="664.0" y="2048.0" type="line"/>
    </contour>
    <contour>
      <point x="444.0" y="1292.0" type="line"/>
      <point x="268.0" y="236.0" type="line"/>
      <point x="384.0" y="236.0" type="line"/>
      <point x="424.0" y="152.0"/>
      <point x="492.0" y="-32.0"/>
      <point x="788.0" y="-32.0" type="curve" smooth="yes"/>
      <point x="1172.0" y="-32.0"/>
      <point x="1492.0" y="276.0"/>
      <point x="1572.0" y="764.0" type="curve" smooth="yes"/>
      <point x="1652.0" y="1248.0"/>
      <point x="1436.0" y="1556.0"/>
      <point x="1048.0" y="1556.0" type="curve" smooth="yes"/>
      <point x="748.0" y="1556.0"/>
      <point x="624.0" y="1372.0"/>
      <point x="560.0" y="1292.0" type="curve"/>
    </contour>
    <contour>
      <point x="1336.0" y="768.0" type="curve" smooth="yes"/>
      <point x="1280.0" y="440.0"/>
      <point x="1088.0" y="180.0"/>
      <point x="792.0" y="180.0" type="curve" smooth="yes"/>
      <point x="508.0" y="180.0"/>
      <point x="392.0" y="420.0"/>
      <point x="448.0" y="768.0" type="curve" smooth="yes"/>
      <point x="504.0" y="1112.0"/>
      <point x="696.0" y="1344.0"/>
      <point x="984.0" y="1344.0" type="curve" smooth="yes"/>
      <point x="1284.0" y="1344.0"/>
      <point x="1388.0" y="1092.0"/>
    </contour>
  </outline>
</glyph>
<glyph name="Hbar" format="2">
  <advance width="2188.0"/>
  <unicode hex="0126"/>
  <guideline x="972.0" y="2068.0" angle="90.0"/>
  <outline>
    <contour>
      <point x="2192.0" y="1616.0" type="line"/>
      <point x="276.0" y="1616.0" type="line"/>
      <point x="244.0" y="1408.0" type="line"/>
      <point x="2160.0" y="1408.0" type="line"/>
    </contour>
    <component base="H" xOffset="52.0"/>
  </outline>
</glyph>
<glyph name="idotless" format="2">
  <advance width="668.0"/>
  <unicode hex="0131"/>
  <guideline x="756.0" y="1612.0" angle="90.0"/>
  <outline>
    <contour>
      <point x="88.0" y="0.0" type="line"/>
      <point x="324.0" y="0.0" type="line"/>
      <point x="580.0" y="1536.0" type="line"/>
      <point x="344.0" y="1536.0" type="line"/>
    </contour>
  </outline>
</glyph>
<glyph name="kgreenlandic" format="2">
  <advance width="1776.0"/>
  <unicode hex="0138"/>
  <outline>
    <contour>
      <point x="636.0" y="1488.0" type="line"/>
      <point x="360.0" y="1488.0" type="line"/>
      <point x="112.0" y="0.0" type="line"/>
      <point x="388.0" y="0.0" type="line"/>
    </contour>
    <contour>
      <point x="1612.0" y="1488.0" type="line"/>
      <point x="1280.0" y="1488.0" type="line"/>
      <point x="644.0" y="864.0" type="line"/>
      <point x="396.0" y="864.0" type="line"/>
      <point x="400.0" y="628.0" type="line"/>
      <point x="728.0" y="628.0" type="line"/>
    </contour>
    <contour>
      <point x="1060.0" y="0.0" type="line"/>
      <point x="1408.0" y="0.0" type="line"/>
      <point x="808.0" y="864.0" type="line"/>
      <point x="600.0" y="668.0" type="line"/>
    </contour>
  </outline>
</glyph>
<glyph name="Lslash" format="2">
  <advance width="1584.0"/>
  <unicode hex="0141"/>
  <outline>
    <contour>
      <point x="872.0" y="1280.0" type="line"/>
      <point x="60.0" y="1024.0" type="line"/>
      <point x="60.0" y="844.0" type="line"/>
      <point x="872.0" y="1100.0" type="line"/>
    </contour>
    <component base="L"/>
  </outline>
</glyph>
<glyph name="lslash" format="2">
  <advance width="668.0"/>
  <unicode hex="0142"/>
  <outline>
    <contour>
      <point x="756.0" y="1280.0" type="line"/>
      <point x="40.0" y="1024.0" type="line"/>
      <point x="8.0" y="848.0" type="line"/>
      <point x="728.0" y="1104.0" type="line"/>
    </contour>
    <contour>
      <point x="664.0" y="2048.0" type="line"/>
      <point x="428.0" y="2048.0" type="line"/>
      <point x="88.0" y="0.0" type="line"/>
      <point x="324.0" y="0.0" type="line"/>
    </contour>
  </outline>
</glyph>
<glyph name="Eng" format="2">
  <advance width="2080.0"/>
  <unicode hex="014A"/>
  <outline>
    <contour>
      <point x="1464.0" y="0.0" type="line"/>
      <point x="1432.0" y="-160.0" type="line" smooth="yes"/>
      <point x="1400.0" y="-319.0"/>
      <point x="1300.0" y="-368.0"/>
      <point x="1172.0" y="-368.0" type="curve" smooth="yes"/>
      <point x="1144.0" y="-368.0"/>
      <point x="1116.0" y="-364.0"/>
      <point x="1096.0" y="-360.0" type="curve"/>
      <point x="1064.0" y="-564.0" type="line"/>
      <point x="1097.0" y="-576.0"/>
      <point x="1149.0" y="-576.0"/>
      <point x="1196.0" y="-576.0" type="curve" smooth="yes"/>
      <point x="1421.0" y="-576.0"/>
      <point x="1621.0" y="-426.0"/>
      <point x="1672.0" y="-164.0" type="curve" smooth="yes"/>
      <point x="1704.0" y="0.0" type="line"/>
    </contour>
    <component base="N"/>
  </outline>
</glyph>
<glyph name="eng" format="2">
  <advance width="1636.0"/>
  <unicode hex="014B"/>
  <outline>
    <contour>
      <point x="1064.0" y="36.0" type="line"/>
      <point x="1028.0" y="-164.0" type="line" smooth="yes"/>
      <point x="1004.0" y="-324.0"/>
      <point x="900.0" y="-372.0"/>
      <point x="772.0" y="-372.0" type="curve" smooth="yes"/>
      <point x="744.0" y="-372.0"/>
      <point x="716.0" y="-368.0"/>
      <point x="696.0" y="-364.0" type="curve"/>
      <point x="664.0" y="-564.0" type="line"/>
      <point x="696.0" y="-576.0"/>
      <point x="748.0" y="-576.0"/>
      <point x="796.0" y="-576.0" type="curve" smooth="yes"/>
      <point x="1020.0" y="-576.0"/>
      <point x="1224.0" y="-428.0"/>
      <point x="1264.0" y="-164.0" type="curve" smooth="yes"/>
      <point x="1300.0" y="36.0" type="line"/>
    </contour>
    <contour>
      <point x="476.0" y="908.0" type="line" smooth="yes"/>
      <point x="524.0" y="1196.0"/>
      <point x="764.0" y="1328.0"/>
      <point x="940.0" y="1328.0" type="curve" smooth="yes"/>
      <point x="1136.0" y="1328.0"/>
      <point x="1252.0" y="1184.0"/>
      <point x="1216.0" y="960.0" type="curve" smooth="yes"/>
      <point x="1056.0" y="0.0" type="line"/>
      <point x="1292.0" y="0.0" type="line"/>
      <point x="1456.0" y="976.0" type="line" smooth="yes"/>
      <point x="1520.0" y="1368.0"/>
      <point x="1344.0" y="1556.0"/>
      <point x="1056.0" y="1556.0" type="curve" smooth="yes"/>
      <point x="824.0" y="1556.0"/>
      <point x="648.0" y="1432.0"/>
      <point x="552.0" y="1276.0" type="curve"/>
      <point x="536.0" y="1276.0" type="line"/>
      <point x="580.0" y="1536.0" type="line"/>
      <point x="344.0" y="1536.0" type="line"/>
      <point x="88.0" y="0.0" type="line"/>
      <point x="324.0" y="0.0" type="line"/>
    </contour>
  </outline>
</glyph>
<glyph name="OE" format="2">
  <advance width="2684.0"/>
  <unicode hex="0152"/>
  <outline>
    <contour>
      <point x="904.0" y="0.0" type="curve" smooth="yes"/>
      <point x="1180.0" y="0.0" type="line"/>
      <point x="1216.0" y="220.0" type="line"/>
      <point x="940.0" y="220.0" type="line" smooth="yes"/>
      <point x="543.0" y="220.0"/>
      <point x="329.0" y="544.0"/>
      <point x="408.0" y="1024.0" type="curve" smooth="yes"/>
      <point x="488.0" y="1508.0"/>
      <point x="809.0" y="1828.0"/>
      <point x="1204.0" y="1828.0" type="curve" smooth="yes"/>
      <point x="1480.0" y="1828.0" type="line"/>
      <point x="1516.0" y="2048.0" type="line"/>
      <point x="1240.0" y="2048.0" type="line" smooth="yes"/>
      <point x="702.0" y="2048.0"/>
      <point x="270.0" y="1640.0"/>
      <point x="168.0" y="1024.0" type="curve" smooth="yes"/>
      <point x="67.0" y="412.0"/>
      <point x="362.0" y="0.0"/>
    </contour>
    <component base="E" xOffset="1000.0"/>
  </outline>
</glyph>
<glyph name="tbar" format="2">
  <advance width="1064.0"/>
  <unicode hex="0167"/>
  <outline>
    <contour>
      <point x="100.0" y="840.0" type="line"/>
      <point x="896.0" y="840.0" type="line"/>
      <point x="928.0" y="1024.0" type="line"/>
      <point x="132.0" y="1024.0" type="line"/>
    </contour>
    <component base="t" xOffset="20.0"/>
  </outline>
</glyph>
<glyph name="longs" format="2">
  <advance width="752.0"/>
  <unicode hex="017F"/>
  <outline>
    <contour>
      <point x="188.0" y="0.0" type="line"/>
      <point x="460.0" y="1640.0" type="line" smooth="yes"/>
      <point x="488.0" y="1816.0"/>
      <point x="592.0" y="1920.0"/>
      <point x="752.0" y="1920.0" type="curve" smooth="yes"/>
      <point x="800.0" y="1920.0"/>
      <point x="840.0" y="1916.0"/>
      <point x="868.0" y="1908.0" type="curve"/>
      <point x="936.0" y="2112.0" type="line"/>
      <point x="872.0" y="2128.0"/>
      <point x="808.0" y="2140.0"/>
      <point x="744.0" y="2140.0" type="curve" smooth="yes"/>
      <point x="448.0" y="2140.0"/>
      <point x="236.0" y="1964.0"/>
      <point x="184.0" y="1640.0" type="curve" smooth="yes"/>
      <point x="-88.0" y="0.0" type="line"/>
    </contour>
  </outline>
</glyph>
<glyph name="Tonesix" format="2">
  <advance width="2012.0"/>
  <unicode hex="0184"/>
  <outline>
    <contour>
      <point x="968.0" y="2048.0" type="line"/>
      <point x="240.0" y="2048.0" type="line"/>
      <point x="204.0" y="1828.0" type="line"/>
      <point x="932.0" y="1828.0" type="line"/>
    </contour>
    <contour>
      <point x="760.0" y="1188.0" type="line"/>
      <point x="724.0" y="968.0" type="line"/>
      <point x="1308.0" y="968.0" type="line"/>
      <point x="1588.0" y="968.0"/>
      <point x="1716.0" y="804.0"/>
      <point x="1684.0" y="608.0" type="curve"/>
      <point x="1652.0" y="408.0"/>
      <point x="1464.0" y="216.0"/>
      <point x="1184.0" y="216.0" type="curve"/>
      <point x="664.0" y="216.0" type="line"/>
      <point x="968.0" y="2048.0" type="line"/>
      <point x="720.0" y="2048.0" type="line"/>
      <point x="380.0" y="0.0" type="line"/>
      <point x="1148.0" y="0.0" type="line"/>
      <point x="1588.0" y="0.0"/>
      <point x="1868.0" y="248.0"/>
      <point x="1928.0" y="604.0" type="curve"/>
      <point x="1988.0" y="960.0"/>
      <point x="1784.0" y="1188.0"/>
      <point x="1344.0" y="1188.0" type="curve"/>
    </contour>
  </outline>
</glyph>
<glyph name="tonesix" format="2">
  <advance width="1776.0"/>
  <unicode hex="0185"/>
  <outline>
    <contour>
      <point x="552.0" y="2112.0" type="line"/>
      <point x="280.0" y="1832.0" type="line"/>
      <point x="260.0" y="1720.0" type="line"/>
      <point x="440.0" y="1440.0" type="line"/>
      <point x="504.0" y="1440.0" type="line"/>
      <point x="616.0" y="2112.0" type="line"/>
    </contour>
    <contour>
      <point x="576.0" y="1292.0" type="line"/>
      <point x="400.0" y="236.0" type="line"/>
      <point x="516.0" y="236.0" type="line"/>
      <point x="556.0" y="152.0"/>
      <point x="624.0" y="-32.0"/>
      <point x="920.0" y="-32.0" type="curve" smooth="yes"/>
      <point x="1304.0" y="-32.0"/>
      <point x="1624.0" y="276.0"/>
      <point x="1704.0" y="764.0" type="curve" smooth="yes"/>
      <point x="1784.0" y="1248.0"/>
      <point x="1568.0" y="1556.0"/>
      <point x="1180.0" y="1556.0" type="curve" smooth="yes"/>
      <point x="880.0" y="1556.0"/>
      <point x="756.0" y="1372.0"/>
      <point x="692.0" y="1292.0" type="curve"/>
    </contour>
    <contour>
      <point x="1468.0" y="768.0" type="curve" smooth="yes"/>
      <point x="1412.0" y="440.0"/>
      <point x="1220.0" y="180.0"/>
      <point x="924.0" y="180.0" type="curve" smooth="yes"/>
      <point x="640.0" y="180.0"/>
      <point x="524.0" y="420.0"/>
      <point x="580.0" y="768.0" type="curve" smooth="yes"/>
      <point x="636.0" y="1112.0"/>
      <point x="828.0" y="1344.0"/>
      <point x="1116.0" y="1344.0" type="curve" smooth="yes"/>
      <point x="1416.0" y="1344.0"/>
      <point x="1520.0" y="1092.0"/>
    </contour>
    <contour>
      <point x="560.0" y="2048.0" type="line"/>
      <point x="220.0" y="0.0" type="line"/>
      <point x="448.0" y="0.0" type="line"/>
      <point x="496.0" y="288.0" type="line"/>
      <point x="508.0" y="784.0" type="line"/>
      <point x="652.0" y="1172.0" type="line"/>
      <point x="796.0" y="2048.0" type="line"/>
    </contour>
  </outline>
</glyph>
<glyph name="Oopen" format="2">
  <advance width="2048.0"/>
  <unicode hex="0186"/>
  <guideline x="912.0" y="408.0" angle="260.6"/>
  <outline>
    <contour>
      <point x="132.0" y="640.0" type="line"/>
      <point x="140.0" y="220.0"/>
      <point x="440.0" y="-28.0"/>
      <point x="856.0" y="-28.0" type="curve" smooth="yes"/>
      <point x="1376.0" y="-28.0"/>
      <point x="1812.0" y="368.0"/>
      <point x="1920.0" y="1008.0" type="curve"/>
      <point x="2028.0" y="1664.0"/>
      <point x="1708.0" y="2076.0"/>
      <point x="1176.0" y="2076.0" type="curve" smooth="yes"/>
      <point x="772.0" y="2076.0"/>
      <point x="404.0" y="1828.0"/>
      <point x="256.0" y="1408.0" type="curve"/>
      <point x="504.0" y="1408.0" type="line"/>
      <point x="612.0" y="1692.0"/>
      <point x="888.0" y="1844.0"/>
      <point x="1168.0" y="1844.0" type="curve" smooth="yes"/>
      <point x="1532.0" y="1844.0"/>
      <point x="1772.0" y="1564.0"/>
      <point x="1684.0" y="1040.0" type="curve"/>
      <point x="1596.0" y="500.0"/>
      <point x="1248.0" y="204.0"/>
      <point x="868.0" y="204.0" type="curve" smooth="yes"/>
      <point x="604.0" y="204.0"/>
      <point x="388.0" y="356.0"/>
      <point x="376.0" y="640.0" type="curve"/>
    </contour>
  </outline>
</glyph>
<glyph name="Chook" format="2">
  <advance width="2172.0"/>
  <unicode hex="0187"/>
  <outline>
    <contour>
      <point x="2000.0" y="1408.0" type="line"/>
      <point x="2044.0" y="1664.0" type="line" smooth="yes"/>
      <point x="2071.0" y="1824.0"/>
      <point x="2174.0" y="1872.0"/>
      <point x="2300.0" y="1872.0" type="curve" smooth="yes"/>
      <point x="2330.0" y="1872.0"/>
      <point x="2357.0" y="1868.0"/>
      <point x="2376.0" y="1864.0" type="curve"/>
      <point x="2408.0" y="2064.0" type="line"/>
      <point x="2375.0" y="2076.0"/>
      <point x="2323.0" y="2076.0"/>
      <point x="2276.0" y="2076.0" type="curve" smooth="yes"/>
      <point x="2051.0" y="2076.0"/>
      <point x="1853.0" y="1928.0"/>
      <point x="1808.0" y="1664.0" type="curve" smooth="yes"/>
      <point x="1764.0" y="1408.0" type="line"/>
    </contour>
    <component base="C"/>
  </outline>
</glyph>
<glyph name="chook" format="2">
  <advance width="1720.0"/>
  <unicode hex="0188"/>
  <note>
!post:RemoveOverlap
</note>
  <outline>
    <contour>
      <point x="1496.0" y="1076.0" type="line"/>
      <point x="1532.0" y="1276.0" type="line" smooth="yes"/>
      <point x="1561.0" y="1435.0"/>
      <point x="1661.0" y="1484.0"/>
      <point x="1788.0" y="1484.0" type="curve" smooth="yes"/>
      <point x="1817.0" y="1484.0"/>
      <point x="1844.0" y="1480.0"/>
      <point x="1864.0" y="1476.0" type="curve"/>
      <point x="1896.0" y="1676.0" type="line"/>
      <point x="1863.0" y="1688.0"/>
      <point x="1811.0" y="1688.0"/>
      <point x="1764.0" y="1688.0" type="curve" smooth="yes"/>
      <point x="1539.0" y="1688.0"/>
      <point x="1343.0" y="1539.0"/>
      <point x="1296.0" y="1276.0" type="curve" smooth="yes"/>
      <point x="1260.0" y="1076.0" type="line"/>
    </contour>
    <component base="c"/>
  </outline>
</glyph>
<glyph name="Dhook" format="2">
  <advance width="2468.0"/>
  <unicode hex="018A"/>
  <outline>
    <contour>
      <point x="260.0" y="1504.0" type="line"/>
      <point x="492.0" y="1504.0" type="line"/>
      <point x="504.0" y="1580.0" type="line" smooth="yes"/>
      <point x="524.0" y="1708.0"/>
      <point x="564.0" y="1828.0"/>
      <point x="724.0" y="1828.0" type="curve" smooth="yes"/>
      <point x="920.0" y="1828.0" type="line"/>
      <point x="956.0" y="2048.0" type="line"/>
      <point x="756.0" y="2048.0" type="line" smooth="yes"/>
      <point x="492.0" y="2048.0"/>
      <point x="312.0" y="1864.0"/>
      <point x="280.0" y="1640.0" type="curve" smooth="yes"/>
    </contour>
    <component base="D" xOffset="444.0"/>
  </outline>
</glyph>
<glyph name="Dtopbar" format="2">
  <advance width="1776.0"/>
  <unicode hex="018B"/>
  <outline>
    <contour>
      <point x="1484.0" y="0.0" type="line"/>
      <point x="1816.0" y="2004.0" type="line"/>
      <point x="584.0" y="2004.0" type="line"/>
      <point x="548.0" y="1772.0" type="line"/>
      <point x="1496.0" y="1772.0" type="line"/>
      <point x="1400.0" y="1196.0" type="line"/>
      <point x="920.0" y="1196.0" type="line" smooth="yes"/>
      <point x="480.0" y="1196.0"/>
      <point x="196.0" y="960.0"/>
      <point x="136.0" y="604.0" type="curve" smooth="yes"/>
      <point x="76.0" y="248.0"/>
      <point x="280.0" y="0.0"/>
      <point x="720.0" y="0.0" type="curve" smooth="yes"/>
    </contour>
    <contour>
      <point x="1240.0" y="228.0" type="line"/>
      <point x="760.0" y="228.0" type="line" smooth="yes"/>
      <point x="476.0" y="228.0"/>
      <point x="392.0" y="408.0"/>
      <point x="424.0" y="608.0" type="curve" smooth="yes"/>
      <point x="456.0" y="804.0"/>
      <point x="596.0" y="964.0"/>
      <point x="880.0" y="964.0" type="curve" smooth="yes"/>
      <point x="1360.0" y="964.0" type="line"/>
    </contour>
  </outline>
</glyph>
<glyph name="dtopbar" format="2">
  <advance width="1716.0"/>
  <unicode hex="018C"/>
  <outline>
    <contour>
      <point x="1712.0" y="2048.0" type="line"/>
      <point x="528.0" y="2048.0" type="line"/>
      <point x="492.0" y="1828.0" type="line"/>
      <point x="1676.0" y="1828.0" type="line"/>
    </contour>
    <contour>
      <point x="1372.0" y="0.0" type="line"/>
      <point x="1712.0" y="2048.0" type="line"/>
      <point x="1476.0" y="2048.0" type="line"/>
      <point x="1328.0" y="1156.0" type="line"/>
      <point x="1332.0" y="748.0" type="line"/>
      <point x="1200.0" y="344.0" type="line"/>
      <point x="1144.0" y="0.0" type="line"/>
    </contour>
    <contour>
      <point x="1448.0" y="1292.0" type="line"/>
      <point x="1336.0" y="1292.0" type="line"/>
      <point x="1296.0" y="1372.0"/>
      <point x="1232.0" y="1556.0"/>
      <point x="932.0" y="1556.0" type="curve" smooth="yes"/>
      <point x="544.0" y="1556.0"/>
      <point x="224.0" y="1248.0"/>
      <point x="144.0" y="764.0" type="curve" smooth="yes"/>
      <point x="64.0" y="276.0"/>
      <point x="280.0" y="-32.0"/>
      <point x="664.0" y="-32.0" type="curve" smooth="yes"/>
      <point x="960.0" y="-32.0"/>
      <point x="1096.0" y="152.0"/>
      <point x="1160.0" y="236.0" type="curve"/>
      <point x="1272.0" y="236.0" type="line"/>
    </contour>
    <contour>
      <point x="380.0" y="768.0" type="curve" smooth="yes"/>
      <point x="432.0" y="1092.0"/>
      <point x="624.0" y="1344.0"/>
      <point x="924.0" y="1344.0" type="curve" smooth="yes"/>
      <point x="1212.0" y="1344.0"/>
      <point x="1324.0" y="1112.0"/>
      <point x="1268.0" y="768.0" type="curve" smooth="yes"/>
      <point x="1212.0" y="420.0"/>
      <point x="1016.0" y="180.0"/>
      <point x="732.0" y="180.0" type="curve" smooth="yes"/>
      <point x="436.0" y="180.0"/>
      <point x="324.0" y="440.0"/>
    </contour>
  </outline>
</glyph>
<glyph name="deltaturn" format="2">
  <advance width="1520.0"/>
  <unicode hex="018D"/>
  <outline>
    <contour>
      <point x="1024.0" y="-516.0" type="line"/>
      <point x="1052.0" y="-352.0" type="line"/>
      <point x="944.0" y="-200.0"/>
      <point x="784.0" y="-48.0"/>
      <point x="648.0" y="100.0" type="curve"/>
      <point x="668.0" y="100.0"/>
      <point x="668.0" y="100.0"/>
      <point x="700.0" y="104.0" type="curve" smooth="yes"/>
      <point x="1100.0" y="152.0"/>
      <point x="1372.0" y="428.0"/>
      <point x="1428.0" y="756.0" type="curve" smooth="yes"/>
      <point x="1432.0" y="784.0" type="line" smooth="yes"/>
      <point x="1500.0" y="1200.0"/>
      <point x="1304.0" y="1516.0"/>
      <point x="884.0" y="1516.0" type="curve" smooth="yes"/>
      <point x="464.0" y="1516.0"/>
      <point x="168.0" y="1200.0"/>
      <point x="100.0" y="784.0" type="curve" smooth="yes"/>
      <point x="96.0" y="756.0" type="line" smooth="yes"/>
      <point x="44.0" y="444.0"/>
      <point x="212.0" y="208.0"/>
      <point x="464.0" y="-48.0" type="curve" smooth="yes"/>
      <point x="540.0" y="-120.0"/>
      <point x="664.0" y="-260.0"/>
      <point x="692.0" y="-304.0" type="curve"/>
      <point x="84.0" y="-304.0" type="line"/>
      <point x="48.0" y="-516.0" type="line"/>
    </contour>
    <contour>
      <point x="1152.0" y="756.0" type="line"/>
      <point x="1108.0" y="500.0"/>
      <point x="940.0" y="272.0"/>
      <point x="652.0" y="272.0" type="curve" smooth="yes"/>
      <point x="604.0" y="272.0"/>
      <point x="572.0" y="276.0"/>
      <point x="536.0" y="288.0" type="curve"/>
      <point x="424.0" y="372.0"/>
      <point x="332.0" y="540.0"/>
      <point x="368.0" y="756.0" type="curve" smooth="yes"/>
      <point x="372.0" y="784.0" type="line" smooth="yes"/>
      <point x="416.0" y="1060.0"/>
      <point x="576.0" y="1296.0"/>
      <point x="848.0" y="1296.0" type="curve" smooth="yes"/>
      <point x="1124.0" y="1296.0"/>
      <point x="1200.0" y="1060.0"/>
      <point x="1156.0" y="784.0" type="curve" smooth="yes"/>
    </contour>
  </outline>
</glyph>
<glyph name="Epsilon1" format="2">
  <advance width="1776.0"/>
  <unicode hex="0190"/>
  <outline>
    <contour>
      <point x="1144.0" y="960.0" type="line"/>
      <point x="1172.0" y="1136.0" type="line"/>
      <point x="948.0" y="1136.0" type="line" smooth="yes"/>
      <point x="652.0" y="1136.0"/>
      <point x="564.0" y="1272.0"/>
      <point x="596.0" y="1464.0" type="curve" smooth="yes"/>
      <point x="628.0" y="1652.0"/>
      <point x="780.0" y="1800.0"/>
      <point x="1080.0" y="1800.0" type="curve" smooth="yes"/>
      <point x="1308.0" y="1800.0"/>
      <point x="1448.0" y="1668.0"/>
      <point x="1416.0" y="1480.0" type="curve"/>
      <point x="1700.0" y="1480.0" type="line"/>
      <point x="1760.0" y="1820.0"/>
      <point x="1484.0" y="2032.0"/>
      <point x="1116.0" y="2032.0" type="curve" smooth="yes"/>
      <point x="688.0" y="2032.0"/>
      <point x="372.0" y="1832.0"/>
      <point x="312.0" y="1460.0" type="curve" smooth="yes"/>
      <point x="260.0" y="1144.0"/>
      <point x="512.0" y="960.0"/>
      <point x="912.0" y="960.0" type="curve"/>
    </contour>
    <contour>
      <point x="932.0" y="1080.0" type="line"/>
      <point x="484.0" y="1080.0"/>
      <point x="184.0" y="896.0"/>
      <point x="128.0" y="560.0" type="curve" smooth="yes"/>
      <point x="60.0" y="140.0"/>
      <point x="356.0" y="-28.0"/>
      <point x="776.0" y="-28.0" type="curve" smooth="yes"/>
      <point x="1120.0" y="-28.0"/>
      <point x="1508.0" y="148.0"/>
      <point x="1576.0" y="556.0" type="curve"/>
      <point x="1292.0" y="556.0" type="line"/>
      <point x="1260.0" y="360.0"/>
      <point x="1072.0" y="200.0"/>
      <point x="812.0" y="200.0" type="curve" smooth="yes"/>
      <point x="532.0" y="200.0"/>
      <point x="376.0" y="316.0"/>
      <point x="416.0" y="556.0" type="curve" smooth="yes"/>
      <point x="456.0" y="800.0"/>
      <point x="624.0" y="908.0"/>
      <point x="912.0" y="908.0" type="curve" smooth="yes"/>
      <point x="1136.0" y="908.0" type="line"/>
      <point x="1164.0" y="1080.0" type="line"/>
    </contour>
  </outline>
</glyph>
<glyph name="Fhook" format="2">
  <advance width="1652.0"/>
  <unicode hex="0191"/>
  <outline>
    <contour>
      <point x="120.0" y="0.0" type="line"/>
      <point x="96.0" y="-160.0" type="line" smooth="yes"/>
      <point x="71.0" y="-326.0"/>
      <point x="-36.0" y="-368.0"/>
      <point x="-152.0" y="-368.0" type="curve" smooth="yes"/>
      <point x="-188.0" y="-368.0"/>
      <point x="-216.0" y="-364.0"/>
      <point x="-236.0" y="-360.0" type="curve"/>
      <point x="-268.0" y="-564.0" type="line"/>
      <point x="-228.0" y="-576.0"/>
      <point x="-200.0" y="-576.0"/>
      <point x="-176.0" y="-576.0" type="curve" smooth="yes"/>
      <point x="104.0" y="-576.0"/>
      <point x="295.0" y="-430.0"/>
      <point x="340.0" y="-164.0" type="curve" smooth="yes"/>
      <point x="368.0" y="0.0" type="line"/>
    </contour>
    <component base="F"/>
  </outline>
</glyph>
<glyph name="florin" format="2">
  <advance width="1088.0"/>
  <unicode hex="0192"/>
  <outline>
    <contour>
      <point x="1032.0" y="1488.0" type="line"/>
      <point x="752.0" y="1488.0" type="line"/>
      <point x="776.0" y="1640.0" type="line" smooth="yes"/>
      <point x="804.0" y="1816.0"/>
      <point x="904.0" y="1904.0"/>
      <point x="1064.0" y="1904.0" type="curve" smooth="yes"/>
      <point x="1112.0" y="1904.0"/>
      <point x="1148.0" y="1896.0"/>
      <point x="1172.0" y="1888.0" type="curve"/>
      <point x="1268.0" y="2104.0" type="line"/>
      <point x="1220.0" y="2124.0"/>
      <point x="1116.0" y="2140.0"/>
      <point x="1040.0" y="2140.0" type="curve" smooth="yes"/>
      <point x="792.0" y="2140.0"/>
      <point x="580.0" y="1964.0"/>
      <point x="528.0" y="1640.0" type="curve" smooth="yes"/>
      <point x="504.0" y="1488.0" type="line"/>
      <point x="256.0" y="1488.0" type="line"/>
      <point x="220.0" y="1284.0" type="line"/>
      <point x="468.0" y="1284.0" type="line"/>
      <point x="236.0" y="-124.0" type="line" smooth="yes"/>
      <point x="208.0" y="-284.0"/>
      <point x="112.0" y="-380.0"/>
      <point x="4.0" y="-380.0" type="curve" smooth="yes"/>
      <point x="-20.0" y="-380.0"/>
      <point x="-100.0" y="-376.0"/>
      <point x="-128.0" y="-364.0" type="curve"/>
      <point x="-184.0" y="-580.0" type="line"/>
      <point x="-132.0" y="-596.0"/>
      <point x="-88.0" y="-600.0"/>
      <point x="-32.0" y="-600.0" type="curve" smooth="yes"/>
      <point x="248.0" y="-600.0"/>
      <point x="432.0" y="-432.0"/>
      <point x="484.0" y="-124.0" type="curve" smooth="yes"/>
      <point x="716.0" y="1284.0" type="line"/>
      <point x="996.0" y="1284.0" type="line"/>
    </contour>
  </outline>
</glyph>
<glyph name="Ghook" format="2">
  <advance width="2176.0"/>
  <unicode hex="0193"/>
  <outline>
    <contour>
      <point x="2004.0" y="1408.0" type="line"/>
      <point x="2040.0" y="1624.0" type="line" smooth="yes"/>
      <point x="2067.0" y="1784.0"/>
      <point x="2170.0" y="1832.0"/>
      <point x="2300.0" y="1832.0" type="curve" smooth="yes"/>
      <point x="2326.0" y="1832.0"/>
      <point x="2354.0" y="1828.0"/>
      <point x="2372.0" y="1824.0" type="curve"/>
      <point x="2404.0" y="2024.0" type="line"/>
      <point x="2372.0" y="2036.0"/>
      <point x="2320.0" y="2036.0"/>
      <point x="2272.0" y="2036.0" type="curve" smooth="yes"/>
      <point x="2016.0" y="2036.0"/>
      <point x="1859.0" y="1888.0"/>
      <point x="1800.0" y="1624.0" type="curve" smooth="yes"/>
      <point x="1752.0" y="1408.0" type="line"/>
    </contour>
    <component base="G"/>
  </outline>
</glyph>
<glyph name="Gamma1" format="2">
  <advance width="1776.0"/>
  <unicode hex="0194"/>
  <outline>
    <contour>
      <point x="240.0" y="2048.0" type="line"/>
      <point x="748.0" y="156.0" type="line" smooth="yes"/>
      <point x="812.0" y="-84.0"/>
      <point x="848.0" y="-192.0"/>
      <point x="836.0" y="-272.0" type="curve" smooth="yes"/>
      <point x="828.0" y="-324.0"/>
      <point x="772.0" y="-376.0"/>
      <point x="700.0" y="-376.0" type="curve" smooth="yes"/>
      <point x="628.0" y="-376.0"/>
      <point x="588.0" y="-328.0"/>
      <point x="596.0" y="-272.0" type="curve" smooth="yes"/>
      <point x="608.0" y="-192.0"/>
      <point x="692.0" y="-76.0"/>
      <point x="832.0" y="156.0" type="curve" smooth="yes"/>
      <point x="1960.0" y="2048.0" type="line"/>
      <point x="1692.0" y="2048.0" type="line"/>
      <point x="708.0" y="388.0" type="line" smooth="yes"/>
      <point x="492.0" y="20.0"/>
      <point x="368.0" y="-136.0"/>
      <point x="344.0" y="-272.0" type="curve" smooth="yes"/>
      <point x="308.0" y="-480.0"/>
      <point x="428.0" y="-600.0"/>
      <point x="660.0" y="-600.0" type="curve" smooth="yes"/>
      <point x="892.0" y="-600.0"/>
      <point x="1052.0" y="-480.0"/>
      <point x="1088.0" y="-272.0" type="curve" smooth="yes"/>
      <point x="1108.0" y="-144.0"/>
      <point x="1028.0" y="20.0"/>
      <point x="932.0" y="388.0" type="curve" smooth="yes"/>
      <point x="508.0" y="2048.0" type="line"/>
    </contour>
  </outline>
</glyph>
<glyph name="hv" format="2">
  <advance width="2576.0"/>
  <unicode hex="0195"/>
  <note>
Note: Must be split in two, or conversion to quadratic curves will fail.
</note>
  <outline>
    <contour>
      <point x="1420.0" y="768.0" type="line"/>
      <point x="1184.0" y="768.0" type="line"/>
      <point x="1156.0" y="608.0" type="line" smooth="yes"/>
      <point x="1084.0" y="164.0"/>
      <point x="1276.0" y="-28.0"/>
      <point x="1544.0" y="-28.0" type="curve" smooth="yes"/>
      <point x="1852.0" y="-28.0"/>
      <point x="2264.0" y="196.0"/>
      <point x="2452.0" y="1328.0" type="curve" smooth="yes"/>
      <point x="2488.0" y="1536.0" type="line"/>
      <point x="2252.0" y="1536.0" type="line"/>
      <point x="2216.0" y="1328.0" type="line" smooth="yes"/>
      <point x="2048.0" y="308.0"/>
      <point x="1740.0" y="180.0"/>
      <point x="1596.0" y="180.0" type="curve" smooth="yes"/>
      <point x="1488.0" y="180.0"/>
      <point x="1332.0" y="248.0"/>
      <point x="1392.0" y="608.0" type="curve" smooth="yes"/>
    </contour>
    <contour>
      <point x="1184.0" y="768.0" type="line"/>
      <point x="1420.0" y="768.0" type="line"/>
      <point x="1456.0" y="976.0" type="line" smooth="yes"/>
      <point x="1520.0" y="1368.0"/>
      <point x="1344.0" y="1556.0"/>
      <point x="1056.0" y="1556.0" type="curve" smooth="yes"/>
      <point x="824.0" y="1556.0"/>
      <point x="656.0" y="1436.0"/>
      <point x="560.0" y="1320.0" type="curve"/>
      <point x="544.0" y="1320.0" type="line"/>
      <point x="664.0" y="2048.0" type="line"/>
      <point x="428.0" y="2048.0" type="line"/>
      <point x="88.0" y="0.0" type="line"/>
      <point x="324.0" y="0.0" type="line"/>
      <point x="480.0" y="928.0" type="line" smooth="yes"/>
      <point x="528.0" y="1216.0"/>
      <point x="756.0" y="1328.0"/>
      <point x="940.0" y="1328.0" type="curve" smooth="yes"/>
      <point x="1140.0" y="1328.0"/>
      <point x="1256.0" y="1200.0"/>
      <point x="1220.0" y="976.0" type="curve" smooth="yes"/>
    </contour>
  </outline>
</glyph>
<glyph name="Iota1" format="2">
  <advance width="1008.0"/>
  <unicode hex="0196"/>
  <outline>
    <contour>
      <point x="668.0" y="2112.0" type="line"/>
      <point x="392.0" y="2112.0" type="line"/>
      <point x="120.0" y="472.0" type="line" smooth="yes"/>
      <point x="68.0" y="152.0"/>
      <point x="216.0" y="-28.0"/>
      <point x="512.0" y="-28.0" type="curve" smooth="yes"/>
      <point x="576.0" y="-28.0"/>
      <point x="648.0" y="-16.0"/>
      <point x="712.0" y="0.0" type="curve"/>
      <point x="716.0" y="208.0" type="line"/>
      <point x="680.0" y="200.0"/>
      <point x="640.0" y="192.0"/>
      <point x="592.0" y="192.0" type="curve" smooth="yes"/>
      <point x="432.0" y="192.0"/>
      <point x="368.0" y="300.0"/>
      <point x="396.0" y="472.0" type="curve" smooth="yes"/>
    </contour>
  </outline>
</glyph>
<glyph name="Khook" format="2">
  <advance width="1892.0"/>
  <unicode hex="0198"/>
  <outline>
    <contour>
      <point x="1600.0" y="1704.0" type="line"/>
      <point x="1652.0" y="1752.0" type="line" smooth="yes"/>
      <point x="1768.0" y="1864.0"/>
      <point x="1864.0" y="1868.0"/>
      <point x="1940.0" y="1812.0" type="curve"/>
      <point x="2072.0" y="1996.0" type="line"/>
      <point x="1928.0" y="2112.0"/>
      <point x="1712.0" y="2104.0"/>
      <point x="1524.0" y="1928.0" type="curve" smooth="yes"/>
      <point x="1428.0" y="1840.0" type="line"/>
    </contour>
    <contour>
      <point x="708.0" y="2048.0" type="line"/>
      <point x="460.0" y="2048.0" type="line"/>
      <point x="120.0" y="0.0" type="line"/>
      <point x="368.0" y="0.0" type="line"/>
    </contour>
    <contour>
      <point x="1336.0" y="0.0" type="line"/>
      <point x="1636.0" y="0.0" type="line"/>
      <point x="940.0" y="1168.0" type="line"/>
      <point x="772.0" y="976.0" type="line"/>
    </contour>
    <contour>
      <point x="1428.0" y="1840.0" type="line"/>
      <point x="564.0" y="1032.0" type="line"/>
      <point x="492.0" y="1032.0" type="line"/>
      <point x="424.0" y="612.0" type="line"/>
      <point x="792.0" y="960.0" type="line"/>
      <point x="808.0" y="980.0" type="line"/>
      <point x="1600.0" y="1704.0" type="line"/>
    </contour>
  </outline>
</glyph>
<glyph name="khook" format="2">
  <advance width="1500.0"/>
  <unicode hex="0199"/>
  <outline>
    <contour>
      <point x="1048.0" y="0.0" type="line"/>
      <point x="1332.0" y="0.0" type="line"/>
      <point x="812.0" y="880.0" type="line"/>
      <point x="1524.0" y="1536.0" type="line"/>
      <point x="1224.0" y="1536.0" type="line"/>
      <point x="484.0" y="844.0" type="line"/>
      <point x="464.0" y="844.0" type="line"/>
      <point x="588.0" y="1600.0" type="line"/>
      <point x="352.0" y="1600.0" type="line"/>
      <point x="88.0" y="0.0" type="line"/>
      <point x="324.0" y="0.0" type="line"/>
      <point x="408.0" y="508.0" type="line"/>
      <point x="628.0" y="708.0" type="line"/>
    </contour>
    <contour>
      <point x="568.0" y="1464.0" type="line"/>
      <point x="600.0" y="1664.0" type="line" smooth="yes"/>
      <point x="628.0" y="1824.0"/>
      <point x="732.0" y="1872.0"/>
      <point x="860.0" y="1872.0" type="curve" smooth="yes"/>
      <point x="888.0" y="1872.0"/>
      <point x="916.0" y="1868.0"/>
      <point x="932.0" y="1864.0" type="curve"/>
      <point x="968.0" y="2064.0" type="line"/>
      <point x="932.0" y="2076.0"/>
      <point x="880.0" y="2076.0"/>
      <point x="832.0" y="2076.0" type="curve" smooth="yes"/>
      <point x="608.0" y="2076.0"/>
      <point x="408.0" y="1928.0"/>
      <point x="364.0" y="1664.0" type="curve" smooth="yes"/>
      <point x="332.0" y="1464.0" type="line"/>
    </contour>
  </outline>
</glyph>
<glyph name="lambdabar" format="2">
  <advance width="1776.0"/>
  <unicode hex="019B"/>
  <outline>
    <contour>
      <point x="1140.0" y="1952.0" type="line"/>
      <point x="420.0" y="1692.0" type="line"/>
      <point x="384.0" y="1460.0" type="line"/>
      <point x="1100.0" y="1716.0" type="line"/>
    </contour>
    <contour>
      <point x="900.0" y="1088.0" type="line"/>
      <point x="1040.0" y="1504.0" type="line"/>
      <point x="852.0" y="1516.0" type="line"/>
      <point x="24.0" y="0.0" type="line"/>
      <point x="328.0" y="0.0" type="line"/>
    </contour>
    <contour>
      <point x="688.0" y="2088.0" type="curve"/>
      <point x="648.0" y="2088.0"/>
      <point x="572.0" y="2080.0"/>
      <point x="548.0" y="2072.0" type="curve"/>
      <point x="512.0" y="1864.0" type="line"/>
      <point x="532.0" y="1868.0"/>
      <point x="564.0" y="1868.0"/>
      <point x="580.0" y="1868.0" type="curve" smooth="yes"/>
      <point x="648.0" y="1868.0"/>
      <point x="688.0" y="1840.0"/>
      <point x="712.0" y="1740.0" type="curve" smooth="yes"/>
      <point x="808.0" y="1344.0" type="line"/>
      <point x="1052.0" y="252.0" type="line" smooth="yes"/>
      <point x="1104.0" y="4.0"/>
      <point x="1188.0" y="-24.0"/>
      <point x="1352.0" y="-24.0" type="curve" smooth="yes"/>
      <point x="1396.0" y="-24.0"/>
      <point x="1444.0" y="-16.0"/>
      <point x="1464.0" y="-8.0" type="curve"/>
      <point x="1492.0" y="212.0" type="line"/>
      <point x="1480.0" y="212.0"/>
      <point x="1460.0" y="212.0"/>
      <point x="1444.0" y="212.0" type="curve" smooth="yes"/>
      <point x="1384.0" y="212.0"/>
      <point x="1356.0" y="236.0"/>
      <point x="1336.0" y="324.0" type="curve" smooth="yes"/>
      <point x="992.0" y="1860.0" type="line" smooth="yes"/>
      <point x="960.0" y="2004.0"/>
      <point x="892.0" y="2088.0"/>
    </contour>
  </outline>
</glyph>
<glyph name="mcapturn" format="2">
  <advance width="2544.0"/>
  <unicode hex="019C"/>
  <outline>
    <contour>
      <point x="1964.0" y="292.0" type="line"/>
      <point x="1928.0" y="0.0" type="line"/>
      <point x="2188.0" y="0.0" type="line"/>
      <point x="2520.0" y="2004.0" type="line"/>
      <point x="2248.0" y="2004.0" type="line"/>
    </contour>
    <contour>
      <point x="2052.0" y="692.0" type="line"/>
      <point x="2004.0" y="416.0"/>
      <point x="1868.0" y="200.0"/>
      <point x="1572.0" y="200.0" type="curve" smooth="yes"/>
      <point x="1444.0" y="200.0"/>
      <point x="1328.0" y="280.0"/>
      <point x="1380.0" y="608.0" type="curve"/>
      <point x="1612.0" y="2004.0" type="line"/>
      <point x="1340.0" y="2004.0" type="line"/>
      <point x="1108.0" y="608.0" type="line"/>
      <point x="1032.0" y="128.0"/>
      <point x="1200.0" y="-28.0"/>
      <point x="1492.0" y="-28.0" type="curve" smooth="yes"/>
      <point x="1900.0" y="-28.0"/>
      <point x="2112.0" y="280.0"/>
      <point x="2180.0" y="696.0" type="curve"/>
    </contour>
    <contour>
      <point x="1148.0" y="692.0" type="line"/>
      <point x="1100.0" y="416.0"/>
      <point x="960.0" y="200.0"/>
      <point x="664.0" y="200.0" type="curve" smooth="yes"/>
      <point x="536.0" y="200.0"/>
      <point x="424.0" y="280.0"/>
      <point x="476.0" y="608.0" type="curve" smooth="yes"/>
      <point x="708.0" y="2004.0" type="line"/>
      <point x="432.0" y="2004.0" type="line"/>
      <point x="200.0" y="608.0" type="line" smooth="yes"/>
      <point x="124.0" y="132.0"/>
      <point x="288.0" y="-28.0"/>
      <point x="584.0" y="-28.0" type="curve" smooth="yes"/>
      <point x="992.0" y="-28.0"/>
      <point x="1208.0" y="280.0"/>
      <point x="1276.0" y="696.0" type="curve"/>
    </contour>
  </outline>
</glyph>
<glyph name="Nhook" format="2">
  <advance width="2080.0"/>
  <unicode hex="019D"/>
  <outline>
    <contour>
      <point x="120.0" y="0.0" type="line"/>
      <point x="92.0" y="-160.0" type="line" smooth="yes"/>
      <point x="64.0" y="-320.0"/>
      <point x="-36.0" y="-368.0"/>
      <point x="-164.0" y="-368.0" type="curve" smooth="yes"/>
      <point x="-192.0" y="-368.0"/>
      <point x="-220.0" y="-364.0"/>
      <point x="-240.0" y="-360.0" type="curve"/>
      <point x="-272.0" y="-564.0" type="line"/>
      <point x="-232.0" y="-573.0"/>
      <point x="-174.0" y="-580.0"/>
      <point x="-108.0" y="-580.0" type="curve" smooth="yes"/>
      <point x="112.0" y="-580.0"/>
      <point x="280.0" y="-448.0"/>
      <point x="336.0" y="-164.0" type="curve" smooth="yes"/>
      <point x="368.0" y="0.0" type="line"/>
    </contour>
    <component base="N"/>
  </outline>
</glyph>
<glyph name="Ohorn" format="2">
  <advance width="2180.0"/>
  <unicode hex="01A0"/>
  <outline>
    <contour>
      <point x="2144.0" y="2196.0" type="line"/>
      <point x="2105.0" y="1964.0"/>
      <point x="1991.0" y="1828.0"/>
      <point x="1784.0" y="1828.0" type="curve"/>
      <point x="1752.0" y="1632.0" type="line"/>
      <point x="2106.0" y="1632.0"/>
      <point x="2320.0" y="1836.0"/>
      <point x="2380.0" y="2196.0" type="curve"/>
    </contour>
    <component base="O"/>
  </outline>
</glyph>
<glyph name="ohorn" format="2">
  <advance width="1688.0"/>
  <unicode hex="01A1"/>
  <outline>
    <contour>
      <point x="1612.0" y="1652.0" type="line"/>
      <point x="1576.0" y="1456.0"/>
      <point x="1528.0" y="1324.0"/>
      <point x="1328.0" y="1324.0" type="curve"/>
      <point x="1300.0" y="1156.0" type="line"/>
      <point x="1632.0" y="1156.0"/>
      <point x="1780.0" y="1348.0"/>
      <point x="1832.0" y="1652.0" type="curve"/>
    </contour>
    <component base="o"/>
  </outline>
</glyph>
<glyph name="OI" format="2">
  <advance width="2288.0"/>
  <unicode hex="01A2"/>
  <outline>
    <contour>
      <point x="1720.0" y="1000.0" type="line"/>
      <point x="1448.0" y="1000.0" type="line"/>
      <point x="1336.0" y="344.0" type="line"/>
      <point x="1276.0" y="288.0"/>
      <point x="1168.0" y="200.0"/>
      <point x="892.0" y="200.0" type="curve" smooth="yes"/>
      <point x="516.0" y="200.0"/>
      <point x="376.0" y="492.0"/>
      <point x="448.0" y="932.0" type="curve" smooth="yes"/>
      <point x="468.0" y="1064.0" type="line"/>
      <point x="184.0" y="1060.0" type="line"/>
      <point x="164.0" y="932.0" type="line" smooth="yes"/>
      <point x="60.0" y="308.0"/>
      <point x="360.0" y="-28.0"/>
      <point x="844.0" y="-28.0" type="curve" smooth="yes"/>
      <point x="1300.0" y="-28.0"/>
      <point x="1508.0" y="160.0"/>
      <point x="1596.0" y="272.0" type="curve"/>
    </contour>
    <contour>
      <point x="1840.0" y="1732.0" type="line"/>
      <point x="1788.0" y="1844.0"/>
      <point x="1640.0" y="2032.0"/>
      <point x="1184.0" y="2032.0" type="curve" smooth="yes"/>
      <point x="696.0" y="2032.0"/>
      <point x="288.0" y="1676.0"/>
      <point x="188.0" y="1072.0" type="curve" smooth="yes"/>
      <point x="168.0" y="956.0" type="line"/>
      <point x="452.0" y="956.0" type="line"/>
      <point x="472.0" y="1072.0" type="line" smooth="yes"/>
      <point x="548.0" y="1536.0"/>
      <point x="812.0" y="1800.0"/>
      <point x="1148.0" y="1800.0" type="curve" smooth="yes"/>
      <point x="1436.0" y="1800.0"/>
      <point x="1512.0" y="1716.0"/>
      <point x="1556.0" y="1656.0" type="curve"/>
      <point x="1444.0" y="976.0" type="line"/>
      <point x="1716.0" y="976.0" type="line"/>
    </contour>
    <contour>
      <point x="2356.0" y="2004.0" type="line"/>
      <point x="2144.0" y="2004.0" type="line"/>
      <point x="1736.0" y="1848.0" type="line"/>
      <point x="1696.0" y="1616.0" type="line"/>
      <point x="2036.0" y="1732.0" type="line"/>
      <point x="1656.0" y="-572.0" type="line"/>
      <point x="1932.0" y="-572.0" type="line"/>
    </contour>
  </outline>
</glyph>
<glyph name="oi" format="2">
  <advance width="1776.0"/>
  <unicode hex="01A3"/>
  <outline>
    <contour>
      <point x="668.0" y="192.0" type="curve" smooth="yes"/>
      <point x="420.0" y="192.0"/>
      <point x="308.0" y="384.0"/>
      <point x="364.0" y="716.0" type="curve" smooth="yes"/>
      <point x="372.0" y="772.0" type="line" smooth="yes"/>
      <point x="416.0" y="1024.0"/>
      <point x="544.0" y="1296.0"/>
      <point x="852.0" y="1296.0" type="curve"/>
      <point x="932.0" y="1296.0"/>
      <point x="996.0" y="1272.0"/>
      <point x="1040.0" y="1232.0" type="curve"/>
      <point x="952.0" y="700.0" type="line"/>
      <point x="1228.0" y="700.0" type="line"/>
      <point x="1328.0" y="1304.0" type="line"/>
      <point x="1248.0" y="1436.0"/>
      <point x="1096.0" y="1516.0"/>
      <point x="888.0" y="1516.0" type="curve" smooth="yes"/>
      <point x="436.0" y="1516.0"/>
      <point x="164.0" y="1168.0"/>
      <point x="96.0" y="772.0" type="curve" smooth="yes"/>
      <point x="88.0" y="716.0" type="line" smooth="yes"/>
      <point x="20.0" y="320.0"/>
      <point x="176.0" y="-28.0"/>
      <point x="632.0" y="-28.0" type="curve"/>
      <point x="824.0" y="-28.0"/>
      <point x="1016.0" y="60.0"/>
      <point x="1144.0" y="188.0" type="curve"/>
      <point x="1236.0" y="748.0" type="line"/>
      <point x="960.0" y="748.0" type="line"/>
      <point x="880.0" y="252.0" type="line"/>
      <point x="816.0" y="216.0"/>
      <point x="744.0" y="192.0"/>
    </contour>
    <contour>
      <point x="1800.0" y="1488.0" type="line"/>
      <point x="1584.0" y="1488.0" type="line"/>
      <point x="1196.0" y="1304.0" type="line"/>
      <point x="1140.0" y="956.0" type="line"/>
      <point x="1468.0" y="1132.0" type="line"/>
      <point x="1188.0" y="-572.0" type="line"/>
      <point x="1460.0" y="-572.0" type="line"/>
    </contour>
  </outline>
</glyph>
<glyph name="Phook" format="2">
  <advance width="2084.0"/>
  <unicode hex="01A4"/>
  <outline>
    <contour>
      <point x="792.0" y="1828.0" type="line"/>
      <point x="828.0" y="2048.0" type="line"/>
      <point x="628.0" y="2048.0" type="line" smooth="yes"/>
      <point x="365.0" y="2048.0"/>
      <point x="185.0" y="1865.0"/>
      <point x="152.0" y="1640.0" type="curve" smooth="yes"/>
      <point x="132.0" y="1504.0" type="line"/>
      <point x="364.0" y="1504.0" type="line"/>
      <point x="376.0" y="1580.0" type="line" smooth="yes"/>
      <point x="396.0" y="1708.0"/>
      <point x="437.0" y="1828.0"/>
      <point x="596.0" y="1828.0" type="curve" smooth="yes"/>
    </contour>
    <component base="P" xOffset="300.0"/>
  </outline>
</glyph>
<glyph name="phook" format="2">
  <advance width="1716.0"/>
  <unicode hex="01A5"/>
  <outline>
    <contour>
      <point x="532.0" y="1288.0" type="line"/>
      <point x="564.0" y="1488.0" type="line" smooth="yes"/>
      <point x="588.0" y="1648.0"/>
      <point x="692.0" y="1696.0"/>
      <point x="820.0" y="1696.0" type="curve" smooth="yes"/>
      <point x="848.0" y="1696.0"/>
      <point x="876.0" y="1692.0"/>
      <point x="896.0" y="1688.0" type="curve"/>
      <point x="928.0" y="1888.0" type="line"/>
      <point x="896.0" y="1900.0"/>
      <point x="844.0" y="1900.0"/>
      <point x="796.0" y="1900.0" type="curve" smooth="yes"/>
      <point x="572.0" y="1900.0"/>
      <point x="380.0" y="1756.0"/>
      <point x="340.0" y="1528.0" type="curve" smooth="yes"/>
      <point x="304.0" y="1288.0" type="line"/>
    </contour>
    <contour>
      <point x="-8.0" y="-576.0" type="line"/>
      <point x="228.0" y="-576.0" type="line"/>
      <point x="388.0" y="392.0" type="line"/>
      <point x="376.0" y="728.0" type="line"/>
      <point x="508.0" y="1148.0" type="line"/>
      <point x="524.0" y="1244.0" type="line"/>
      <point x="572.0" y="1536.0" type="line"/>
      <point x="344.0" y="1536.0" type="line"/>
    </contour>
    <contour>
      <point x="444.0" y="1292.0" type="line"/>
      <point x="268.0" y="236.0" type="line"/>
      <point x="384.0" y="236.0" type="line"/>
      <point x="424.0" y="152.0"/>
      <point x="492.0" y="-32.0"/>
      <point x="788.0" y="-32.0" type="curve" smooth="yes"/>
      <point x="1172.0" y="-32.0"/>
      <point x="1492.0" y="276.0"/>
      <point x="1572.0" y="764.0" type="curve" smooth="yes"/>
      <point x="1652.0" y="1248.0"/>
      <point x="1436.0" y="1556.0"/>
      <point x="1048.0" y="1556.0" type="curve" smooth="yes"/>
      <point x="748.0" y="1556.0"/>
      <point x="624.0" y="1372.0"/>
      <point x="560.0" y="1292.0" type="curve"/>
    </contour>
    <contour>
      <point x="1336.0" y="768.0" type="curve" smooth="yes"/>
      <point x="1280.0" y="440.0"/>
      <point x="1088.0" y="180.0"/>
      <point x="792.0" y="180.0" type="curve" smooth="yes"/>
      <point x="508.0" y="180.0"/>
      <point x="392.0" y="420.0"/>
      <point x="448.0" y="768.0" type="curve" smooth="yes"/>
      <point x="504.0" y="1112.0"/>
      <point x="696.0" y="1344.0"/>
      <point x="984.0" y="1344.0" type="curve" smooth="yes"/>
      <point x="1284.0" y="1344.0"/>
      <point x="1388.0" y="1092.0"/>
    </contour>
  </outline>
</glyph>
<glyph name="YR" format="2">
  <advance width="2032.0"/>
  <unicode hex="01A6"/>
  <outline>
    <contour>
      <point x="332.0" y="1864.0" type="line"/>
      <point x="620.0" y="1864.0" type="line"/>
      <point x="668.0" y="2144.0" type="line"/>
      <point x="380.0" y="2144.0" type="line"/>
    </contour>
    <contour>
      <point x="356.0" y="2004.0" type="line"/>
      <point x="24.0" y="0.0" type="line"/>
      <point x="312.0" y="0.0" type="line"/>
      <point x="608.0" y="1772.0" type="line"/>
      <point x="988.0" y="1772.0" type="line" smooth="yes"/>
      <point x="1288.0" y="1772.0"/>
      <point x="1380.0" y="1624.0"/>
      <point x="1344.0" y="1400.0" type="curve" smooth="yes"/>
      <point x="1312.0" y="1196.0"/>
      <point x="1144.0" y="1036.0"/>
      <point x="864.0" y="1036.0" type="curve" smooth="yes"/>
      <point x="420.0" y="1036.0" type="line"/>
      <point x="384.0" y="808.0" type="line"/>
      <point x="992.0" y="808.0" type="line"/>
      <point x="1072.0" y="836.0" type="line"/>
      <point x="1376.0" y="916.0"/>
      <point x="1584.0" y="1124.0"/>
      <point x="1628.0" y="1400.0" type="curve" smooth="yes"/>
      <point x="1692.0" y="1792.0"/>
      <point x="1480.0" y="2004.0"/>
      <point x="1024.0" y="2004.0" type="curve" smooth="yes"/>
    </contour>
    <contour>
      <point x="1368.0" y="-496.0" type="line"/>
      <point x="1672.0" y="-496.0" type="line"/>
      <point x="1672.0" y="-480.0" type="line"/>
      <point x="1152.0" y="912.0" type="line"/>
      <point x="852.0" y="912.0" type="line"/>
    </contour>
  </outline>
</glyph>
<glyph name="Tonetwo" format="2">
  <advance width="1776.0"/>
  <unicode hex="01A7"/>
  <outline>
    <contour>
      <point x="404.0" y="508.0" type="curve" smooth="yes"/>
      <point x="436.0" y="692.0"/>
      <point x="536.0" y="776.0"/>
      <point x="928.0" y="888.0" type="curve"/>
      <point x="1340.0" y="1000.0"/>
      <point x="1624.0" y="1172.0"/>
      <point x="1672.0" y="1480.0" type="curve" smooth="yes"/>
      <point x="1724.0" y="1792.0"/>
      <point x="1496.0" y="2032.0"/>
      <point x="1080.0" y="2032.0" type="curve" smooth="yes"/>
      <point x="620.0" y="2032.0"/>
      <point x="320.0" y="1732.0"/>
      <point x="268.0" y="1424.0" type="curve"/>
      <point x="556.0" y="1424.0" type="line"/>
      <point x="592.0" y="1644.0"/>
      <point x="752.0" y="1800.0"/>
      <point x="1044.0" y="1800.0" type="curve" smooth="yes"/>
      <point x="1316.0" y="1800.0"/>
      <point x="1416.0" y="1668.0"/>
      <point x="1388.0" y="1484.0" type="curve" smooth="yes"/>
      <point x="1360.0" y="1320.0"/>
      <point x="1204.0" y="1220.0"/>
      <point x="876.0" y="1132.0" type="curve"/>
      <point x="396.0" y="1000.0"/>
      <point x="168.0" y="820.0"/>
      <point x="116.0" y="512.0" type="curve" smooth="yes"/>
      <point x="64.0" y="188.0"/>
      <point x="300.0" y="-28.0"/>
      <point x="728.0" y="-28.0" type="curve" smooth="yes"/>
      <point x="1100.0" y="-28.0"/>
      <point x="1520.0" y="188.0"/>
      <point x="1584.0" y="584.0" type="curve"/>
      <point x="1300.0" y="584.0" type="line"/>
      <point x="1256.0" y="320.0"/>
      <point x="1016.0" y="200.0"/>
      <point x="764.0" y="200.0" type="curve" smooth="yes"/>
      <point x="496.0" y="200.0"/>
      <point x="372.0" y="320.0"/>
    </contour>
  </outline>
</glyph>
<glyph name="eshlooprev" format="2">
  <advance width="1520.0"/>
  <unicode hex="01AA"/>
  <outline>
    <contour>
      <point x="948.0" y="1560.0" type="line"/>
      <point x="676.0" y="-80.0" type="line" smooth="yes"/>
      <point x="624.0" y="-392.0"/>
      <point x="724.0" y="-560.0"/>
      <point x="984.0" y="-560.0" type="curve" smooth="yes"/>
      <point x="1032.0" y="-560.0"/>
      <point x="1104.0" y="-552.0"/>
      <point x="1148.0" y="-536.0" type="curve"/>
      <point x="1184.0" y="-320.0" type="line"/>
      <point x="1156.0" y="-328.0"/>
      <point x="1116.0" y="-332.0"/>
      <point x="1092.0" y="-332.0" type="curve" smooth="yes"/>
      <point x="972.0" y="-332.0"/>
      <point x="920.0" y="-268.0"/>
      <point x="952.0" y="-80.0" type="curve" smooth="yes"/>
      <point x="1244.0" y="1676.0" type="line"/>
    </contour>
    <contour>
      <point x="308.0" y="1676.0" type="curve" smooth="yes"/>
      <point x="264.0" y="1420.0"/>
      <point x="436.0" y="1208.0"/>
      <point x="696.0" y="1208.0" type="curve" smooth="yes"/>
      <point x="952.0" y="1208.0"/>
      <point x="1200.0" y="1420.0"/>
      <point x="1244.0" y="1676.0" type="curve" smooth="yes"/>
      <point x="1284.0" y="1936.0"/>
      <point x="1108.0" y="2144.0"/>
      <point x="852.0" y="2144.0" type="curve" smooth="yes"/>
      <point x="592.0" y="2144.0"/>
      <point x="348.0" y="1936.0"/>
    </contour>
    <contour>
      <point x="740.0" y="1460.0" type="curve" smooth="yes"/>
      <point x="620.0" y="1460.0"/>
      <point x="540.0" y="1532.0"/>
      <point x="564.0" y="1680.0" type="curve" smooth="yes"/>
      <point x="588.0" y="1824.0"/>
      <point x="692.0" y="1900.0"/>
      <point x="812.0" y="1900.0" type="curve" smooth="yes"/>
      <point x="928.0" y="1900.0"/>
      <point x="1008.0" y="1824.0"/>
      <point x="984.0" y="1680.0" type="curve" smooth="yes"/>
      <point x="960.0" y="1532.0"/>
      <point x="856.0" y="1460.0"/>
    </contour>
  </outline>
</glyph>
<glyph name="tpalatalhook" format="2">
  <advance width="1000.0"/>
  <unicode hex="01AB"/>
  <outline>
    <contour>
      <point x="560.0" y="184.0" type="line"/>
      <point x="500.0" y="-164.0" type="line" smooth="yes"/>
      <point x="473.0" y="-323.0"/>
      <point x="372.0" y="-372.0"/>
      <point x="244.0" y="-372.0" type="curve" smooth="yes"/>
      <point x="216.0" y="-372.0"/>
      <point x="188.0" y="-368.0"/>
      <point x="168.0" y="-364.0" type="curve"/>
      <point x="136.0" y="-564.0" type="line"/>
      <point x="168.0" y="-576.0"/>
      <point x="220.0" y="-576.0"/>
      <point x="268.0" y="-576.0" type="curve" smooth="yes"/>
      <point x="492.0" y="-576.0"/>
      <point x="691.0" y="-427.0"/>
      <point x="736.0" y="-164.0" type="curve" smooth="yes"/>
      <point x="804.0" y="232.0" type="line"/>
    </contour>
    <component base="t"/>
  </outline>
</glyph>
<glyph name="Thook" format="2">
  <advance width="1776.0"/>
  <unicode hex="01AC"/>
  <outline>
    <contour>
      <point x="1116.0" y="2048.0" type="line"/>
      <point x="644.0" y="2048.0" type="line" smooth="yes"/>
      <point x="392.0" y="2048.0"/>
      <point x="208.0" y="1884.0"/>
      <point x="168.0" y="1644.0" type="curve" smooth="yes"/>
      <point x="148.0" y="1524.0" type="line"/>
      <point x="372.0" y="1524.0" type="line"/>
      <point x="384.0" y="1600.0" type="line" smooth="yes"/>
      <point x="404.0" y="1716.0"/>
      <point x="468.0" y="1828.0"/>
      <point x="608.0" y="1828.0" type="curve" smooth="yes"/>
      <point x="1080.0" y="1828.0" type="line"/>
    </contour>
    <contour>
      <point x="1884.0" y="2048.0" type="line"/>
      <point x="796.0" y="2048.0" type="line"/>
      <point x="760.0" y="1828.0" type="line"/>
      <point x="956.0" y="1828.0" type="line"/>
      <point x="652.0" y="0.0" type="line"/>
      <point x="900.0" y="0.0" type="line"/>
      <point x="1204.0" y="1828.0" type="line"/>
      <point x="1848.0" y="1828.0" type="line"/>
    </contour>
  </outline>
</glyph>
<glyph name="thook" format="2">
  <advance width="1008.0"/>
  <unicode hex="01AD"/>
  <outline>
    <contour>
      <point x="764.0" y="1532.0" type="line"/>
      <point x="796.0" y="1736.0" type="line" smooth="yes"/>
      <point x="824.0" y="1896.0"/>
      <point x="912.0" y="1952.0"/>
      <point x="1040.0" y="1952.0" type="curve" smooth="yes"/>
      <point x="1060.0" y="1952.0"/>
      <point x="1092.0" y="1948.0"/>
      <point x="1116.0" y="1940.0" type="curve"/>
      <point x="1144.0" y="2124.0" type="line"/>
      <point x="1108.0" y="2136.0"/>
      <point x="1052.0" y="2144.0"/>
      <point x="1012.0" y="2144.0" type="curve" smooth="yes"/>
      <point x="784.0" y="2144.0"/>
      <point x="564.0" y="2000.0"/>
      <point x="520.0" y="1736.0" type="curve" smooth="yes"/>
      <point x="488.0" y="1532.0" type="line"/>
    </contour>
    <contour>
      <point x="1028.0" y="1488.0" type="line"/>
      <point x="212.0" y="1488.0" type="line"/>
      <point x="176.0" y="1284.0" type="line"/>
      <point x="992.0" y="1284.0" type="line"/>
    </contour>
    <contour>
      <point x="492.0" y="1572.0" type="line"/>
      <point x="300.0" y="412.0" type="line"/>
      <point x="248.0" y="96.0"/>
      <point x="388.0" y="-28.0"/>
      <point x="576.0" y="-28.0" type="curve" smooth="yes"/>
      <point x="672.0" y="-28.0"/>
      <point x="744.0" y="-12.0"/>
      <point x="784.0" y="0.0" type="curve"/>
      <point x="820.0" y="220.0" type="line"/>
      <point x="796.0" y="216.0"/>
      <point x="744.0" y="204.0"/>
      <point x="700.0" y="204.0" type="curve" smooth="yes"/>
      <point x="620.0" y="204.0"/>
      <point x="548.0" y="248.0"/>
      <point x="576.0" y="412.0" type="curve"/>
      <point x="768.0" y="1572.0" type="line"/>
    </contour>
  </outline>
</glyph>
<glyph name="Trthook" format="2">
  <advance width="1808.0"/>
  <unicode hex="01AE"/>
  <outline>
    <contour>
      <point x="900.0" y="0.0" type="line"/>
      <point x="652.0" y="0.0" type="line"/>
      <point x="624.0" y="-168.0" type="line" smooth="yes"/>
      <point x="580.0" y="-434.0"/>
      <point x="760.0" y="-576.0"/>
      <point x="984.0" y="-576.0" type="curve"/>
      <point x="1120.0" y="-576.0" type="line"/>
      <point x="1156.0" y="-356.0" type="line"/>
      <point x="1080.0" y="-356.0" type="line"/>
      <point x="952.0" y="-356.0"/>
      <point x="845.0" y="-324.0"/>
      <point x="872.0" y="-164.0" type="curve" smooth="yes"/>
    </contour>
    <component base="T"/>
  </outline>
</glyph>
<glyph name="Uhorn" format="2">
  <advance width="2404.0"/>
  <unicode hex="01AF"/>
  <guideline x="776.0" y="244.0" angle="90.0"/>
  <outline>
    <contour>
      <point x="2300.0" y="2172.0" type="line"/>
      <point x="2256.0" y="1908.0"/>
      <point x="2156.0" y="1768.0"/>
      <point x="1876.0" y="1768.0" type="curve"/>
      <point x="1844.0" y="1572.0" type="line"/>
      <point x="2268.0" y="1572.0"/>
      <point x="2468.0" y="1780.0"/>
      <point x="2532.0" y="2172.0" type="curve"/>
    </contour>
    <contour>
      <point x="1804.0" y="2048.0" type="line"/>
      <point x="1580.0" y="692.0" type="line" smooth="yes"/>
      <point x="1528.0" y="372.0"/>
      <point x="1240.0" y="196.0"/>
      <point x="948.0" y="196.0" type="curve" smooth="yes"/>
      <point x="656.0" y="196.0"/>
      <point x="432.0" y="372.0"/>
      <point x="484.0" y="692.0" type="curve" smooth="yes"/>
      <point x="708.0" y="2048.0" type="line"/>
      <point x="460.0" y="2048.0" type="line"/>
      <point x="236.0" y="692.0" type="line"/>
      <point x="160.0" y="232.0"/>
      <point x="480.0" y="-36.0"/>
      <point x="912.0" y="-36.0" type="curve" smooth="yes"/>
      <point x="1344.0" y="-36.0"/>
      <point x="1752.0" y="232.0"/>
      <point x="1828.0" y="692.0" type="curve"/>
      <point x="2052.0" y="2048.0" type="line"/>
    </contour>
  </outline>
</glyph>
<glyph name="uhorn" format="2">
  <advance width="1752.0"/>
  <unicode hex="01B0"/>
  <outline>
    <contour>
      <point x="1732.0" y="1604.0" type="line"/>
      <point x="1699.0" y="1396.0"/>
      <point x="1681.0" y="1308.0"/>
      <point x="1432.0" y="1308.0" type="curve"/>
      <point x="1404.0" y="1144.0" type="line"/>
      <point x="1765.0" y="1144.0"/>
      <point x="1891.0" y="1300.0"/>
      <point x="1940.0" y="1604.0" type="curve"/>
    </contour>
    <component base="u"/>
  </outline>
</glyph>
<glyph name="Upsilon2" format="2">
  <advance width="2144.0"/>
  <unicode hex="01B1"/>
  <outline>
    <contour>
      <point x="1092.0" y="1944.0" type="line"/>
      <point x="640.0" y="1824.0"/>
      <point x="288.0" y="1488.0"/>
      <point x="200.0" y="968.0" type="curve" smooth="yes"/>
      <point x="104.0" y="384.0"/>
      <point x="412.0" y="-28.0"/>
      <point x="940.0" y="-28.0" type="curve" smooth="yes"/>
      <point x="1468.0" y="-28.0"/>
      <point x="1912.0" y="384.0"/>
      <point x="2008.0" y="968.0" type="curve" smooth="yes"/>
      <point x="2096.0" y="1488.0"/>
      <point x="1860.0" y="1824.0"/>
      <point x="1444.0" y="1944.0" type="curve"/>
      <point x="1412.0" y="1768.0" type="line"/>
      <point x="1660.0" y="1656.0"/>
      <point x="1832.0" y="1352.0"/>
      <point x="1768.0" y="968.0" type="curve" smooth="yes"/>
      <point x="1700.0" y="540.0"/>
      <point x="1368.0" y="204.0"/>
      <point x="980.0" y="204.0" type="curve" smooth="yes"/>
      <point x="592.0" y="204.0"/>
      <point x="372.0" y="540.0"/>
      <point x="440.0" y="968.0" type="curve" smooth="yes"/>
      <point x="504.0" y="1352.0"/>
      <point x="780.0" y="1656.0"/>
      <point x="1060.0" y="1768.0" type="curve"/>
    </contour>
    <contour>
      <point x="380.0" y="2048.0" type="line"/>
      <point x="344.0" y="1828.0" type="line"/>
      <point x="772.0" y="1828.0" type="line"/>
      <point x="760.0" y="1768.0" type="line"/>
      <point x="1060.0" y="1768.0" type="line"/>
      <point x="1108.0" y="2048.0" type="line"/>
    </contour>
    <contour>
      <point x="1460.0" y="2048.0" type="line"/>
      <point x="1412.0" y="1768.0" type="line"/>
      <point x="1712.0" y="1768.0" type="line"/>
      <point x="1724.0" y="1828.0" type="line"/>
      <point x="2152.0" y="1828.0" type="line"/>
      <point x="2188.0" y="2048.0" type="line"/>
    </contour>
  </outline>
</glyph>
<glyph name="Vcursive" format="2">
  <advance width="1776.0"/>
  <unicode hex="01B2"/>
  <outline>
    <contour>
      <point x="756.0" y="-28.0" type="curve" smooth="yes"/>
      <point x="1144.0" y="-28.0"/>
      <point x="1524.0" y="196.0"/>
      <point x="1600.0" y="648.0" type="curve" smooth="yes"/>
      <point x="1748.0" y="1552.0" type="line" smooth="yes"/>
      <point x="1800.0" y="1860.0"/>
      <point x="1644.0" y="2032.0"/>
      <point x="1380.0" y="2032.0" type="curve" smooth="yes"/>
      <point x="1336.0" y="2032.0"/>
      <point x="1264.0" y="2020.0"/>
      <point x="1220.0" y="2008.0" type="curve"/>
      <point x="1184.0" y="1788.0" type="line"/>
      <point x="1212.0" y="1796.0"/>
      <point x="1252.0" y="1796.0"/>
      <point x="1276.0" y="1796.0" type="curve" smooth="yes"/>
      <point x="1424.0" y="1796.0"/>
      <point x="1492.0" y="1732.0"/>
      <point x="1460.0" y="1552.0" type="curve" smooth="yes"/>
      <point x="1312.0" y="648.0" type="line" smooth="yes"/>
      <point x="1260.0" y="340.0"/>
      <point x="1060.0" y="200.0"/>
      <point x="792.0" y="200.0" type="curve" smooth="yes"/>
      <point x="524.0" y="200.0"/>
      <point x="372.0" y="340.0"/>
      <point x="424.0" y="648.0" type="curve" smooth="yes"/>
      <point x="648.0" y="2004.0" type="line"/>
      <point x="364.0" y="2004.0" type="line"/>
      <point x="140.0" y="648.0" type="line" smooth="yes"/>
      <point x="64.0" y="196.0"/>
      <point x="344.0" y="-28.0"/>
    </contour>
  </outline>
</glyph>
